%TF.GenerationSoftware,KiCad,Pcbnew,8.0.4*%
%TF.CreationDate,2024-08-26T14:53:49-04:00*%
%TF.ProjectId,S-Band_1W_R1,532d4261-6e64-45f3-9157-5f52312e6b69,0*%
%TF.SameCoordinates,Original*%
%TF.FileFunction,Legend,Top*%
%TF.FilePolarity,Positive*%
%FSLAX46Y46*%
G04 Gerber Fmt 4.6, Leading zero omitted, Abs format (unit mm)*
G04 Created by KiCad (PCBNEW 8.0.4) date 2024-08-26 14:53:49*
%MOMM*%
%LPD*%
G01*
G04 APERTURE LIST*
%ADD10C,0.254000*%
%ADD11C,0.177800*%
G04 APERTURE END LIST*
D10*
X137922000Y-83820000D02*
X137922000Y-86360000D01*
X130302000Y-83820000D02*
X130302000Y-86360000D01*
X125222000Y-83820000D02*
X125222000Y-86360000D01*
X169418000Y-83820000D02*
X169418000Y-86360000D01*
X155448000Y-85090000D02*
X155448000Y-86360000D01*
X163068000Y-85090000D02*
X163068000Y-86360000D01*
X166878000Y-83820000D02*
X166878000Y-86360000D01*
X160528000Y-85090000D02*
X160528000Y-86360000D01*
X132842000Y-83820000D02*
X132842000Y-86360000D01*
X136652000Y-85090000D02*
X136652000Y-86360000D01*
X154178000Y-83820000D02*
X154178000Y-86360000D01*
X145034000Y-109220000D02*
X142494000Y-109220000D01*
X139192000Y-85090000D02*
X139192000Y-86360000D01*
X123952000Y-85090000D02*
X123952000Y-86360000D01*
X161798000Y-83820000D02*
X161798000Y-86360000D01*
X145034000Y-106680000D02*
X142494000Y-106680000D01*
X126492000Y-85090000D02*
X126492000Y-86360000D01*
X171958000Y-83820000D02*
X171958000Y-86360000D01*
X145034000Y-110490000D02*
X143764000Y-110490000D01*
X151638000Y-83820000D02*
X151638000Y-86360000D01*
X165608000Y-85090000D02*
X165608000Y-86360000D01*
X129032000Y-85090000D02*
X129032000Y-86360000D01*
X157988000Y-85090000D02*
X157988000Y-86360000D01*
X135382000Y-83820000D02*
X135382000Y-86360000D01*
X140462000Y-83820000D02*
X140462000Y-86360000D01*
X152908000Y-85090000D02*
X152908000Y-86360000D01*
X120142000Y-83820000D02*
X120142000Y-86360000D01*
X134112000Y-85090000D02*
X134112000Y-86360000D01*
X156718000Y-83820000D02*
X156718000Y-86360000D01*
X151638000Y-86360000D02*
X174498000Y-86360000D01*
X120142000Y-86360000D02*
X143002000Y-86360000D01*
X164338000Y-83820000D02*
X164338000Y-86360000D01*
X141732000Y-85090000D02*
X141732000Y-86360000D01*
X145034000Y-107950000D02*
X143764000Y-107950000D01*
X145034000Y-111760000D02*
X142494000Y-111760000D01*
X131572000Y-85090000D02*
X131572000Y-86360000D01*
X145034000Y-104140000D02*
X145034000Y-114046000D01*
X143002000Y-83820000D02*
X143002000Y-86360000D01*
X127762000Y-83820000D02*
X127762000Y-86360000D01*
X159258000Y-83820000D02*
X159258000Y-86360000D01*
X168148000Y-85090000D02*
X168148000Y-86360000D01*
X122682000Y-83820000D02*
X122682000Y-86360000D01*
X170688000Y-85090000D02*
X170688000Y-86360000D01*
X145034000Y-105410000D02*
X143764000Y-105410000D01*
X173228000Y-85090000D02*
X173228000Y-86360000D01*
X145034000Y-113030000D02*
X143764000Y-113030000D01*
X121412000Y-85090000D02*
X121412000Y-86360000D01*
X145034000Y-104140000D02*
X142494000Y-104140000D01*
X174498000Y-83820000D02*
X174498000Y-86360000D01*
D11*
X159067356Y-82856360D02*
X159660023Y-82856360D01*
X158728690Y-83068027D02*
X159363690Y-83279693D01*
X159363690Y-83279693D02*
X159363690Y-82729360D01*
X158771023Y-82221360D02*
X158771023Y-82136693D01*
X158771023Y-82136693D02*
X158813356Y-82052026D01*
X158813356Y-82052026D02*
X158855690Y-82009693D01*
X158855690Y-82009693D02*
X158940356Y-81967360D01*
X158940356Y-81967360D02*
X159109690Y-81925026D01*
X159109690Y-81925026D02*
X159321356Y-81925026D01*
X159321356Y-81925026D02*
X159490690Y-81967360D01*
X159490690Y-81967360D02*
X159575356Y-82009693D01*
X159575356Y-82009693D02*
X159617690Y-82052026D01*
X159617690Y-82052026D02*
X159660023Y-82136693D01*
X159660023Y-82136693D02*
X159660023Y-82221360D01*
X159660023Y-82221360D02*
X159617690Y-82306026D01*
X159617690Y-82306026D02*
X159575356Y-82348360D01*
X159575356Y-82348360D02*
X159490690Y-82390693D01*
X159490690Y-82390693D02*
X159321356Y-82433026D01*
X159321356Y-82433026D02*
X159109690Y-82433026D01*
X159109690Y-82433026D02*
X158940356Y-82390693D01*
X158940356Y-82390693D02*
X158855690Y-82348360D01*
X158855690Y-82348360D02*
X158813356Y-82306026D01*
X158813356Y-82306026D02*
X158771023Y-82221360D01*
X158771023Y-81374693D02*
X158771023Y-81290026D01*
X158771023Y-81290026D02*
X158813356Y-81205359D01*
X158813356Y-81205359D02*
X158855690Y-81163026D01*
X158855690Y-81163026D02*
X158940356Y-81120693D01*
X158940356Y-81120693D02*
X159109690Y-81078359D01*
X159109690Y-81078359D02*
X159321356Y-81078359D01*
X159321356Y-81078359D02*
X159490690Y-81120693D01*
X159490690Y-81120693D02*
X159575356Y-81163026D01*
X159575356Y-81163026D02*
X159617690Y-81205359D01*
X159617690Y-81205359D02*
X159660023Y-81290026D01*
X159660023Y-81290026D02*
X159660023Y-81374693D01*
X159660023Y-81374693D02*
X159617690Y-81459359D01*
X159617690Y-81459359D02*
X159575356Y-81501693D01*
X159575356Y-81501693D02*
X159490690Y-81544026D01*
X159490690Y-81544026D02*
X159321356Y-81586359D01*
X159321356Y-81586359D02*
X159109690Y-81586359D01*
X159109690Y-81586359D02*
X158940356Y-81544026D01*
X158940356Y-81544026D02*
X158855690Y-81501693D01*
X158855690Y-81501693D02*
X158813356Y-81459359D01*
X158813356Y-81459359D02*
X158771023Y-81374693D01*
X166391023Y-83322027D02*
X166391023Y-82729360D01*
X166391023Y-82729360D02*
X167280023Y-83110360D01*
X166391023Y-82221360D02*
X166391023Y-82136693D01*
X166391023Y-82136693D02*
X166433356Y-82052026D01*
X166433356Y-82052026D02*
X166475690Y-82009693D01*
X166475690Y-82009693D02*
X166560356Y-81967360D01*
X166560356Y-81967360D02*
X166729690Y-81925026D01*
X166729690Y-81925026D02*
X166941356Y-81925026D01*
X166941356Y-81925026D02*
X167110690Y-81967360D01*
X167110690Y-81967360D02*
X167195356Y-82009693D01*
X167195356Y-82009693D02*
X167237690Y-82052026D01*
X167237690Y-82052026D02*
X167280023Y-82136693D01*
X167280023Y-82136693D02*
X167280023Y-82221360D01*
X167280023Y-82221360D02*
X167237690Y-82306026D01*
X167237690Y-82306026D02*
X167195356Y-82348360D01*
X167195356Y-82348360D02*
X167110690Y-82390693D01*
X167110690Y-82390693D02*
X166941356Y-82433026D01*
X166941356Y-82433026D02*
X166729690Y-82433026D01*
X166729690Y-82433026D02*
X166560356Y-82390693D01*
X166560356Y-82390693D02*
X166475690Y-82348360D01*
X166475690Y-82348360D02*
X166433356Y-82306026D01*
X166433356Y-82306026D02*
X166391023Y-82221360D01*
X166391023Y-81374693D02*
X166391023Y-81290026D01*
X166391023Y-81290026D02*
X166433356Y-81205359D01*
X166433356Y-81205359D02*
X166475690Y-81163026D01*
X166475690Y-81163026D02*
X166560356Y-81120693D01*
X166560356Y-81120693D02*
X166729690Y-81078359D01*
X166729690Y-81078359D02*
X166941356Y-81078359D01*
X166941356Y-81078359D02*
X167110690Y-81120693D01*
X167110690Y-81120693D02*
X167195356Y-81163026D01*
X167195356Y-81163026D02*
X167237690Y-81205359D01*
X167237690Y-81205359D02*
X167280023Y-81290026D01*
X167280023Y-81290026D02*
X167280023Y-81374693D01*
X167280023Y-81374693D02*
X167237690Y-81459359D01*
X167237690Y-81459359D02*
X167195356Y-81501693D01*
X167195356Y-81501693D02*
X167110690Y-81544026D01*
X167110690Y-81544026D02*
X166941356Y-81586359D01*
X166941356Y-81586359D02*
X166729690Y-81586359D01*
X166729690Y-81586359D02*
X166560356Y-81544026D01*
X166560356Y-81544026D02*
X166475690Y-81501693D01*
X166475690Y-81501693D02*
X166433356Y-81459359D01*
X166433356Y-81459359D02*
X166391023Y-81374693D01*
X139752359Y-111357690D02*
X139794692Y-111315356D01*
X139794692Y-111315356D02*
X139879359Y-111273023D01*
X139879359Y-111273023D02*
X140091026Y-111273023D01*
X140091026Y-111273023D02*
X140175692Y-111315356D01*
X140175692Y-111315356D02*
X140218026Y-111357690D01*
X140218026Y-111357690D02*
X140260359Y-111442356D01*
X140260359Y-111442356D02*
X140260359Y-111527023D01*
X140260359Y-111527023D02*
X140218026Y-111654023D01*
X140218026Y-111654023D02*
X139710026Y-112162023D01*
X139710026Y-112162023D02*
X140260359Y-112162023D01*
X140810693Y-111273023D02*
X140895359Y-111273023D01*
X140895359Y-111273023D02*
X140980026Y-111315356D01*
X140980026Y-111315356D02*
X141022359Y-111357690D01*
X141022359Y-111357690D02*
X141064693Y-111442356D01*
X141064693Y-111442356D02*
X141107026Y-111611690D01*
X141107026Y-111611690D02*
X141107026Y-111823356D01*
X141107026Y-111823356D02*
X141064693Y-111992690D01*
X141064693Y-111992690D02*
X141022359Y-112077356D01*
X141022359Y-112077356D02*
X140980026Y-112119690D01*
X140980026Y-112119690D02*
X140895359Y-112162023D01*
X140895359Y-112162023D02*
X140810693Y-112162023D01*
X140810693Y-112162023D02*
X140726026Y-112119690D01*
X140726026Y-112119690D02*
X140683693Y-112077356D01*
X140683693Y-112077356D02*
X140641359Y-111992690D01*
X140641359Y-111992690D02*
X140599026Y-111823356D01*
X140599026Y-111823356D02*
X140599026Y-111611690D01*
X140599026Y-111611690D02*
X140641359Y-111442356D01*
X140641359Y-111442356D02*
X140683693Y-111357690D01*
X140683693Y-111357690D02*
X140726026Y-111315356D01*
X140726026Y-111315356D02*
X140810693Y-111273023D01*
X141657360Y-111273023D02*
X141742026Y-111273023D01*
X141742026Y-111273023D02*
X141826693Y-111315356D01*
X141826693Y-111315356D02*
X141869026Y-111357690D01*
X141869026Y-111357690D02*
X141911360Y-111442356D01*
X141911360Y-111442356D02*
X141953693Y-111611690D01*
X141953693Y-111611690D02*
X141953693Y-111823356D01*
X141953693Y-111823356D02*
X141911360Y-111992690D01*
X141911360Y-111992690D02*
X141869026Y-112077356D01*
X141869026Y-112077356D02*
X141826693Y-112119690D01*
X141826693Y-112119690D02*
X141742026Y-112162023D01*
X141742026Y-112162023D02*
X141657360Y-112162023D01*
X141657360Y-112162023D02*
X141572693Y-112119690D01*
X141572693Y-112119690D02*
X141530360Y-112077356D01*
X141530360Y-112077356D02*
X141488026Y-111992690D01*
X141488026Y-111992690D02*
X141445693Y-111823356D01*
X141445693Y-111823356D02*
X141445693Y-111611690D01*
X141445693Y-111611690D02*
X141488026Y-111442356D01*
X141488026Y-111442356D02*
X141530360Y-111357690D01*
X141530360Y-111357690D02*
X141572693Y-111315356D01*
X141572693Y-111315356D02*
X141657360Y-111273023D01*
X127275023Y-83322027D02*
X127275023Y-82729360D01*
X127275023Y-82729360D02*
X128164023Y-83110360D01*
X127275023Y-82221360D02*
X127275023Y-82136693D01*
X127275023Y-82136693D02*
X127317356Y-82052026D01*
X127317356Y-82052026D02*
X127359690Y-82009693D01*
X127359690Y-82009693D02*
X127444356Y-81967360D01*
X127444356Y-81967360D02*
X127613690Y-81925026D01*
X127613690Y-81925026D02*
X127825356Y-81925026D01*
X127825356Y-81925026D02*
X127994690Y-81967360D01*
X127994690Y-81967360D02*
X128079356Y-82009693D01*
X128079356Y-82009693D02*
X128121690Y-82052026D01*
X128121690Y-82052026D02*
X128164023Y-82136693D01*
X128164023Y-82136693D02*
X128164023Y-82221360D01*
X128164023Y-82221360D02*
X128121690Y-82306026D01*
X128121690Y-82306026D02*
X128079356Y-82348360D01*
X128079356Y-82348360D02*
X127994690Y-82390693D01*
X127994690Y-82390693D02*
X127825356Y-82433026D01*
X127825356Y-82433026D02*
X127613690Y-82433026D01*
X127613690Y-82433026D02*
X127444356Y-82390693D01*
X127444356Y-82390693D02*
X127359690Y-82348360D01*
X127359690Y-82348360D02*
X127317356Y-82306026D01*
X127317356Y-82306026D02*
X127275023Y-82221360D01*
X127275023Y-81374693D02*
X127275023Y-81290026D01*
X127275023Y-81290026D02*
X127317356Y-81205359D01*
X127317356Y-81205359D02*
X127359690Y-81163026D01*
X127359690Y-81163026D02*
X127444356Y-81120693D01*
X127444356Y-81120693D02*
X127613690Y-81078359D01*
X127613690Y-81078359D02*
X127825356Y-81078359D01*
X127825356Y-81078359D02*
X127994690Y-81120693D01*
X127994690Y-81120693D02*
X128079356Y-81163026D01*
X128079356Y-81163026D02*
X128121690Y-81205359D01*
X128121690Y-81205359D02*
X128164023Y-81290026D01*
X128164023Y-81290026D02*
X128164023Y-81374693D01*
X128164023Y-81374693D02*
X128121690Y-81459359D01*
X128121690Y-81459359D02*
X128079356Y-81501693D01*
X128079356Y-81501693D02*
X127994690Y-81544026D01*
X127994690Y-81544026D02*
X127825356Y-81586359D01*
X127825356Y-81586359D02*
X127613690Y-81586359D01*
X127613690Y-81586359D02*
X127444356Y-81544026D01*
X127444356Y-81544026D02*
X127359690Y-81501693D01*
X127359690Y-81501693D02*
X127317356Y-81459359D01*
X127317356Y-81459359D02*
X127275023Y-81374693D01*
X156231023Y-83322027D02*
X156231023Y-82771693D01*
X156231023Y-82771693D02*
X156569690Y-83068027D01*
X156569690Y-83068027D02*
X156569690Y-82941027D01*
X156569690Y-82941027D02*
X156612023Y-82856360D01*
X156612023Y-82856360D02*
X156654356Y-82814027D01*
X156654356Y-82814027D02*
X156739023Y-82771693D01*
X156739023Y-82771693D02*
X156950690Y-82771693D01*
X156950690Y-82771693D02*
X157035356Y-82814027D01*
X157035356Y-82814027D02*
X157077690Y-82856360D01*
X157077690Y-82856360D02*
X157120023Y-82941027D01*
X157120023Y-82941027D02*
X157120023Y-83195027D01*
X157120023Y-83195027D02*
X157077690Y-83279693D01*
X157077690Y-83279693D02*
X157035356Y-83322027D01*
X156231023Y-82221360D02*
X156231023Y-82136693D01*
X156231023Y-82136693D02*
X156273356Y-82052026D01*
X156273356Y-82052026D02*
X156315690Y-82009693D01*
X156315690Y-82009693D02*
X156400356Y-81967360D01*
X156400356Y-81967360D02*
X156569690Y-81925026D01*
X156569690Y-81925026D02*
X156781356Y-81925026D01*
X156781356Y-81925026D02*
X156950690Y-81967360D01*
X156950690Y-81967360D02*
X157035356Y-82009693D01*
X157035356Y-82009693D02*
X157077690Y-82052026D01*
X157077690Y-82052026D02*
X157120023Y-82136693D01*
X157120023Y-82136693D02*
X157120023Y-82221360D01*
X157120023Y-82221360D02*
X157077690Y-82306026D01*
X157077690Y-82306026D02*
X157035356Y-82348360D01*
X157035356Y-82348360D02*
X156950690Y-82390693D01*
X156950690Y-82390693D02*
X156781356Y-82433026D01*
X156781356Y-82433026D02*
X156569690Y-82433026D01*
X156569690Y-82433026D02*
X156400356Y-82390693D01*
X156400356Y-82390693D02*
X156315690Y-82348360D01*
X156315690Y-82348360D02*
X156273356Y-82306026D01*
X156273356Y-82306026D02*
X156231023Y-82221360D01*
X156231023Y-81374693D02*
X156231023Y-81290026D01*
X156231023Y-81290026D02*
X156273356Y-81205359D01*
X156273356Y-81205359D02*
X156315690Y-81163026D01*
X156315690Y-81163026D02*
X156400356Y-81120693D01*
X156400356Y-81120693D02*
X156569690Y-81078359D01*
X156569690Y-81078359D02*
X156781356Y-81078359D01*
X156781356Y-81078359D02*
X156950690Y-81120693D01*
X156950690Y-81120693D02*
X157035356Y-81163026D01*
X157035356Y-81163026D02*
X157077690Y-81205359D01*
X157077690Y-81205359D02*
X157120023Y-81290026D01*
X157120023Y-81290026D02*
X157120023Y-81374693D01*
X157120023Y-81374693D02*
X157077690Y-81459359D01*
X157077690Y-81459359D02*
X157035356Y-81501693D01*
X157035356Y-81501693D02*
X156950690Y-81544026D01*
X156950690Y-81544026D02*
X156781356Y-81586359D01*
X156781356Y-81586359D02*
X156569690Y-81586359D01*
X156569690Y-81586359D02*
X156400356Y-81544026D01*
X156400356Y-81544026D02*
X156315690Y-81501693D01*
X156315690Y-81501693D02*
X156273356Y-81459359D01*
X156273356Y-81459359D02*
X156231023Y-81374693D01*
X161311023Y-82814027D02*
X161311023Y-83237360D01*
X161311023Y-83237360D02*
X161734356Y-83279693D01*
X161734356Y-83279693D02*
X161692023Y-83237360D01*
X161692023Y-83237360D02*
X161649690Y-83152693D01*
X161649690Y-83152693D02*
X161649690Y-82941027D01*
X161649690Y-82941027D02*
X161692023Y-82856360D01*
X161692023Y-82856360D02*
X161734356Y-82814027D01*
X161734356Y-82814027D02*
X161819023Y-82771693D01*
X161819023Y-82771693D02*
X162030690Y-82771693D01*
X162030690Y-82771693D02*
X162115356Y-82814027D01*
X162115356Y-82814027D02*
X162157690Y-82856360D01*
X162157690Y-82856360D02*
X162200023Y-82941027D01*
X162200023Y-82941027D02*
X162200023Y-83152693D01*
X162200023Y-83152693D02*
X162157690Y-83237360D01*
X162157690Y-83237360D02*
X162115356Y-83279693D01*
X161311023Y-82221360D02*
X161311023Y-82136693D01*
X161311023Y-82136693D02*
X161353356Y-82052026D01*
X161353356Y-82052026D02*
X161395690Y-82009693D01*
X161395690Y-82009693D02*
X161480356Y-81967360D01*
X161480356Y-81967360D02*
X161649690Y-81925026D01*
X161649690Y-81925026D02*
X161861356Y-81925026D01*
X161861356Y-81925026D02*
X162030690Y-81967360D01*
X162030690Y-81967360D02*
X162115356Y-82009693D01*
X162115356Y-82009693D02*
X162157690Y-82052026D01*
X162157690Y-82052026D02*
X162200023Y-82136693D01*
X162200023Y-82136693D02*
X162200023Y-82221360D01*
X162200023Y-82221360D02*
X162157690Y-82306026D01*
X162157690Y-82306026D02*
X162115356Y-82348360D01*
X162115356Y-82348360D02*
X162030690Y-82390693D01*
X162030690Y-82390693D02*
X161861356Y-82433026D01*
X161861356Y-82433026D02*
X161649690Y-82433026D01*
X161649690Y-82433026D02*
X161480356Y-82390693D01*
X161480356Y-82390693D02*
X161395690Y-82348360D01*
X161395690Y-82348360D02*
X161353356Y-82306026D01*
X161353356Y-82306026D02*
X161311023Y-82221360D01*
X161311023Y-81374693D02*
X161311023Y-81290026D01*
X161311023Y-81290026D02*
X161353356Y-81205359D01*
X161353356Y-81205359D02*
X161395690Y-81163026D01*
X161395690Y-81163026D02*
X161480356Y-81120693D01*
X161480356Y-81120693D02*
X161649690Y-81078359D01*
X161649690Y-81078359D02*
X161861356Y-81078359D01*
X161861356Y-81078359D02*
X162030690Y-81120693D01*
X162030690Y-81120693D02*
X162115356Y-81163026D01*
X162115356Y-81163026D02*
X162157690Y-81205359D01*
X162157690Y-81205359D02*
X162200023Y-81290026D01*
X162200023Y-81290026D02*
X162200023Y-81374693D01*
X162200023Y-81374693D02*
X162157690Y-81459359D01*
X162157690Y-81459359D02*
X162115356Y-81501693D01*
X162115356Y-81501693D02*
X162030690Y-81544026D01*
X162030690Y-81544026D02*
X161861356Y-81586359D01*
X161861356Y-81586359D02*
X161649690Y-81586359D01*
X161649690Y-81586359D02*
X161480356Y-81544026D01*
X161480356Y-81544026D02*
X161395690Y-81501693D01*
X161395690Y-81501693D02*
X161353356Y-81459359D01*
X161353356Y-81459359D02*
X161311023Y-81374693D01*
X153775690Y-83279693D02*
X153733356Y-83237360D01*
X153733356Y-83237360D02*
X153691023Y-83152693D01*
X153691023Y-83152693D02*
X153691023Y-82941027D01*
X153691023Y-82941027D02*
X153733356Y-82856360D01*
X153733356Y-82856360D02*
X153775690Y-82814027D01*
X153775690Y-82814027D02*
X153860356Y-82771693D01*
X153860356Y-82771693D02*
X153945023Y-82771693D01*
X153945023Y-82771693D02*
X154072023Y-82814027D01*
X154072023Y-82814027D02*
X154580023Y-83322027D01*
X154580023Y-83322027D02*
X154580023Y-82771693D01*
X153691023Y-82221360D02*
X153691023Y-82136693D01*
X153691023Y-82136693D02*
X153733356Y-82052026D01*
X153733356Y-82052026D02*
X153775690Y-82009693D01*
X153775690Y-82009693D02*
X153860356Y-81967360D01*
X153860356Y-81967360D02*
X154029690Y-81925026D01*
X154029690Y-81925026D02*
X154241356Y-81925026D01*
X154241356Y-81925026D02*
X154410690Y-81967360D01*
X154410690Y-81967360D02*
X154495356Y-82009693D01*
X154495356Y-82009693D02*
X154537690Y-82052026D01*
X154537690Y-82052026D02*
X154580023Y-82136693D01*
X154580023Y-82136693D02*
X154580023Y-82221360D01*
X154580023Y-82221360D02*
X154537690Y-82306026D01*
X154537690Y-82306026D02*
X154495356Y-82348360D01*
X154495356Y-82348360D02*
X154410690Y-82390693D01*
X154410690Y-82390693D02*
X154241356Y-82433026D01*
X154241356Y-82433026D02*
X154029690Y-82433026D01*
X154029690Y-82433026D02*
X153860356Y-82390693D01*
X153860356Y-82390693D02*
X153775690Y-82348360D01*
X153775690Y-82348360D02*
X153733356Y-82306026D01*
X153733356Y-82306026D02*
X153691023Y-82221360D01*
X153691023Y-81374693D02*
X153691023Y-81290026D01*
X153691023Y-81290026D02*
X153733356Y-81205359D01*
X153733356Y-81205359D02*
X153775690Y-81163026D01*
X153775690Y-81163026D02*
X153860356Y-81120693D01*
X153860356Y-81120693D02*
X154029690Y-81078359D01*
X154029690Y-81078359D02*
X154241356Y-81078359D01*
X154241356Y-81078359D02*
X154410690Y-81120693D01*
X154410690Y-81120693D02*
X154495356Y-81163026D01*
X154495356Y-81163026D02*
X154537690Y-81205359D01*
X154537690Y-81205359D02*
X154580023Y-81290026D01*
X154580023Y-81290026D02*
X154580023Y-81374693D01*
X154580023Y-81374693D02*
X154537690Y-81459359D01*
X154537690Y-81459359D02*
X154495356Y-81501693D01*
X154495356Y-81501693D02*
X154410690Y-81544026D01*
X154410690Y-81544026D02*
X154241356Y-81586359D01*
X154241356Y-81586359D02*
X154029690Y-81586359D01*
X154029690Y-81586359D02*
X153860356Y-81544026D01*
X153860356Y-81544026D02*
X153775690Y-81501693D01*
X153775690Y-81501693D02*
X153733356Y-81459359D01*
X153733356Y-81459359D02*
X153691023Y-81374693D01*
X174900023Y-82771693D02*
X174900023Y-83279693D01*
X174900023Y-83025693D02*
X174011023Y-83025693D01*
X174011023Y-83025693D02*
X174138023Y-83110360D01*
X174138023Y-83110360D02*
X174222690Y-83195027D01*
X174222690Y-83195027D02*
X174265023Y-83279693D01*
X174011023Y-82221360D02*
X174011023Y-82136693D01*
X174011023Y-82136693D02*
X174053356Y-82052026D01*
X174053356Y-82052026D02*
X174095690Y-82009693D01*
X174095690Y-82009693D02*
X174180356Y-81967360D01*
X174180356Y-81967360D02*
X174349690Y-81925026D01*
X174349690Y-81925026D02*
X174561356Y-81925026D01*
X174561356Y-81925026D02*
X174730690Y-81967360D01*
X174730690Y-81967360D02*
X174815356Y-82009693D01*
X174815356Y-82009693D02*
X174857690Y-82052026D01*
X174857690Y-82052026D02*
X174900023Y-82136693D01*
X174900023Y-82136693D02*
X174900023Y-82221360D01*
X174900023Y-82221360D02*
X174857690Y-82306026D01*
X174857690Y-82306026D02*
X174815356Y-82348360D01*
X174815356Y-82348360D02*
X174730690Y-82390693D01*
X174730690Y-82390693D02*
X174561356Y-82433026D01*
X174561356Y-82433026D02*
X174349690Y-82433026D01*
X174349690Y-82433026D02*
X174180356Y-82390693D01*
X174180356Y-82390693D02*
X174095690Y-82348360D01*
X174095690Y-82348360D02*
X174053356Y-82306026D01*
X174053356Y-82306026D02*
X174011023Y-82221360D01*
X174011023Y-81374693D02*
X174011023Y-81290026D01*
X174011023Y-81290026D02*
X174053356Y-81205359D01*
X174053356Y-81205359D02*
X174095690Y-81163026D01*
X174095690Y-81163026D02*
X174180356Y-81120693D01*
X174180356Y-81120693D02*
X174349690Y-81078359D01*
X174349690Y-81078359D02*
X174561356Y-81078359D01*
X174561356Y-81078359D02*
X174730690Y-81120693D01*
X174730690Y-81120693D02*
X174815356Y-81163026D01*
X174815356Y-81163026D02*
X174857690Y-81205359D01*
X174857690Y-81205359D02*
X174900023Y-81290026D01*
X174900023Y-81290026D02*
X174900023Y-81374693D01*
X174900023Y-81374693D02*
X174857690Y-81459359D01*
X174857690Y-81459359D02*
X174815356Y-81501693D01*
X174815356Y-81501693D02*
X174730690Y-81544026D01*
X174730690Y-81544026D02*
X174561356Y-81586359D01*
X174561356Y-81586359D02*
X174349690Y-81586359D01*
X174349690Y-81586359D02*
X174180356Y-81544026D01*
X174180356Y-81544026D02*
X174095690Y-81501693D01*
X174095690Y-81501693D02*
X174053356Y-81459359D01*
X174053356Y-81459359D02*
X174011023Y-81374693D01*
X174011023Y-80528026D02*
X174011023Y-80443359D01*
X174011023Y-80443359D02*
X174053356Y-80358692D01*
X174053356Y-80358692D02*
X174095690Y-80316359D01*
X174095690Y-80316359D02*
X174180356Y-80274026D01*
X174180356Y-80274026D02*
X174349690Y-80231692D01*
X174349690Y-80231692D02*
X174561356Y-80231692D01*
X174561356Y-80231692D02*
X174730690Y-80274026D01*
X174730690Y-80274026D02*
X174815356Y-80316359D01*
X174815356Y-80316359D02*
X174857690Y-80358692D01*
X174857690Y-80358692D02*
X174900023Y-80443359D01*
X174900023Y-80443359D02*
X174900023Y-80528026D01*
X174900023Y-80528026D02*
X174857690Y-80612692D01*
X174857690Y-80612692D02*
X174815356Y-80655026D01*
X174815356Y-80655026D02*
X174730690Y-80697359D01*
X174730690Y-80697359D02*
X174561356Y-80739692D01*
X174561356Y-80739692D02*
X174349690Y-80739692D01*
X174349690Y-80739692D02*
X174180356Y-80697359D01*
X174180356Y-80697359D02*
X174095690Y-80655026D01*
X174095690Y-80655026D02*
X174053356Y-80612692D01*
X174053356Y-80612692D02*
X174011023Y-80528026D01*
X140218026Y-103653023D02*
X139794692Y-103653023D01*
X139794692Y-103653023D02*
X139752359Y-104076356D01*
X139752359Y-104076356D02*
X139794692Y-104034023D01*
X139794692Y-104034023D02*
X139879359Y-103991690D01*
X139879359Y-103991690D02*
X140091026Y-103991690D01*
X140091026Y-103991690D02*
X140175692Y-104034023D01*
X140175692Y-104034023D02*
X140218026Y-104076356D01*
X140218026Y-104076356D02*
X140260359Y-104161023D01*
X140260359Y-104161023D02*
X140260359Y-104372690D01*
X140260359Y-104372690D02*
X140218026Y-104457356D01*
X140218026Y-104457356D02*
X140175692Y-104499690D01*
X140175692Y-104499690D02*
X140091026Y-104542023D01*
X140091026Y-104542023D02*
X139879359Y-104542023D01*
X139879359Y-104542023D02*
X139794692Y-104499690D01*
X139794692Y-104499690D02*
X139752359Y-104457356D01*
X140810693Y-103653023D02*
X140895359Y-103653023D01*
X140895359Y-103653023D02*
X140980026Y-103695356D01*
X140980026Y-103695356D02*
X141022359Y-103737690D01*
X141022359Y-103737690D02*
X141064693Y-103822356D01*
X141064693Y-103822356D02*
X141107026Y-103991690D01*
X141107026Y-103991690D02*
X141107026Y-104203356D01*
X141107026Y-104203356D02*
X141064693Y-104372690D01*
X141064693Y-104372690D02*
X141022359Y-104457356D01*
X141022359Y-104457356D02*
X140980026Y-104499690D01*
X140980026Y-104499690D02*
X140895359Y-104542023D01*
X140895359Y-104542023D02*
X140810693Y-104542023D01*
X140810693Y-104542023D02*
X140726026Y-104499690D01*
X140726026Y-104499690D02*
X140683693Y-104457356D01*
X140683693Y-104457356D02*
X140641359Y-104372690D01*
X140641359Y-104372690D02*
X140599026Y-104203356D01*
X140599026Y-104203356D02*
X140599026Y-103991690D01*
X140599026Y-103991690D02*
X140641359Y-103822356D01*
X140641359Y-103822356D02*
X140683693Y-103737690D01*
X140683693Y-103737690D02*
X140726026Y-103695356D01*
X140726026Y-103695356D02*
X140810693Y-103653023D01*
X141657360Y-103653023D02*
X141742026Y-103653023D01*
X141742026Y-103653023D02*
X141826693Y-103695356D01*
X141826693Y-103695356D02*
X141869026Y-103737690D01*
X141869026Y-103737690D02*
X141911360Y-103822356D01*
X141911360Y-103822356D02*
X141953693Y-103991690D01*
X141953693Y-103991690D02*
X141953693Y-104203356D01*
X141953693Y-104203356D02*
X141911360Y-104372690D01*
X141911360Y-104372690D02*
X141869026Y-104457356D01*
X141869026Y-104457356D02*
X141826693Y-104499690D01*
X141826693Y-104499690D02*
X141742026Y-104542023D01*
X141742026Y-104542023D02*
X141657360Y-104542023D01*
X141657360Y-104542023D02*
X141572693Y-104499690D01*
X141572693Y-104499690D02*
X141530360Y-104457356D01*
X141530360Y-104457356D02*
X141488026Y-104372690D01*
X141488026Y-104372690D02*
X141445693Y-104203356D01*
X141445693Y-104203356D02*
X141445693Y-103991690D01*
X141445693Y-103991690D02*
X141488026Y-103822356D01*
X141488026Y-103822356D02*
X141530360Y-103737690D01*
X141530360Y-103737690D02*
X141572693Y-103695356D01*
X141572693Y-103695356D02*
X141657360Y-103653023D01*
X135191356Y-82856360D02*
X135784023Y-82856360D01*
X134852690Y-83068027D02*
X135487690Y-83279693D01*
X135487690Y-83279693D02*
X135487690Y-82729360D01*
X134895023Y-82221360D02*
X134895023Y-82136693D01*
X134895023Y-82136693D02*
X134937356Y-82052026D01*
X134937356Y-82052026D02*
X134979690Y-82009693D01*
X134979690Y-82009693D02*
X135064356Y-81967360D01*
X135064356Y-81967360D02*
X135233690Y-81925026D01*
X135233690Y-81925026D02*
X135445356Y-81925026D01*
X135445356Y-81925026D02*
X135614690Y-81967360D01*
X135614690Y-81967360D02*
X135699356Y-82009693D01*
X135699356Y-82009693D02*
X135741690Y-82052026D01*
X135741690Y-82052026D02*
X135784023Y-82136693D01*
X135784023Y-82136693D02*
X135784023Y-82221360D01*
X135784023Y-82221360D02*
X135741690Y-82306026D01*
X135741690Y-82306026D02*
X135699356Y-82348360D01*
X135699356Y-82348360D02*
X135614690Y-82390693D01*
X135614690Y-82390693D02*
X135445356Y-82433026D01*
X135445356Y-82433026D02*
X135233690Y-82433026D01*
X135233690Y-82433026D02*
X135064356Y-82390693D01*
X135064356Y-82390693D02*
X134979690Y-82348360D01*
X134979690Y-82348360D02*
X134937356Y-82306026D01*
X134937356Y-82306026D02*
X134895023Y-82221360D01*
X134895023Y-81374693D02*
X134895023Y-81290026D01*
X134895023Y-81290026D02*
X134937356Y-81205359D01*
X134937356Y-81205359D02*
X134979690Y-81163026D01*
X134979690Y-81163026D02*
X135064356Y-81120693D01*
X135064356Y-81120693D02*
X135233690Y-81078359D01*
X135233690Y-81078359D02*
X135445356Y-81078359D01*
X135445356Y-81078359D02*
X135614690Y-81120693D01*
X135614690Y-81120693D02*
X135699356Y-81163026D01*
X135699356Y-81163026D02*
X135741690Y-81205359D01*
X135741690Y-81205359D02*
X135784023Y-81290026D01*
X135784023Y-81290026D02*
X135784023Y-81374693D01*
X135784023Y-81374693D02*
X135741690Y-81459359D01*
X135741690Y-81459359D02*
X135699356Y-81501693D01*
X135699356Y-81501693D02*
X135614690Y-81544026D01*
X135614690Y-81544026D02*
X135445356Y-81586359D01*
X135445356Y-81586359D02*
X135233690Y-81586359D01*
X135233690Y-81586359D02*
X135064356Y-81544026D01*
X135064356Y-81544026D02*
X134979690Y-81501693D01*
X134979690Y-81501693D02*
X134937356Y-81459359D01*
X134937356Y-81459359D02*
X134895023Y-81374693D01*
X137435023Y-83322027D02*
X137435023Y-82771693D01*
X137435023Y-82771693D02*
X137773690Y-83068027D01*
X137773690Y-83068027D02*
X137773690Y-82941027D01*
X137773690Y-82941027D02*
X137816023Y-82856360D01*
X137816023Y-82856360D02*
X137858356Y-82814027D01*
X137858356Y-82814027D02*
X137943023Y-82771693D01*
X137943023Y-82771693D02*
X138154690Y-82771693D01*
X138154690Y-82771693D02*
X138239356Y-82814027D01*
X138239356Y-82814027D02*
X138281690Y-82856360D01*
X138281690Y-82856360D02*
X138324023Y-82941027D01*
X138324023Y-82941027D02*
X138324023Y-83195027D01*
X138324023Y-83195027D02*
X138281690Y-83279693D01*
X138281690Y-83279693D02*
X138239356Y-83322027D01*
X137435023Y-82221360D02*
X137435023Y-82136693D01*
X137435023Y-82136693D02*
X137477356Y-82052026D01*
X137477356Y-82052026D02*
X137519690Y-82009693D01*
X137519690Y-82009693D02*
X137604356Y-81967360D01*
X137604356Y-81967360D02*
X137773690Y-81925026D01*
X137773690Y-81925026D02*
X137985356Y-81925026D01*
X137985356Y-81925026D02*
X138154690Y-81967360D01*
X138154690Y-81967360D02*
X138239356Y-82009693D01*
X138239356Y-82009693D02*
X138281690Y-82052026D01*
X138281690Y-82052026D02*
X138324023Y-82136693D01*
X138324023Y-82136693D02*
X138324023Y-82221360D01*
X138324023Y-82221360D02*
X138281690Y-82306026D01*
X138281690Y-82306026D02*
X138239356Y-82348360D01*
X138239356Y-82348360D02*
X138154690Y-82390693D01*
X138154690Y-82390693D02*
X137985356Y-82433026D01*
X137985356Y-82433026D02*
X137773690Y-82433026D01*
X137773690Y-82433026D02*
X137604356Y-82390693D01*
X137604356Y-82390693D02*
X137519690Y-82348360D01*
X137519690Y-82348360D02*
X137477356Y-82306026D01*
X137477356Y-82306026D02*
X137435023Y-82221360D01*
X137435023Y-81374693D02*
X137435023Y-81290026D01*
X137435023Y-81290026D02*
X137477356Y-81205359D01*
X137477356Y-81205359D02*
X137519690Y-81163026D01*
X137519690Y-81163026D02*
X137604356Y-81120693D01*
X137604356Y-81120693D02*
X137773690Y-81078359D01*
X137773690Y-81078359D02*
X137985356Y-81078359D01*
X137985356Y-81078359D02*
X138154690Y-81120693D01*
X138154690Y-81120693D02*
X138239356Y-81163026D01*
X138239356Y-81163026D02*
X138281690Y-81205359D01*
X138281690Y-81205359D02*
X138324023Y-81290026D01*
X138324023Y-81290026D02*
X138324023Y-81374693D01*
X138324023Y-81374693D02*
X138281690Y-81459359D01*
X138281690Y-81459359D02*
X138239356Y-81501693D01*
X138239356Y-81501693D02*
X138154690Y-81544026D01*
X138154690Y-81544026D02*
X137985356Y-81586359D01*
X137985356Y-81586359D02*
X137773690Y-81586359D01*
X137773690Y-81586359D02*
X137604356Y-81544026D01*
X137604356Y-81544026D02*
X137519690Y-81501693D01*
X137519690Y-81501693D02*
X137477356Y-81459359D01*
X137477356Y-81459359D02*
X137435023Y-81374693D01*
X140059690Y-83279693D02*
X140017356Y-83237360D01*
X140017356Y-83237360D02*
X139975023Y-83152693D01*
X139975023Y-83152693D02*
X139975023Y-82941027D01*
X139975023Y-82941027D02*
X140017356Y-82856360D01*
X140017356Y-82856360D02*
X140059690Y-82814027D01*
X140059690Y-82814027D02*
X140144356Y-82771693D01*
X140144356Y-82771693D02*
X140229023Y-82771693D01*
X140229023Y-82771693D02*
X140356023Y-82814027D01*
X140356023Y-82814027D02*
X140864023Y-83322027D01*
X140864023Y-83322027D02*
X140864023Y-82771693D01*
X139975023Y-82221360D02*
X139975023Y-82136693D01*
X139975023Y-82136693D02*
X140017356Y-82052026D01*
X140017356Y-82052026D02*
X140059690Y-82009693D01*
X140059690Y-82009693D02*
X140144356Y-81967360D01*
X140144356Y-81967360D02*
X140313690Y-81925026D01*
X140313690Y-81925026D02*
X140525356Y-81925026D01*
X140525356Y-81925026D02*
X140694690Y-81967360D01*
X140694690Y-81967360D02*
X140779356Y-82009693D01*
X140779356Y-82009693D02*
X140821690Y-82052026D01*
X140821690Y-82052026D02*
X140864023Y-82136693D01*
X140864023Y-82136693D02*
X140864023Y-82221360D01*
X140864023Y-82221360D02*
X140821690Y-82306026D01*
X140821690Y-82306026D02*
X140779356Y-82348360D01*
X140779356Y-82348360D02*
X140694690Y-82390693D01*
X140694690Y-82390693D02*
X140525356Y-82433026D01*
X140525356Y-82433026D02*
X140313690Y-82433026D01*
X140313690Y-82433026D02*
X140144356Y-82390693D01*
X140144356Y-82390693D02*
X140059690Y-82348360D01*
X140059690Y-82348360D02*
X140017356Y-82306026D01*
X140017356Y-82306026D02*
X139975023Y-82221360D01*
X139975023Y-81374693D02*
X139975023Y-81290026D01*
X139975023Y-81290026D02*
X140017356Y-81205359D01*
X140017356Y-81205359D02*
X140059690Y-81163026D01*
X140059690Y-81163026D02*
X140144356Y-81120693D01*
X140144356Y-81120693D02*
X140313690Y-81078359D01*
X140313690Y-81078359D02*
X140525356Y-81078359D01*
X140525356Y-81078359D02*
X140694690Y-81120693D01*
X140694690Y-81120693D02*
X140779356Y-81163026D01*
X140779356Y-81163026D02*
X140821690Y-81205359D01*
X140821690Y-81205359D02*
X140864023Y-81290026D01*
X140864023Y-81290026D02*
X140864023Y-81374693D01*
X140864023Y-81374693D02*
X140821690Y-81459359D01*
X140821690Y-81459359D02*
X140779356Y-81501693D01*
X140779356Y-81501693D02*
X140694690Y-81544026D01*
X140694690Y-81544026D02*
X140525356Y-81586359D01*
X140525356Y-81586359D02*
X140313690Y-81586359D01*
X140313690Y-81586359D02*
X140144356Y-81544026D01*
X140144356Y-81544026D02*
X140059690Y-81501693D01*
X140059690Y-81501693D02*
X140017356Y-81459359D01*
X140017356Y-81459359D02*
X139975023Y-81374693D01*
X163851023Y-82856360D02*
X163851023Y-83025693D01*
X163851023Y-83025693D02*
X163893356Y-83110360D01*
X163893356Y-83110360D02*
X163935690Y-83152693D01*
X163935690Y-83152693D02*
X164062690Y-83237360D01*
X164062690Y-83237360D02*
X164232023Y-83279693D01*
X164232023Y-83279693D02*
X164570690Y-83279693D01*
X164570690Y-83279693D02*
X164655356Y-83237360D01*
X164655356Y-83237360D02*
X164697690Y-83195027D01*
X164697690Y-83195027D02*
X164740023Y-83110360D01*
X164740023Y-83110360D02*
X164740023Y-82941027D01*
X164740023Y-82941027D02*
X164697690Y-82856360D01*
X164697690Y-82856360D02*
X164655356Y-82814027D01*
X164655356Y-82814027D02*
X164570690Y-82771693D01*
X164570690Y-82771693D02*
X164359023Y-82771693D01*
X164359023Y-82771693D02*
X164274356Y-82814027D01*
X164274356Y-82814027D02*
X164232023Y-82856360D01*
X164232023Y-82856360D02*
X164189690Y-82941027D01*
X164189690Y-82941027D02*
X164189690Y-83110360D01*
X164189690Y-83110360D02*
X164232023Y-83195027D01*
X164232023Y-83195027D02*
X164274356Y-83237360D01*
X164274356Y-83237360D02*
X164359023Y-83279693D01*
X163851023Y-82221360D02*
X163851023Y-82136693D01*
X163851023Y-82136693D02*
X163893356Y-82052026D01*
X163893356Y-82052026D02*
X163935690Y-82009693D01*
X163935690Y-82009693D02*
X164020356Y-81967360D01*
X164020356Y-81967360D02*
X164189690Y-81925026D01*
X164189690Y-81925026D02*
X164401356Y-81925026D01*
X164401356Y-81925026D02*
X164570690Y-81967360D01*
X164570690Y-81967360D02*
X164655356Y-82009693D01*
X164655356Y-82009693D02*
X164697690Y-82052026D01*
X164697690Y-82052026D02*
X164740023Y-82136693D01*
X164740023Y-82136693D02*
X164740023Y-82221360D01*
X164740023Y-82221360D02*
X164697690Y-82306026D01*
X164697690Y-82306026D02*
X164655356Y-82348360D01*
X164655356Y-82348360D02*
X164570690Y-82390693D01*
X164570690Y-82390693D02*
X164401356Y-82433026D01*
X164401356Y-82433026D02*
X164189690Y-82433026D01*
X164189690Y-82433026D02*
X164020356Y-82390693D01*
X164020356Y-82390693D02*
X163935690Y-82348360D01*
X163935690Y-82348360D02*
X163893356Y-82306026D01*
X163893356Y-82306026D02*
X163851023Y-82221360D01*
X163851023Y-81374693D02*
X163851023Y-81290026D01*
X163851023Y-81290026D02*
X163893356Y-81205359D01*
X163893356Y-81205359D02*
X163935690Y-81163026D01*
X163935690Y-81163026D02*
X164020356Y-81120693D01*
X164020356Y-81120693D02*
X164189690Y-81078359D01*
X164189690Y-81078359D02*
X164401356Y-81078359D01*
X164401356Y-81078359D02*
X164570690Y-81120693D01*
X164570690Y-81120693D02*
X164655356Y-81163026D01*
X164655356Y-81163026D02*
X164697690Y-81205359D01*
X164697690Y-81205359D02*
X164740023Y-81290026D01*
X164740023Y-81290026D02*
X164740023Y-81374693D01*
X164740023Y-81374693D02*
X164697690Y-81459359D01*
X164697690Y-81459359D02*
X164655356Y-81501693D01*
X164655356Y-81501693D02*
X164570690Y-81544026D01*
X164570690Y-81544026D02*
X164401356Y-81586359D01*
X164401356Y-81586359D02*
X164189690Y-81586359D01*
X164189690Y-81586359D02*
X164020356Y-81544026D01*
X164020356Y-81544026D02*
X163935690Y-81501693D01*
X163935690Y-81501693D02*
X163893356Y-81459359D01*
X163893356Y-81459359D02*
X163851023Y-81374693D01*
X172360023Y-83195027D02*
X172360023Y-83025693D01*
X172360023Y-83025693D02*
X172317690Y-82941027D01*
X172317690Y-82941027D02*
X172275356Y-82898693D01*
X172275356Y-82898693D02*
X172148356Y-82814027D01*
X172148356Y-82814027D02*
X171979023Y-82771693D01*
X171979023Y-82771693D02*
X171640356Y-82771693D01*
X171640356Y-82771693D02*
X171555690Y-82814027D01*
X171555690Y-82814027D02*
X171513356Y-82856360D01*
X171513356Y-82856360D02*
X171471023Y-82941027D01*
X171471023Y-82941027D02*
X171471023Y-83110360D01*
X171471023Y-83110360D02*
X171513356Y-83195027D01*
X171513356Y-83195027D02*
X171555690Y-83237360D01*
X171555690Y-83237360D02*
X171640356Y-83279693D01*
X171640356Y-83279693D02*
X171852023Y-83279693D01*
X171852023Y-83279693D02*
X171936690Y-83237360D01*
X171936690Y-83237360D02*
X171979023Y-83195027D01*
X171979023Y-83195027D02*
X172021356Y-83110360D01*
X172021356Y-83110360D02*
X172021356Y-82941027D01*
X172021356Y-82941027D02*
X171979023Y-82856360D01*
X171979023Y-82856360D02*
X171936690Y-82814027D01*
X171936690Y-82814027D02*
X171852023Y-82771693D01*
X171471023Y-82221360D02*
X171471023Y-82136693D01*
X171471023Y-82136693D02*
X171513356Y-82052026D01*
X171513356Y-82052026D02*
X171555690Y-82009693D01*
X171555690Y-82009693D02*
X171640356Y-81967360D01*
X171640356Y-81967360D02*
X171809690Y-81925026D01*
X171809690Y-81925026D02*
X172021356Y-81925026D01*
X172021356Y-81925026D02*
X172190690Y-81967360D01*
X172190690Y-81967360D02*
X172275356Y-82009693D01*
X172275356Y-82009693D02*
X172317690Y-82052026D01*
X172317690Y-82052026D02*
X172360023Y-82136693D01*
X172360023Y-82136693D02*
X172360023Y-82221360D01*
X172360023Y-82221360D02*
X172317690Y-82306026D01*
X172317690Y-82306026D02*
X172275356Y-82348360D01*
X172275356Y-82348360D02*
X172190690Y-82390693D01*
X172190690Y-82390693D02*
X172021356Y-82433026D01*
X172021356Y-82433026D02*
X171809690Y-82433026D01*
X171809690Y-82433026D02*
X171640356Y-82390693D01*
X171640356Y-82390693D02*
X171555690Y-82348360D01*
X171555690Y-82348360D02*
X171513356Y-82306026D01*
X171513356Y-82306026D02*
X171471023Y-82221360D01*
X171471023Y-81374693D02*
X171471023Y-81290026D01*
X171471023Y-81290026D02*
X171513356Y-81205359D01*
X171513356Y-81205359D02*
X171555690Y-81163026D01*
X171555690Y-81163026D02*
X171640356Y-81120693D01*
X171640356Y-81120693D02*
X171809690Y-81078359D01*
X171809690Y-81078359D02*
X172021356Y-81078359D01*
X172021356Y-81078359D02*
X172190690Y-81120693D01*
X172190690Y-81120693D02*
X172275356Y-81163026D01*
X172275356Y-81163026D02*
X172317690Y-81205359D01*
X172317690Y-81205359D02*
X172360023Y-81290026D01*
X172360023Y-81290026D02*
X172360023Y-81374693D01*
X172360023Y-81374693D02*
X172317690Y-81459359D01*
X172317690Y-81459359D02*
X172275356Y-81501693D01*
X172275356Y-81501693D02*
X172190690Y-81544026D01*
X172190690Y-81544026D02*
X172021356Y-81586359D01*
X172021356Y-81586359D02*
X171809690Y-81586359D01*
X171809690Y-81586359D02*
X171640356Y-81544026D01*
X171640356Y-81544026D02*
X171555690Y-81501693D01*
X171555690Y-81501693D02*
X171513356Y-81459359D01*
X171513356Y-81459359D02*
X171471023Y-81374693D01*
X143404023Y-82771693D02*
X143404023Y-83279693D01*
X143404023Y-83025693D02*
X142515023Y-83025693D01*
X142515023Y-83025693D02*
X142642023Y-83110360D01*
X142642023Y-83110360D02*
X142726690Y-83195027D01*
X142726690Y-83195027D02*
X142769023Y-83279693D01*
X142515023Y-82221360D02*
X142515023Y-82136693D01*
X142515023Y-82136693D02*
X142557356Y-82052026D01*
X142557356Y-82052026D02*
X142599690Y-82009693D01*
X142599690Y-82009693D02*
X142684356Y-81967360D01*
X142684356Y-81967360D02*
X142853690Y-81925026D01*
X142853690Y-81925026D02*
X143065356Y-81925026D01*
X143065356Y-81925026D02*
X143234690Y-81967360D01*
X143234690Y-81967360D02*
X143319356Y-82009693D01*
X143319356Y-82009693D02*
X143361690Y-82052026D01*
X143361690Y-82052026D02*
X143404023Y-82136693D01*
X143404023Y-82136693D02*
X143404023Y-82221360D01*
X143404023Y-82221360D02*
X143361690Y-82306026D01*
X143361690Y-82306026D02*
X143319356Y-82348360D01*
X143319356Y-82348360D02*
X143234690Y-82390693D01*
X143234690Y-82390693D02*
X143065356Y-82433026D01*
X143065356Y-82433026D02*
X142853690Y-82433026D01*
X142853690Y-82433026D02*
X142684356Y-82390693D01*
X142684356Y-82390693D02*
X142599690Y-82348360D01*
X142599690Y-82348360D02*
X142557356Y-82306026D01*
X142557356Y-82306026D02*
X142515023Y-82221360D01*
X142515023Y-81374693D02*
X142515023Y-81290026D01*
X142515023Y-81290026D02*
X142557356Y-81205359D01*
X142557356Y-81205359D02*
X142599690Y-81163026D01*
X142599690Y-81163026D02*
X142684356Y-81120693D01*
X142684356Y-81120693D02*
X142853690Y-81078359D01*
X142853690Y-81078359D02*
X143065356Y-81078359D01*
X143065356Y-81078359D02*
X143234690Y-81120693D01*
X143234690Y-81120693D02*
X143319356Y-81163026D01*
X143319356Y-81163026D02*
X143361690Y-81205359D01*
X143361690Y-81205359D02*
X143404023Y-81290026D01*
X143404023Y-81290026D02*
X143404023Y-81374693D01*
X143404023Y-81374693D02*
X143361690Y-81459359D01*
X143361690Y-81459359D02*
X143319356Y-81501693D01*
X143319356Y-81501693D02*
X143234690Y-81544026D01*
X143234690Y-81544026D02*
X143065356Y-81586359D01*
X143065356Y-81586359D02*
X142853690Y-81586359D01*
X142853690Y-81586359D02*
X142684356Y-81544026D01*
X142684356Y-81544026D02*
X142599690Y-81501693D01*
X142599690Y-81501693D02*
X142557356Y-81459359D01*
X142557356Y-81459359D02*
X142515023Y-81374693D01*
X169312023Y-83110360D02*
X169269690Y-83195027D01*
X169269690Y-83195027D02*
X169227356Y-83237360D01*
X169227356Y-83237360D02*
X169142690Y-83279693D01*
X169142690Y-83279693D02*
X169100356Y-83279693D01*
X169100356Y-83279693D02*
X169015690Y-83237360D01*
X169015690Y-83237360D02*
X168973356Y-83195027D01*
X168973356Y-83195027D02*
X168931023Y-83110360D01*
X168931023Y-83110360D02*
X168931023Y-82941027D01*
X168931023Y-82941027D02*
X168973356Y-82856360D01*
X168973356Y-82856360D02*
X169015690Y-82814027D01*
X169015690Y-82814027D02*
X169100356Y-82771693D01*
X169100356Y-82771693D02*
X169142690Y-82771693D01*
X169142690Y-82771693D02*
X169227356Y-82814027D01*
X169227356Y-82814027D02*
X169269690Y-82856360D01*
X169269690Y-82856360D02*
X169312023Y-82941027D01*
X169312023Y-82941027D02*
X169312023Y-83110360D01*
X169312023Y-83110360D02*
X169354356Y-83195027D01*
X169354356Y-83195027D02*
X169396690Y-83237360D01*
X169396690Y-83237360D02*
X169481356Y-83279693D01*
X169481356Y-83279693D02*
X169650690Y-83279693D01*
X169650690Y-83279693D02*
X169735356Y-83237360D01*
X169735356Y-83237360D02*
X169777690Y-83195027D01*
X169777690Y-83195027D02*
X169820023Y-83110360D01*
X169820023Y-83110360D02*
X169820023Y-82941027D01*
X169820023Y-82941027D02*
X169777690Y-82856360D01*
X169777690Y-82856360D02*
X169735356Y-82814027D01*
X169735356Y-82814027D02*
X169650690Y-82771693D01*
X169650690Y-82771693D02*
X169481356Y-82771693D01*
X169481356Y-82771693D02*
X169396690Y-82814027D01*
X169396690Y-82814027D02*
X169354356Y-82856360D01*
X169354356Y-82856360D02*
X169312023Y-82941027D01*
X168931023Y-82221360D02*
X168931023Y-82136693D01*
X168931023Y-82136693D02*
X168973356Y-82052026D01*
X168973356Y-82052026D02*
X169015690Y-82009693D01*
X169015690Y-82009693D02*
X169100356Y-81967360D01*
X169100356Y-81967360D02*
X169269690Y-81925026D01*
X169269690Y-81925026D02*
X169481356Y-81925026D01*
X169481356Y-81925026D02*
X169650690Y-81967360D01*
X169650690Y-81967360D02*
X169735356Y-82009693D01*
X169735356Y-82009693D02*
X169777690Y-82052026D01*
X169777690Y-82052026D02*
X169820023Y-82136693D01*
X169820023Y-82136693D02*
X169820023Y-82221360D01*
X169820023Y-82221360D02*
X169777690Y-82306026D01*
X169777690Y-82306026D02*
X169735356Y-82348360D01*
X169735356Y-82348360D02*
X169650690Y-82390693D01*
X169650690Y-82390693D02*
X169481356Y-82433026D01*
X169481356Y-82433026D02*
X169269690Y-82433026D01*
X169269690Y-82433026D02*
X169100356Y-82390693D01*
X169100356Y-82390693D02*
X169015690Y-82348360D01*
X169015690Y-82348360D02*
X168973356Y-82306026D01*
X168973356Y-82306026D02*
X168931023Y-82221360D01*
X168931023Y-81374693D02*
X168931023Y-81290026D01*
X168931023Y-81290026D02*
X168973356Y-81205359D01*
X168973356Y-81205359D02*
X169015690Y-81163026D01*
X169015690Y-81163026D02*
X169100356Y-81120693D01*
X169100356Y-81120693D02*
X169269690Y-81078359D01*
X169269690Y-81078359D02*
X169481356Y-81078359D01*
X169481356Y-81078359D02*
X169650690Y-81120693D01*
X169650690Y-81120693D02*
X169735356Y-81163026D01*
X169735356Y-81163026D02*
X169777690Y-81205359D01*
X169777690Y-81205359D02*
X169820023Y-81290026D01*
X169820023Y-81290026D02*
X169820023Y-81374693D01*
X169820023Y-81374693D02*
X169777690Y-81459359D01*
X169777690Y-81459359D02*
X169735356Y-81501693D01*
X169735356Y-81501693D02*
X169650690Y-81544026D01*
X169650690Y-81544026D02*
X169481356Y-81586359D01*
X169481356Y-81586359D02*
X169269690Y-81586359D01*
X169269690Y-81586359D02*
X169100356Y-81544026D01*
X169100356Y-81544026D02*
X169015690Y-81501693D01*
X169015690Y-81501693D02*
X168973356Y-81459359D01*
X168973356Y-81459359D02*
X168931023Y-81374693D01*
X132355023Y-82814027D02*
X132355023Y-83237360D01*
X132355023Y-83237360D02*
X132778356Y-83279693D01*
X132778356Y-83279693D02*
X132736023Y-83237360D01*
X132736023Y-83237360D02*
X132693690Y-83152693D01*
X132693690Y-83152693D02*
X132693690Y-82941027D01*
X132693690Y-82941027D02*
X132736023Y-82856360D01*
X132736023Y-82856360D02*
X132778356Y-82814027D01*
X132778356Y-82814027D02*
X132863023Y-82771693D01*
X132863023Y-82771693D02*
X133074690Y-82771693D01*
X133074690Y-82771693D02*
X133159356Y-82814027D01*
X133159356Y-82814027D02*
X133201690Y-82856360D01*
X133201690Y-82856360D02*
X133244023Y-82941027D01*
X133244023Y-82941027D02*
X133244023Y-83152693D01*
X133244023Y-83152693D02*
X133201690Y-83237360D01*
X133201690Y-83237360D02*
X133159356Y-83279693D01*
X132355023Y-82221360D02*
X132355023Y-82136693D01*
X132355023Y-82136693D02*
X132397356Y-82052026D01*
X132397356Y-82052026D02*
X132439690Y-82009693D01*
X132439690Y-82009693D02*
X132524356Y-81967360D01*
X132524356Y-81967360D02*
X132693690Y-81925026D01*
X132693690Y-81925026D02*
X132905356Y-81925026D01*
X132905356Y-81925026D02*
X133074690Y-81967360D01*
X133074690Y-81967360D02*
X133159356Y-82009693D01*
X133159356Y-82009693D02*
X133201690Y-82052026D01*
X133201690Y-82052026D02*
X133244023Y-82136693D01*
X133244023Y-82136693D02*
X133244023Y-82221360D01*
X133244023Y-82221360D02*
X133201690Y-82306026D01*
X133201690Y-82306026D02*
X133159356Y-82348360D01*
X133159356Y-82348360D02*
X133074690Y-82390693D01*
X133074690Y-82390693D02*
X132905356Y-82433026D01*
X132905356Y-82433026D02*
X132693690Y-82433026D01*
X132693690Y-82433026D02*
X132524356Y-82390693D01*
X132524356Y-82390693D02*
X132439690Y-82348360D01*
X132439690Y-82348360D02*
X132397356Y-82306026D01*
X132397356Y-82306026D02*
X132355023Y-82221360D01*
X132355023Y-81374693D02*
X132355023Y-81290026D01*
X132355023Y-81290026D02*
X132397356Y-81205359D01*
X132397356Y-81205359D02*
X132439690Y-81163026D01*
X132439690Y-81163026D02*
X132524356Y-81120693D01*
X132524356Y-81120693D02*
X132693690Y-81078359D01*
X132693690Y-81078359D02*
X132905356Y-81078359D01*
X132905356Y-81078359D02*
X133074690Y-81120693D01*
X133074690Y-81120693D02*
X133159356Y-81163026D01*
X133159356Y-81163026D02*
X133201690Y-81205359D01*
X133201690Y-81205359D02*
X133244023Y-81290026D01*
X133244023Y-81290026D02*
X133244023Y-81374693D01*
X133244023Y-81374693D02*
X133201690Y-81459359D01*
X133201690Y-81459359D02*
X133159356Y-81501693D01*
X133159356Y-81501693D02*
X133074690Y-81544026D01*
X133074690Y-81544026D02*
X132905356Y-81586359D01*
X132905356Y-81586359D02*
X132693690Y-81586359D01*
X132693690Y-81586359D02*
X132524356Y-81544026D01*
X132524356Y-81544026D02*
X132439690Y-81501693D01*
X132439690Y-81501693D02*
X132397356Y-81459359D01*
X132397356Y-81459359D02*
X132355023Y-81374693D01*
X152040023Y-82771693D02*
X152040023Y-83279693D01*
X152040023Y-83025693D02*
X151151023Y-83025693D01*
X151151023Y-83025693D02*
X151278023Y-83110360D01*
X151278023Y-83110360D02*
X151362690Y-83195027D01*
X151362690Y-83195027D02*
X151405023Y-83279693D01*
X151151023Y-82221360D02*
X151151023Y-82136693D01*
X151151023Y-82136693D02*
X151193356Y-82052026D01*
X151193356Y-82052026D02*
X151235690Y-82009693D01*
X151235690Y-82009693D02*
X151320356Y-81967360D01*
X151320356Y-81967360D02*
X151489690Y-81925026D01*
X151489690Y-81925026D02*
X151701356Y-81925026D01*
X151701356Y-81925026D02*
X151870690Y-81967360D01*
X151870690Y-81967360D02*
X151955356Y-82009693D01*
X151955356Y-82009693D02*
X151997690Y-82052026D01*
X151997690Y-82052026D02*
X152040023Y-82136693D01*
X152040023Y-82136693D02*
X152040023Y-82221360D01*
X152040023Y-82221360D02*
X151997690Y-82306026D01*
X151997690Y-82306026D02*
X151955356Y-82348360D01*
X151955356Y-82348360D02*
X151870690Y-82390693D01*
X151870690Y-82390693D02*
X151701356Y-82433026D01*
X151701356Y-82433026D02*
X151489690Y-82433026D01*
X151489690Y-82433026D02*
X151320356Y-82390693D01*
X151320356Y-82390693D02*
X151235690Y-82348360D01*
X151235690Y-82348360D02*
X151193356Y-82306026D01*
X151193356Y-82306026D02*
X151151023Y-82221360D01*
X151151023Y-81374693D02*
X151151023Y-81290026D01*
X151151023Y-81290026D02*
X151193356Y-81205359D01*
X151193356Y-81205359D02*
X151235690Y-81163026D01*
X151235690Y-81163026D02*
X151320356Y-81120693D01*
X151320356Y-81120693D02*
X151489690Y-81078359D01*
X151489690Y-81078359D02*
X151701356Y-81078359D01*
X151701356Y-81078359D02*
X151870690Y-81120693D01*
X151870690Y-81120693D02*
X151955356Y-81163026D01*
X151955356Y-81163026D02*
X151997690Y-81205359D01*
X151997690Y-81205359D02*
X152040023Y-81290026D01*
X152040023Y-81290026D02*
X152040023Y-81374693D01*
X152040023Y-81374693D02*
X151997690Y-81459359D01*
X151997690Y-81459359D02*
X151955356Y-81501693D01*
X151955356Y-81501693D02*
X151870690Y-81544026D01*
X151870690Y-81544026D02*
X151701356Y-81586359D01*
X151701356Y-81586359D02*
X151489690Y-81586359D01*
X151489690Y-81586359D02*
X151320356Y-81544026D01*
X151320356Y-81544026D02*
X151235690Y-81501693D01*
X151235690Y-81501693D02*
X151193356Y-81459359D01*
X151193356Y-81459359D02*
X151151023Y-81374693D01*
X129815023Y-82856360D02*
X129815023Y-83025693D01*
X129815023Y-83025693D02*
X129857356Y-83110360D01*
X129857356Y-83110360D02*
X129899690Y-83152693D01*
X129899690Y-83152693D02*
X130026690Y-83237360D01*
X130026690Y-83237360D02*
X130196023Y-83279693D01*
X130196023Y-83279693D02*
X130534690Y-83279693D01*
X130534690Y-83279693D02*
X130619356Y-83237360D01*
X130619356Y-83237360D02*
X130661690Y-83195027D01*
X130661690Y-83195027D02*
X130704023Y-83110360D01*
X130704023Y-83110360D02*
X130704023Y-82941027D01*
X130704023Y-82941027D02*
X130661690Y-82856360D01*
X130661690Y-82856360D02*
X130619356Y-82814027D01*
X130619356Y-82814027D02*
X130534690Y-82771693D01*
X130534690Y-82771693D02*
X130323023Y-82771693D01*
X130323023Y-82771693D02*
X130238356Y-82814027D01*
X130238356Y-82814027D02*
X130196023Y-82856360D01*
X130196023Y-82856360D02*
X130153690Y-82941027D01*
X130153690Y-82941027D02*
X130153690Y-83110360D01*
X130153690Y-83110360D02*
X130196023Y-83195027D01*
X130196023Y-83195027D02*
X130238356Y-83237360D01*
X130238356Y-83237360D02*
X130323023Y-83279693D01*
X129815023Y-82221360D02*
X129815023Y-82136693D01*
X129815023Y-82136693D02*
X129857356Y-82052026D01*
X129857356Y-82052026D02*
X129899690Y-82009693D01*
X129899690Y-82009693D02*
X129984356Y-81967360D01*
X129984356Y-81967360D02*
X130153690Y-81925026D01*
X130153690Y-81925026D02*
X130365356Y-81925026D01*
X130365356Y-81925026D02*
X130534690Y-81967360D01*
X130534690Y-81967360D02*
X130619356Y-82009693D01*
X130619356Y-82009693D02*
X130661690Y-82052026D01*
X130661690Y-82052026D02*
X130704023Y-82136693D01*
X130704023Y-82136693D02*
X130704023Y-82221360D01*
X130704023Y-82221360D02*
X130661690Y-82306026D01*
X130661690Y-82306026D02*
X130619356Y-82348360D01*
X130619356Y-82348360D02*
X130534690Y-82390693D01*
X130534690Y-82390693D02*
X130365356Y-82433026D01*
X130365356Y-82433026D02*
X130153690Y-82433026D01*
X130153690Y-82433026D02*
X129984356Y-82390693D01*
X129984356Y-82390693D02*
X129899690Y-82348360D01*
X129899690Y-82348360D02*
X129857356Y-82306026D01*
X129857356Y-82306026D02*
X129815023Y-82221360D01*
X129815023Y-81374693D02*
X129815023Y-81290026D01*
X129815023Y-81290026D02*
X129857356Y-81205359D01*
X129857356Y-81205359D02*
X129899690Y-81163026D01*
X129899690Y-81163026D02*
X129984356Y-81120693D01*
X129984356Y-81120693D02*
X130153690Y-81078359D01*
X130153690Y-81078359D02*
X130365356Y-81078359D01*
X130365356Y-81078359D02*
X130534690Y-81120693D01*
X130534690Y-81120693D02*
X130619356Y-81163026D01*
X130619356Y-81163026D02*
X130661690Y-81205359D01*
X130661690Y-81205359D02*
X130704023Y-81290026D01*
X130704023Y-81290026D02*
X130704023Y-81374693D01*
X130704023Y-81374693D02*
X130661690Y-81459359D01*
X130661690Y-81459359D02*
X130619356Y-81501693D01*
X130619356Y-81501693D02*
X130534690Y-81544026D01*
X130534690Y-81544026D02*
X130365356Y-81586359D01*
X130365356Y-81586359D02*
X130153690Y-81586359D01*
X130153690Y-81586359D02*
X129984356Y-81544026D01*
X129984356Y-81544026D02*
X129899690Y-81501693D01*
X129899690Y-81501693D02*
X129857356Y-81459359D01*
X129857356Y-81459359D02*
X129815023Y-81374693D01*
X125116023Y-83110360D02*
X125073690Y-83195027D01*
X125073690Y-83195027D02*
X125031356Y-83237360D01*
X125031356Y-83237360D02*
X124946690Y-83279693D01*
X124946690Y-83279693D02*
X124904356Y-83279693D01*
X124904356Y-83279693D02*
X124819690Y-83237360D01*
X124819690Y-83237360D02*
X124777356Y-83195027D01*
X124777356Y-83195027D02*
X124735023Y-83110360D01*
X124735023Y-83110360D02*
X124735023Y-82941027D01*
X124735023Y-82941027D02*
X124777356Y-82856360D01*
X124777356Y-82856360D02*
X124819690Y-82814027D01*
X124819690Y-82814027D02*
X124904356Y-82771693D01*
X124904356Y-82771693D02*
X124946690Y-82771693D01*
X124946690Y-82771693D02*
X125031356Y-82814027D01*
X125031356Y-82814027D02*
X125073690Y-82856360D01*
X125073690Y-82856360D02*
X125116023Y-82941027D01*
X125116023Y-82941027D02*
X125116023Y-83110360D01*
X125116023Y-83110360D02*
X125158356Y-83195027D01*
X125158356Y-83195027D02*
X125200690Y-83237360D01*
X125200690Y-83237360D02*
X125285356Y-83279693D01*
X125285356Y-83279693D02*
X125454690Y-83279693D01*
X125454690Y-83279693D02*
X125539356Y-83237360D01*
X125539356Y-83237360D02*
X125581690Y-83195027D01*
X125581690Y-83195027D02*
X125624023Y-83110360D01*
X125624023Y-83110360D02*
X125624023Y-82941027D01*
X125624023Y-82941027D02*
X125581690Y-82856360D01*
X125581690Y-82856360D02*
X125539356Y-82814027D01*
X125539356Y-82814027D02*
X125454690Y-82771693D01*
X125454690Y-82771693D02*
X125285356Y-82771693D01*
X125285356Y-82771693D02*
X125200690Y-82814027D01*
X125200690Y-82814027D02*
X125158356Y-82856360D01*
X125158356Y-82856360D02*
X125116023Y-82941027D01*
X124735023Y-82221360D02*
X124735023Y-82136693D01*
X124735023Y-82136693D02*
X124777356Y-82052026D01*
X124777356Y-82052026D02*
X124819690Y-82009693D01*
X124819690Y-82009693D02*
X124904356Y-81967360D01*
X124904356Y-81967360D02*
X125073690Y-81925026D01*
X125073690Y-81925026D02*
X125285356Y-81925026D01*
X125285356Y-81925026D02*
X125454690Y-81967360D01*
X125454690Y-81967360D02*
X125539356Y-82009693D01*
X125539356Y-82009693D02*
X125581690Y-82052026D01*
X125581690Y-82052026D02*
X125624023Y-82136693D01*
X125624023Y-82136693D02*
X125624023Y-82221360D01*
X125624023Y-82221360D02*
X125581690Y-82306026D01*
X125581690Y-82306026D02*
X125539356Y-82348360D01*
X125539356Y-82348360D02*
X125454690Y-82390693D01*
X125454690Y-82390693D02*
X125285356Y-82433026D01*
X125285356Y-82433026D02*
X125073690Y-82433026D01*
X125073690Y-82433026D02*
X124904356Y-82390693D01*
X124904356Y-82390693D02*
X124819690Y-82348360D01*
X124819690Y-82348360D02*
X124777356Y-82306026D01*
X124777356Y-82306026D02*
X124735023Y-82221360D01*
X124735023Y-81374693D02*
X124735023Y-81290026D01*
X124735023Y-81290026D02*
X124777356Y-81205359D01*
X124777356Y-81205359D02*
X124819690Y-81163026D01*
X124819690Y-81163026D02*
X124904356Y-81120693D01*
X124904356Y-81120693D02*
X125073690Y-81078359D01*
X125073690Y-81078359D02*
X125285356Y-81078359D01*
X125285356Y-81078359D02*
X125454690Y-81120693D01*
X125454690Y-81120693D02*
X125539356Y-81163026D01*
X125539356Y-81163026D02*
X125581690Y-81205359D01*
X125581690Y-81205359D02*
X125624023Y-81290026D01*
X125624023Y-81290026D02*
X125624023Y-81374693D01*
X125624023Y-81374693D02*
X125581690Y-81459359D01*
X125581690Y-81459359D02*
X125539356Y-81501693D01*
X125539356Y-81501693D02*
X125454690Y-81544026D01*
X125454690Y-81544026D02*
X125285356Y-81586359D01*
X125285356Y-81586359D02*
X125073690Y-81586359D01*
X125073690Y-81586359D02*
X124904356Y-81544026D01*
X124904356Y-81544026D02*
X124819690Y-81501693D01*
X124819690Y-81501693D02*
X124777356Y-81459359D01*
X124777356Y-81459359D02*
X124735023Y-81374693D01*
X139710026Y-108733023D02*
X140260359Y-108733023D01*
X140260359Y-108733023D02*
X139964026Y-109071690D01*
X139964026Y-109071690D02*
X140091026Y-109071690D01*
X140091026Y-109071690D02*
X140175692Y-109114023D01*
X140175692Y-109114023D02*
X140218026Y-109156356D01*
X140218026Y-109156356D02*
X140260359Y-109241023D01*
X140260359Y-109241023D02*
X140260359Y-109452690D01*
X140260359Y-109452690D02*
X140218026Y-109537356D01*
X140218026Y-109537356D02*
X140175692Y-109579690D01*
X140175692Y-109579690D02*
X140091026Y-109622023D01*
X140091026Y-109622023D02*
X139837026Y-109622023D01*
X139837026Y-109622023D02*
X139752359Y-109579690D01*
X139752359Y-109579690D02*
X139710026Y-109537356D01*
X140810693Y-108733023D02*
X140895359Y-108733023D01*
X140895359Y-108733023D02*
X140980026Y-108775356D01*
X140980026Y-108775356D02*
X141022359Y-108817690D01*
X141022359Y-108817690D02*
X141064693Y-108902356D01*
X141064693Y-108902356D02*
X141107026Y-109071690D01*
X141107026Y-109071690D02*
X141107026Y-109283356D01*
X141107026Y-109283356D02*
X141064693Y-109452690D01*
X141064693Y-109452690D02*
X141022359Y-109537356D01*
X141022359Y-109537356D02*
X140980026Y-109579690D01*
X140980026Y-109579690D02*
X140895359Y-109622023D01*
X140895359Y-109622023D02*
X140810693Y-109622023D01*
X140810693Y-109622023D02*
X140726026Y-109579690D01*
X140726026Y-109579690D02*
X140683693Y-109537356D01*
X140683693Y-109537356D02*
X140641359Y-109452690D01*
X140641359Y-109452690D02*
X140599026Y-109283356D01*
X140599026Y-109283356D02*
X140599026Y-109071690D01*
X140599026Y-109071690D02*
X140641359Y-108902356D01*
X140641359Y-108902356D02*
X140683693Y-108817690D01*
X140683693Y-108817690D02*
X140726026Y-108775356D01*
X140726026Y-108775356D02*
X140810693Y-108733023D01*
X141657360Y-108733023D02*
X141742026Y-108733023D01*
X141742026Y-108733023D02*
X141826693Y-108775356D01*
X141826693Y-108775356D02*
X141869026Y-108817690D01*
X141869026Y-108817690D02*
X141911360Y-108902356D01*
X141911360Y-108902356D02*
X141953693Y-109071690D01*
X141953693Y-109071690D02*
X141953693Y-109283356D01*
X141953693Y-109283356D02*
X141911360Y-109452690D01*
X141911360Y-109452690D02*
X141869026Y-109537356D01*
X141869026Y-109537356D02*
X141826693Y-109579690D01*
X141826693Y-109579690D02*
X141742026Y-109622023D01*
X141742026Y-109622023D02*
X141657360Y-109622023D01*
X141657360Y-109622023D02*
X141572693Y-109579690D01*
X141572693Y-109579690D02*
X141530360Y-109537356D01*
X141530360Y-109537356D02*
X141488026Y-109452690D01*
X141488026Y-109452690D02*
X141445693Y-109283356D01*
X141445693Y-109283356D02*
X141445693Y-109071690D01*
X141445693Y-109071690D02*
X141488026Y-108902356D01*
X141488026Y-108902356D02*
X141530360Y-108817690D01*
X141530360Y-108817690D02*
X141572693Y-108775356D01*
X141572693Y-108775356D02*
X141657360Y-108733023D01*
X123084023Y-83195027D02*
X123084023Y-83025693D01*
X123084023Y-83025693D02*
X123041690Y-82941027D01*
X123041690Y-82941027D02*
X122999356Y-82898693D01*
X122999356Y-82898693D02*
X122872356Y-82814027D01*
X122872356Y-82814027D02*
X122703023Y-82771693D01*
X122703023Y-82771693D02*
X122364356Y-82771693D01*
X122364356Y-82771693D02*
X122279690Y-82814027D01*
X122279690Y-82814027D02*
X122237356Y-82856360D01*
X122237356Y-82856360D02*
X122195023Y-82941027D01*
X122195023Y-82941027D02*
X122195023Y-83110360D01*
X122195023Y-83110360D02*
X122237356Y-83195027D01*
X122237356Y-83195027D02*
X122279690Y-83237360D01*
X122279690Y-83237360D02*
X122364356Y-83279693D01*
X122364356Y-83279693D02*
X122576023Y-83279693D01*
X122576023Y-83279693D02*
X122660690Y-83237360D01*
X122660690Y-83237360D02*
X122703023Y-83195027D01*
X122703023Y-83195027D02*
X122745356Y-83110360D01*
X122745356Y-83110360D02*
X122745356Y-82941027D01*
X122745356Y-82941027D02*
X122703023Y-82856360D01*
X122703023Y-82856360D02*
X122660690Y-82814027D01*
X122660690Y-82814027D02*
X122576023Y-82771693D01*
X122195023Y-82221360D02*
X122195023Y-82136693D01*
X122195023Y-82136693D02*
X122237356Y-82052026D01*
X122237356Y-82052026D02*
X122279690Y-82009693D01*
X122279690Y-82009693D02*
X122364356Y-81967360D01*
X122364356Y-81967360D02*
X122533690Y-81925026D01*
X122533690Y-81925026D02*
X122745356Y-81925026D01*
X122745356Y-81925026D02*
X122914690Y-81967360D01*
X122914690Y-81967360D02*
X122999356Y-82009693D01*
X122999356Y-82009693D02*
X123041690Y-82052026D01*
X123041690Y-82052026D02*
X123084023Y-82136693D01*
X123084023Y-82136693D02*
X123084023Y-82221360D01*
X123084023Y-82221360D02*
X123041690Y-82306026D01*
X123041690Y-82306026D02*
X122999356Y-82348360D01*
X122999356Y-82348360D02*
X122914690Y-82390693D01*
X122914690Y-82390693D02*
X122745356Y-82433026D01*
X122745356Y-82433026D02*
X122533690Y-82433026D01*
X122533690Y-82433026D02*
X122364356Y-82390693D01*
X122364356Y-82390693D02*
X122279690Y-82348360D01*
X122279690Y-82348360D02*
X122237356Y-82306026D01*
X122237356Y-82306026D02*
X122195023Y-82221360D01*
X122195023Y-81374693D02*
X122195023Y-81290026D01*
X122195023Y-81290026D02*
X122237356Y-81205359D01*
X122237356Y-81205359D02*
X122279690Y-81163026D01*
X122279690Y-81163026D02*
X122364356Y-81120693D01*
X122364356Y-81120693D02*
X122533690Y-81078359D01*
X122533690Y-81078359D02*
X122745356Y-81078359D01*
X122745356Y-81078359D02*
X122914690Y-81120693D01*
X122914690Y-81120693D02*
X122999356Y-81163026D01*
X122999356Y-81163026D02*
X123041690Y-81205359D01*
X123041690Y-81205359D02*
X123084023Y-81290026D01*
X123084023Y-81290026D02*
X123084023Y-81374693D01*
X123084023Y-81374693D02*
X123041690Y-81459359D01*
X123041690Y-81459359D02*
X122999356Y-81501693D01*
X122999356Y-81501693D02*
X122914690Y-81544026D01*
X122914690Y-81544026D02*
X122745356Y-81586359D01*
X122745356Y-81586359D02*
X122533690Y-81586359D01*
X122533690Y-81586359D02*
X122364356Y-81544026D01*
X122364356Y-81544026D02*
X122279690Y-81501693D01*
X122279690Y-81501693D02*
X122237356Y-81459359D01*
X122237356Y-81459359D02*
X122195023Y-81374693D01*
X120544023Y-82771693D02*
X120544023Y-83279693D01*
X120544023Y-83025693D02*
X119655023Y-83025693D01*
X119655023Y-83025693D02*
X119782023Y-83110360D01*
X119782023Y-83110360D02*
X119866690Y-83195027D01*
X119866690Y-83195027D02*
X119909023Y-83279693D01*
X119655023Y-82221360D02*
X119655023Y-82136693D01*
X119655023Y-82136693D02*
X119697356Y-82052026D01*
X119697356Y-82052026D02*
X119739690Y-82009693D01*
X119739690Y-82009693D02*
X119824356Y-81967360D01*
X119824356Y-81967360D02*
X119993690Y-81925026D01*
X119993690Y-81925026D02*
X120205356Y-81925026D01*
X120205356Y-81925026D02*
X120374690Y-81967360D01*
X120374690Y-81967360D02*
X120459356Y-82009693D01*
X120459356Y-82009693D02*
X120501690Y-82052026D01*
X120501690Y-82052026D02*
X120544023Y-82136693D01*
X120544023Y-82136693D02*
X120544023Y-82221360D01*
X120544023Y-82221360D02*
X120501690Y-82306026D01*
X120501690Y-82306026D02*
X120459356Y-82348360D01*
X120459356Y-82348360D02*
X120374690Y-82390693D01*
X120374690Y-82390693D02*
X120205356Y-82433026D01*
X120205356Y-82433026D02*
X119993690Y-82433026D01*
X119993690Y-82433026D02*
X119824356Y-82390693D01*
X119824356Y-82390693D02*
X119739690Y-82348360D01*
X119739690Y-82348360D02*
X119697356Y-82306026D01*
X119697356Y-82306026D02*
X119655023Y-82221360D01*
X119655023Y-81374693D02*
X119655023Y-81290026D01*
X119655023Y-81290026D02*
X119697356Y-81205359D01*
X119697356Y-81205359D02*
X119739690Y-81163026D01*
X119739690Y-81163026D02*
X119824356Y-81120693D01*
X119824356Y-81120693D02*
X119993690Y-81078359D01*
X119993690Y-81078359D02*
X120205356Y-81078359D01*
X120205356Y-81078359D02*
X120374690Y-81120693D01*
X120374690Y-81120693D02*
X120459356Y-81163026D01*
X120459356Y-81163026D02*
X120501690Y-81205359D01*
X120501690Y-81205359D02*
X120544023Y-81290026D01*
X120544023Y-81290026D02*
X120544023Y-81374693D01*
X120544023Y-81374693D02*
X120501690Y-81459359D01*
X120501690Y-81459359D02*
X120459356Y-81501693D01*
X120459356Y-81501693D02*
X120374690Y-81544026D01*
X120374690Y-81544026D02*
X120205356Y-81586359D01*
X120205356Y-81586359D02*
X119993690Y-81586359D01*
X119993690Y-81586359D02*
X119824356Y-81544026D01*
X119824356Y-81544026D02*
X119739690Y-81501693D01*
X119739690Y-81501693D02*
X119697356Y-81459359D01*
X119697356Y-81459359D02*
X119655023Y-81374693D01*
X119655023Y-80528026D02*
X119655023Y-80443359D01*
X119655023Y-80443359D02*
X119697356Y-80358692D01*
X119697356Y-80358692D02*
X119739690Y-80316359D01*
X119739690Y-80316359D02*
X119824356Y-80274026D01*
X119824356Y-80274026D02*
X119993690Y-80231692D01*
X119993690Y-80231692D02*
X120205356Y-80231692D01*
X120205356Y-80231692D02*
X120374690Y-80274026D01*
X120374690Y-80274026D02*
X120459356Y-80316359D01*
X120459356Y-80316359D02*
X120501690Y-80358692D01*
X120501690Y-80358692D02*
X120544023Y-80443359D01*
X120544023Y-80443359D02*
X120544023Y-80528026D01*
X120544023Y-80528026D02*
X120501690Y-80612692D01*
X120501690Y-80612692D02*
X120459356Y-80655026D01*
X120459356Y-80655026D02*
X120374690Y-80697359D01*
X120374690Y-80697359D02*
X120205356Y-80739692D01*
X120205356Y-80739692D02*
X119993690Y-80739692D01*
X119993690Y-80739692D02*
X119824356Y-80697359D01*
X119824356Y-80697359D02*
X119739690Y-80655026D01*
X119739690Y-80655026D02*
X119697356Y-80612692D01*
X119697356Y-80612692D02*
X119655023Y-80528026D01*
X140175692Y-106489356D02*
X140175692Y-107082023D01*
X139964026Y-106150690D02*
X139752359Y-106785690D01*
X139752359Y-106785690D02*
X140302692Y-106785690D01*
X140810693Y-106193023D02*
X140895359Y-106193023D01*
X140895359Y-106193023D02*
X140980026Y-106235356D01*
X140980026Y-106235356D02*
X141022359Y-106277690D01*
X141022359Y-106277690D02*
X141064693Y-106362356D01*
X141064693Y-106362356D02*
X141107026Y-106531690D01*
X141107026Y-106531690D02*
X141107026Y-106743356D01*
X141107026Y-106743356D02*
X141064693Y-106912690D01*
X141064693Y-106912690D02*
X141022359Y-106997356D01*
X141022359Y-106997356D02*
X140980026Y-107039690D01*
X140980026Y-107039690D02*
X140895359Y-107082023D01*
X140895359Y-107082023D02*
X140810693Y-107082023D01*
X140810693Y-107082023D02*
X140726026Y-107039690D01*
X140726026Y-107039690D02*
X140683693Y-106997356D01*
X140683693Y-106997356D02*
X140641359Y-106912690D01*
X140641359Y-106912690D02*
X140599026Y-106743356D01*
X140599026Y-106743356D02*
X140599026Y-106531690D01*
X140599026Y-106531690D02*
X140641359Y-106362356D01*
X140641359Y-106362356D02*
X140683693Y-106277690D01*
X140683693Y-106277690D02*
X140726026Y-106235356D01*
X140726026Y-106235356D02*
X140810693Y-106193023D01*
X141657360Y-106193023D02*
X141742026Y-106193023D01*
X141742026Y-106193023D02*
X141826693Y-106235356D01*
X141826693Y-106235356D02*
X141869026Y-106277690D01*
X141869026Y-106277690D02*
X141911360Y-106362356D01*
X141911360Y-106362356D02*
X141953693Y-106531690D01*
X141953693Y-106531690D02*
X141953693Y-106743356D01*
X141953693Y-106743356D02*
X141911360Y-106912690D01*
X141911360Y-106912690D02*
X141869026Y-106997356D01*
X141869026Y-106997356D02*
X141826693Y-107039690D01*
X141826693Y-107039690D02*
X141742026Y-107082023D01*
X141742026Y-107082023D02*
X141657360Y-107082023D01*
X141657360Y-107082023D02*
X141572693Y-107039690D01*
X141572693Y-107039690D02*
X141530360Y-106997356D01*
X141530360Y-106997356D02*
X141488026Y-106912690D01*
X141488026Y-106912690D02*
X141445693Y-106743356D01*
X141445693Y-106743356D02*
X141445693Y-106531690D01*
X141445693Y-106531690D02*
X141488026Y-106362356D01*
X141488026Y-106362356D02*
X141530360Y-106277690D01*
X141530360Y-106277690D02*
X141572693Y-106235356D01*
X141572693Y-106235356D02*
X141657360Y-106193023D01*
%TO.C,U1*%
X145072100Y-85344000D02*
X146050000Y-85344000D01*
X145072100Y-86321900D02*
X145072100Y-85344000D01*
X148590000Y-85344000D02*
X149567900Y-85344000D01*
X149567900Y-85344000D02*
X149567900Y-86321900D01*
%TO.C,J7*%
X141681900Y-100076000D02*
G75*
G02*
X141504100Y-100076000I-88900J0D01*
G01*
X141504100Y-100076000D02*
G75*
G02*
X141681900Y-100076000I88900J0D01*
G01*
X146048000Y-101346000D02*
X146048000Y-98491000D01*
X146048000Y-93726000D02*
X146048000Y-96581000D01*
X143638000Y-101346000D02*
X146048000Y-101346000D01*
X143638000Y-101031000D02*
X143638000Y-101346000D01*
X143638000Y-99121000D02*
X143638000Y-95951000D01*
X143638000Y-94041000D02*
X143638000Y-93726000D01*
X143638000Y-93726000D02*
X146048000Y-93726000D01*
%TD*%
M02*
