%TF.GenerationSoftware,KiCad,Pcbnew,8.0.4*%
%TF.CreationDate,2024-08-26T14:53:49-04:00*%
%TF.ProjectId,S-Band_1W_R1,532d4261-6e64-45f3-9157-5f52312e6b69,0*%
%TF.SameCoordinates,Original*%
%TF.FileFunction,Copper,L2,Bot*%
%TF.FilePolarity,Positive*%
%FSLAX46Y46*%
G04 Gerber Fmt 4.6, Leading zero omitted, Abs format (unit mm)*
G04 Created by KiCad (PCBNEW 8.0.4) date 2024-08-26 14:53:49*
%MOMM*%
%LPD*%
G01*
G04 APERTURE LIST*
%TA.AperFunction,ComponentPad*%
%ADD10C,0.635000*%
%TD*%
%TA.AperFunction,SMDPad,CuDef*%
%ADD11R,4.572000X1.016000*%
%TD*%
%TA.AperFunction,HeatsinkPad*%
%ADD12C,0.635000*%
%TD*%
%TA.AperFunction,ViaPad*%
%ADD13C,0.635000*%
%TD*%
%TA.AperFunction,ViaPad*%
%ADD14C,2.794000*%
%TD*%
G04 APERTURE END LIST*
D10*
%TO.P,J1,0*%
%TO.N,GND*%
X106172000Y-63754000D03*
X106172000Y-58166000D03*
X105664000Y-64516000D03*
X105664000Y-57404000D03*
X105156000Y-63754000D03*
X105156000Y-58166000D03*
X104648000Y-64516000D03*
X104648000Y-57404000D03*
X104140000Y-63754000D03*
X104140000Y-58166000D03*
D11*
X103962200Y-63728600D03*
X103962200Y-58191400D03*
D10*
X103632000Y-64516000D03*
X103632000Y-57404000D03*
X103124000Y-63754000D03*
X103124000Y-58166000D03*
X102616000Y-64516000D03*
X102616000Y-57404000D03*
X102108000Y-63754000D03*
X102108000Y-58166000D03*
%TD*%
%TO.P,J3,0*%
%TO.N,GND*%
X106172000Y-91694000D03*
X106172000Y-86106000D03*
X105664000Y-92456000D03*
X105664000Y-85344000D03*
X105156000Y-91694000D03*
X105156000Y-86106000D03*
X104648000Y-92456000D03*
X104648000Y-85344000D03*
X104140000Y-91694000D03*
X104140000Y-86106000D03*
D11*
X103962200Y-91668600D03*
X103962200Y-86131400D03*
D10*
X103632000Y-92456000D03*
X103632000Y-85344000D03*
X103124000Y-91694000D03*
X103124000Y-86106000D03*
X102616000Y-92456000D03*
X102616000Y-85344000D03*
X102108000Y-91694000D03*
X102108000Y-86106000D03*
%TD*%
%TO.P,J2,0*%
%TO.N,GND*%
X188468000Y-58166000D03*
X188468000Y-63754000D03*
X188976000Y-57404000D03*
X188976000Y-64516000D03*
X189484000Y-58166000D03*
X189484000Y-63754000D03*
X189992000Y-57404000D03*
X189992000Y-64516000D03*
X190500000Y-58166000D03*
X190500000Y-63754000D03*
D11*
X190677800Y-58191400D03*
X190677800Y-63728600D03*
D10*
X191008000Y-57404000D03*
X191008000Y-64516000D03*
X191516000Y-58166000D03*
X191516000Y-63754000D03*
X192024000Y-57404000D03*
X192024000Y-64516000D03*
X192532000Y-58166000D03*
X192532000Y-63754000D03*
%TD*%
%TO.P,J4,0*%
%TO.N,GND*%
X188468000Y-86106000D03*
X188468000Y-91694000D03*
X188976000Y-85344000D03*
X188976000Y-92456000D03*
X189484000Y-86106000D03*
X189484000Y-91694000D03*
X189992000Y-85344000D03*
X189992000Y-92456000D03*
X190500000Y-86106000D03*
X190500000Y-91694000D03*
D11*
X190677800Y-86131400D03*
X190677800Y-91668600D03*
D10*
X191008000Y-85344000D03*
X191008000Y-92456000D03*
X191516000Y-86106000D03*
X191516000Y-91694000D03*
X192024000Y-85344000D03*
X192024000Y-92456000D03*
X192532000Y-86106000D03*
X192532000Y-91694000D03*
%TD*%
D12*
%TO.P,U1,0*%
%TO.N,GND*%
X146304000Y-86410800D03*
X146362500Y-84861400D03*
X146812000Y-85648800D03*
X146812000Y-87172800D03*
X146862800Y-84124800D03*
X147320000Y-84886800D03*
X147320000Y-86410800D03*
X147320000Y-87934800D03*
X147320000Y-88696800D03*
X147320000Y-89458800D03*
X147828000Y-84124800D03*
X147828000Y-85648800D03*
X147828000Y-87172800D03*
X148336000Y-84861400D03*
X148336000Y-86410800D03*
%TD*%
D10*
%TO.P,J5,0*%
%TO.N,GND*%
X106172000Y-119634000D03*
X106172000Y-114046000D03*
X105664000Y-120396000D03*
X105664000Y-113284000D03*
X105156000Y-119634000D03*
X105156000Y-114046000D03*
X104648000Y-120396000D03*
X104648000Y-113284000D03*
X104140000Y-119634000D03*
X104140000Y-114046000D03*
D11*
X103962200Y-119608600D03*
X103962200Y-114071400D03*
D10*
X103632000Y-120396000D03*
X103632000Y-113284000D03*
X103124000Y-119634000D03*
X103124000Y-114046000D03*
X102616000Y-120396000D03*
X102616000Y-113284000D03*
X102108000Y-119634000D03*
X102108000Y-114046000D03*
%TD*%
%TO.P,J6,0*%
%TO.N,GND*%
X188468000Y-114046000D03*
X188468000Y-119634000D03*
X188976000Y-113284000D03*
X188976000Y-120396000D03*
X189484000Y-114046000D03*
X189484000Y-119634000D03*
X189992000Y-113284000D03*
X189992000Y-120396000D03*
X190500000Y-114046000D03*
X190500000Y-119634000D03*
D11*
X190677800Y-114071400D03*
X190677800Y-119608600D03*
D10*
X191008000Y-113284000D03*
X191008000Y-120396000D03*
X191516000Y-114046000D03*
X191516000Y-119634000D03*
X192024000Y-113284000D03*
X192024000Y-120396000D03*
X192532000Y-114046000D03*
X192532000Y-119634000D03*
%TD*%
D13*
%TO.N,GND*%
X142748000Y-93980000D03*
X179324000Y-51308000D03*
X184404000Y-72898000D03*
X184404000Y-108966000D03*
X136652000Y-64770000D03*
X181356000Y-126492000D03*
X149352000Y-63754000D03*
X110236000Y-104902000D03*
X132588000Y-110998000D03*
X109220000Y-51308000D03*
X145542000Y-103378000D03*
X120396000Y-96774000D03*
X192532000Y-110998000D03*
X176276000Y-126492000D03*
X151384000Y-120142000D03*
X116332000Y-122428000D03*
X106172000Y-94742000D03*
X114300000Y-78994000D03*
X102108000Y-125476000D03*
X175260000Y-114808000D03*
X132588000Y-102870000D03*
X102108000Y-102870000D03*
X170180000Y-126492000D03*
X136652000Y-58928000D03*
X190500000Y-72898000D03*
X108204000Y-76962000D03*
X118364000Y-114808000D03*
X151892000Y-53340000D03*
X112268000Y-55372000D03*
X166116000Y-94742000D03*
X174244000Y-70866000D03*
X111252000Y-62992000D03*
X186436000Y-106934000D03*
X118364000Y-126492000D03*
X184404000Y-113030000D03*
X145796000Y-126492000D03*
X176276000Y-114808000D03*
X173228000Y-86868000D03*
X126492000Y-78994000D03*
X176276000Y-57404000D03*
X174244000Y-98806000D03*
X171196000Y-62992000D03*
X132588000Y-78994000D03*
X113284000Y-62992000D03*
X114300000Y-94742000D03*
X184404000Y-102870000D03*
X162052000Y-78994000D03*
X151892000Y-104902000D03*
X115316000Y-114808000D03*
X167132000Y-51308000D03*
X170180000Y-94742000D03*
X172212000Y-110998000D03*
X174244000Y-124460000D03*
X155956000Y-74930000D03*
X172212000Y-53340000D03*
X147828000Y-76962000D03*
X145542000Y-102362000D03*
X110236000Y-62992000D03*
X157988000Y-74930000D03*
X180340000Y-76962000D03*
X132588000Y-92710000D03*
X141732000Y-58928000D03*
X145542000Y-110490000D03*
X134620000Y-53340000D03*
X153924000Y-98806000D03*
X170180000Y-58928000D03*
X155956000Y-106934000D03*
X155956000Y-86868000D03*
X139700000Y-86868000D03*
X138684000Y-53340000D03*
X130556000Y-86868000D03*
X186436000Y-74930000D03*
X151892000Y-81026000D03*
X134620000Y-100838000D03*
X157988000Y-76962000D03*
X146304000Y-56642000D03*
X114300000Y-72898000D03*
X114300000Y-85090000D03*
X178308000Y-106934000D03*
X182372000Y-122428000D03*
X160020000Y-110998000D03*
X167132000Y-86868000D03*
X156972000Y-126492000D03*
X130556000Y-72898000D03*
X106172000Y-55372000D03*
X146812000Y-53340000D03*
X130556000Y-81026000D03*
X178308000Y-126492000D03*
X124460000Y-122428000D03*
X122428000Y-51308000D03*
X149098000Y-103378000D03*
X136652000Y-114808000D03*
X146812000Y-66802000D03*
X157988000Y-96774000D03*
X132588000Y-66802000D03*
X191516000Y-51308000D03*
X162052000Y-106934000D03*
X167132000Y-90932000D03*
X142748000Y-81026000D03*
X128524000Y-90932000D03*
X124460000Y-114808000D03*
X179324000Y-62992000D03*
X110236000Y-106934000D03*
X153924000Y-124460000D03*
X120396000Y-100838000D03*
X160020000Y-72898000D03*
X122428000Y-124460000D03*
X104140000Y-76962000D03*
X160020000Y-118872000D03*
X178308000Y-122428000D03*
X172212000Y-72898000D03*
X140716000Y-102870000D03*
X132588000Y-85090000D03*
X166116000Y-74930000D03*
X184404000Y-86868000D03*
X143764000Y-90932000D03*
X149860000Y-74930000D03*
X110236000Y-57404000D03*
X157988000Y-106934000D03*
X182372000Y-85090000D03*
X134620000Y-113030000D03*
X106172000Y-51308000D03*
X180340000Y-70866000D03*
X172212000Y-118872000D03*
X120396000Y-72898000D03*
X168148000Y-102870000D03*
X116332000Y-113030000D03*
X120396000Y-124460000D03*
D14*
X105410000Y-109220000D03*
D13*
X157988000Y-90932000D03*
X102108000Y-98806000D03*
X114300000Y-66802000D03*
X157988000Y-120396000D03*
X142748000Y-110998000D03*
X149352000Y-120142000D03*
X102108000Y-74930000D03*
X187452000Y-119634000D03*
X116332000Y-51308000D03*
X176276000Y-102870000D03*
X176276000Y-104902000D03*
X128524000Y-126492000D03*
X114300000Y-70866000D03*
X114300000Y-122428000D03*
X136652000Y-120396000D03*
X124460000Y-120396000D03*
X164084000Y-113030000D03*
X178308000Y-81026000D03*
X184404000Y-57404000D03*
X108204000Y-113030000D03*
X102108000Y-82042000D03*
X124460000Y-78994000D03*
X160020000Y-104902000D03*
X123444000Y-126492000D03*
X140716000Y-66802000D03*
X143764000Y-86868000D03*
X182372000Y-110998000D03*
X110236000Y-81026000D03*
X102108000Y-105918000D03*
X155956000Y-114808000D03*
X134620000Y-92710000D03*
X112268000Y-122428000D03*
X185420000Y-63246000D03*
X173228000Y-62992000D03*
X138684000Y-98806000D03*
X179324000Y-58928000D03*
X144272000Y-120142000D03*
X122428000Y-72898000D03*
X131572000Y-51308000D03*
X126492000Y-120396000D03*
X186436000Y-68834000D03*
X152908000Y-90932000D03*
X110236000Y-74930000D03*
X131572000Y-58928000D03*
X118364000Y-100838000D03*
X160020000Y-102870000D03*
X192532000Y-106934000D03*
X183388000Y-86868000D03*
X160020000Y-122428000D03*
X155956000Y-58928000D03*
X170180000Y-76962000D03*
X114300000Y-90932000D03*
X192532000Y-98806000D03*
X153924000Y-74930000D03*
X130556000Y-58928000D03*
X120396000Y-118872000D03*
X178308000Y-85090000D03*
X110236000Y-58928000D03*
X114300000Y-58928000D03*
X108204000Y-126492000D03*
X131572000Y-118872000D03*
X182372000Y-68834000D03*
D14*
X189230000Y-53340000D03*
D13*
X184404000Y-81026000D03*
X170180000Y-83058000D03*
X134620000Y-68834000D03*
X153924000Y-108966000D03*
X106172000Y-110998000D03*
X165100000Y-86868000D03*
X126492000Y-53340000D03*
X180340000Y-118872000D03*
X114300000Y-55372000D03*
X166116000Y-83058000D03*
X144780000Y-62992000D03*
X132588000Y-72898000D03*
X123444000Y-114808000D03*
X138684000Y-81026000D03*
X165100000Y-126492000D03*
X132588000Y-98806000D03*
X113284000Y-126492000D03*
X178308000Y-68834000D03*
X141224000Y-119888000D03*
X140716000Y-104902000D03*
X155956000Y-100838000D03*
X183388000Y-62992000D03*
X132588000Y-58928000D03*
X112268000Y-113030000D03*
X134620000Y-66802000D03*
X112268000Y-74930000D03*
X102108000Y-72898000D03*
X138684000Y-122428000D03*
X173228000Y-126492000D03*
X184404000Y-66802000D03*
X134620000Y-118872000D03*
X102108000Y-51308000D03*
X130556000Y-106934000D03*
X186436000Y-70866000D03*
X129540000Y-118872000D03*
X134620000Y-94742000D03*
X186436000Y-64770000D03*
X192532000Y-74930000D03*
X163068000Y-51308000D03*
X153924000Y-62992000D03*
X136652000Y-110998000D03*
X186436000Y-81026000D03*
X161036000Y-62992000D03*
X141732000Y-86868000D03*
X161036000Y-114808000D03*
X116332000Y-62992000D03*
X166116000Y-120396000D03*
X174244000Y-57404000D03*
X126492000Y-118872000D03*
X174244000Y-120396000D03*
X153924000Y-55372000D03*
X127508000Y-114808000D03*
X122428000Y-102870000D03*
X107188000Y-63754000D03*
X188468000Y-94742000D03*
X177292000Y-86868000D03*
X164084000Y-94742000D03*
X157988000Y-81026000D03*
X114300000Y-126492000D03*
X182372000Y-66802000D03*
X104140000Y-106934000D03*
X160020000Y-57404000D03*
X138684000Y-76962000D03*
X115316000Y-58928000D03*
X165100000Y-58928000D03*
X172212000Y-124460000D03*
X127508000Y-86868000D03*
X126492000Y-96774000D03*
X106172000Y-122428000D03*
X134620000Y-64770000D03*
X174244000Y-104902000D03*
X116332000Y-90932000D03*
X131572000Y-90932000D03*
X142748000Y-122428000D03*
X147828000Y-81026000D03*
X172212000Y-78994000D03*
X134620000Y-90932000D03*
X167132000Y-118872000D03*
D14*
X189230000Y-96520000D03*
D13*
X151892000Y-62992000D03*
X102108000Y-101854000D03*
X182372000Y-58928000D03*
X126492000Y-104902000D03*
X132588000Y-64770000D03*
X184404000Y-64770000D03*
X163068000Y-114808000D03*
X104140000Y-72898000D03*
X128524000Y-114808000D03*
D14*
X105410000Y-81280000D03*
D13*
X134620000Y-86868000D03*
X174244000Y-96774000D03*
X118364000Y-122428000D03*
X160020000Y-55372000D03*
X153924000Y-113030000D03*
X170180000Y-68834000D03*
X184404000Y-104902000D03*
X135636000Y-90932000D03*
X192532000Y-75946000D03*
X164084000Y-72898000D03*
X182372000Y-104902000D03*
X124460000Y-102870000D03*
X155956000Y-66802000D03*
X120396000Y-114808000D03*
X118364000Y-81026000D03*
X102108000Y-76962000D03*
X152908000Y-58928000D03*
X131572000Y-62992000D03*
X122428000Y-94742000D03*
X192532000Y-69850000D03*
X126492000Y-126492000D03*
X118364000Y-76962000D03*
X134620000Y-74930000D03*
X159004000Y-51308000D03*
X168148000Y-53340000D03*
X153924000Y-110998000D03*
X126492000Y-55372000D03*
X142748000Y-58928000D03*
X118364000Y-62992000D03*
X188468000Y-122428000D03*
X140716000Y-78994000D03*
X166116000Y-106934000D03*
X176276000Y-85090000D03*
X146812000Y-98806000D03*
X142748000Y-64770000D03*
X172212000Y-96774000D03*
X128524000Y-86868000D03*
X112268000Y-62992000D03*
X156972000Y-58928000D03*
X162052000Y-76962000D03*
X186436000Y-119380000D03*
X192532000Y-65786000D03*
X161036000Y-51308000D03*
X184404000Y-76962000D03*
X156972000Y-62992000D03*
X121412000Y-114808000D03*
X123444000Y-62992000D03*
X166116000Y-57404000D03*
X120396000Y-55372000D03*
X167132000Y-114808000D03*
X113284000Y-118872000D03*
X120396000Y-51308000D03*
X129540000Y-62992000D03*
X110236000Y-122428000D03*
X186436000Y-100838000D03*
X174244000Y-51308000D03*
X106172000Y-70866000D03*
X187452000Y-126492000D03*
X170180000Y-120396000D03*
X186436000Y-57404000D03*
X174244000Y-108966000D03*
X170180000Y-114808000D03*
X176276000Y-108966000D03*
X188468000Y-110998000D03*
X142748000Y-83058000D03*
X143764000Y-58928000D03*
X147320000Y-56642000D03*
X122428000Y-113030000D03*
X123444000Y-58928000D03*
X192532000Y-82042000D03*
X114300000Y-96774000D03*
X138684000Y-108966000D03*
X182372000Y-113030000D03*
X136652000Y-98806000D03*
X118364000Y-70866000D03*
X110236000Y-86868000D03*
X116332000Y-78994000D03*
X153924000Y-66802000D03*
X190500000Y-106934000D03*
X130556000Y-62992000D03*
X102108000Y-70866000D03*
X149860000Y-51308000D03*
X184404000Y-53340000D03*
X162052000Y-110998000D03*
X142748000Y-53340000D03*
X160020000Y-74930000D03*
X137668000Y-90932000D03*
X128524000Y-113030000D03*
X164084000Y-106934000D03*
X125476000Y-51308000D03*
X145542000Y-108458000D03*
X124460000Y-85090000D03*
X136652000Y-62992000D03*
X123444000Y-86868000D03*
X131572000Y-114808000D03*
X136652000Y-94742000D03*
X124460000Y-55372000D03*
D14*
X105410000Y-53340000D03*
D13*
X108204000Y-122428000D03*
X124460000Y-57404000D03*
D14*
X105410000Y-124460000D03*
D13*
X128524000Y-78994000D03*
X126492000Y-122428000D03*
X121412000Y-90932000D03*
X149098000Y-113538000D03*
X146812000Y-78994000D03*
X149860000Y-55372000D03*
X153924000Y-106934000D03*
X136652000Y-53340000D03*
X160020000Y-64770000D03*
X124460000Y-106934000D03*
X140716000Y-74930000D03*
X125476000Y-62992000D03*
X151892000Y-108966000D03*
X147828000Y-72898000D03*
X166116000Y-108966000D03*
X126492000Y-66802000D03*
X149860000Y-100838000D03*
X109220000Y-91186000D03*
X115316000Y-86868000D03*
X170180000Y-102870000D03*
X151892000Y-55372000D03*
X108204000Y-102870000D03*
X178308000Y-90932000D03*
X178308000Y-58928000D03*
X130556000Y-114808000D03*
X157988000Y-124460000D03*
X167132000Y-126492000D03*
X181356000Y-86868000D03*
X176276000Y-83058000D03*
X133604000Y-90932000D03*
X116332000Y-55372000D03*
X180340000Y-78994000D03*
X174244000Y-83058000D03*
X177292000Y-90932000D03*
X187452000Y-51308000D03*
X130556000Y-108966000D03*
X110236000Y-96774000D03*
X151892000Y-58928000D03*
X164084000Y-104902000D03*
X140716000Y-108966000D03*
X149098000Y-110490000D03*
X177292000Y-114808000D03*
X145288000Y-57150000D03*
X166116000Y-81026000D03*
X124460000Y-124460000D03*
X160020000Y-76962000D03*
X157988000Y-86868000D03*
X182372000Y-126492000D03*
X108204000Y-53340000D03*
X138684000Y-120396000D03*
X120396000Y-76962000D03*
X112268000Y-70866000D03*
X155956000Y-126492000D03*
X102108000Y-100838000D03*
X108204000Y-106934000D03*
X157988000Y-70866000D03*
X116332000Y-102870000D03*
X149860000Y-76962000D03*
X130556000Y-90932000D03*
X182372000Y-98806000D03*
X150876000Y-51308000D03*
X192532000Y-95758000D03*
X185420000Y-119126000D03*
X102108000Y-77978000D03*
X164084000Y-96774000D03*
X118364000Y-124460000D03*
X162052000Y-120396000D03*
X178308000Y-78994000D03*
X124460000Y-113030000D03*
X146304000Y-120142000D03*
X170180000Y-92710000D03*
X153924000Y-100838000D03*
X164084000Y-62992000D03*
X166116000Y-104902000D03*
X136652000Y-76962000D03*
X169164000Y-126492000D03*
X174244000Y-106934000D03*
X110236000Y-124460000D03*
X110236000Y-126492000D03*
X144780000Y-86868000D03*
X142748000Y-85090000D03*
X139700000Y-114808000D03*
X184404000Y-92710000D03*
X120396000Y-64770000D03*
X171196000Y-90932000D03*
X178308000Y-100838000D03*
X104140000Y-100838000D03*
X174244000Y-66802000D03*
X184404000Y-124460000D03*
X108204000Y-100838000D03*
X153924000Y-51308000D03*
X118364000Y-78994000D03*
X170180000Y-104902000D03*
X140716000Y-110998000D03*
X120396000Y-62992000D03*
X118364000Y-85090000D03*
X114300000Y-98806000D03*
X192532000Y-84074000D03*
X162052000Y-108966000D03*
X144780000Y-66802000D03*
X141224000Y-113792000D03*
X157988000Y-62992000D03*
X103124000Y-126492000D03*
X190500000Y-70866000D03*
X110236000Y-90932000D03*
X106172000Y-106934000D03*
X102108000Y-66802000D03*
X176276000Y-92710000D03*
X170180000Y-85090000D03*
X106172000Y-78994000D03*
X116332000Y-85090000D03*
X138684000Y-110998000D03*
X136652000Y-106934000D03*
X140716000Y-70866000D03*
X110236000Y-100838000D03*
X122428000Y-62992000D03*
X154940000Y-58928000D03*
X110236000Y-85090000D03*
X179324000Y-126492000D03*
X145288000Y-120142000D03*
X142748000Y-78994000D03*
X138684000Y-92710000D03*
X157988000Y-57404000D03*
X162052000Y-122428000D03*
X144780000Y-96774000D03*
X163068000Y-86868000D03*
X187452000Y-63754000D03*
X120396000Y-74930000D03*
X180340000Y-104902000D03*
X138684000Y-78994000D03*
X179324000Y-86868000D03*
X108204000Y-110998000D03*
X114300000Y-113030000D03*
X149098000Y-105410000D03*
X107188000Y-114046000D03*
X188468000Y-66802000D03*
X128524000Y-100838000D03*
X143764000Y-126492000D03*
X115316000Y-118872000D03*
X136652000Y-74930000D03*
X155956000Y-83058000D03*
X102108000Y-67818000D03*
X170180000Y-78994000D03*
X146812000Y-72898000D03*
X170180000Y-66802000D03*
X138684000Y-96774000D03*
X125476000Y-126492000D03*
X124460000Y-110998000D03*
X142748000Y-124460000D03*
X164084000Y-74930000D03*
X108204000Y-108966000D03*
X115316000Y-62992000D03*
X110236000Y-64770000D03*
X116332000Y-70866000D03*
X108204000Y-114300000D03*
X120396000Y-122428000D03*
X110236000Y-108966000D03*
X130556000Y-85090000D03*
X142748000Y-92710000D03*
X156972000Y-86868000D03*
X157988000Y-102870000D03*
X108204000Y-58420000D03*
X106172000Y-104902000D03*
X134620000Y-104902000D03*
X118364000Y-86868000D03*
X144780000Y-53340000D03*
X180340000Y-74930000D03*
X176276000Y-100838000D03*
X177292000Y-62992000D03*
X104140000Y-122428000D03*
X168148000Y-58928000D03*
X102108000Y-53340000D03*
X128524000Y-118872000D03*
X153924000Y-53340000D03*
X132588000Y-120396000D03*
X178308000Y-102870000D03*
X151892000Y-86868000D03*
X102108000Y-55372000D03*
X170180000Y-100838000D03*
X129540000Y-126492000D03*
X113284000Y-58928000D03*
X136652000Y-68834000D03*
X155956000Y-92710000D03*
X162052000Y-81026000D03*
X132588000Y-100838000D03*
X166116000Y-96774000D03*
X113284000Y-51308000D03*
X132588000Y-62992000D03*
X108204000Y-81026000D03*
X164084000Y-118872000D03*
X165100000Y-118872000D03*
X146812000Y-94742000D03*
X132588000Y-114808000D03*
X115316000Y-90932000D03*
X149860000Y-58928000D03*
X184404000Y-51308000D03*
X138684000Y-86868000D03*
X114300000Y-81026000D03*
X164084000Y-85090000D03*
X180340000Y-53340000D03*
X106172000Y-76962000D03*
X130556000Y-98806000D03*
X164084000Y-126492000D03*
X184404000Y-110998000D03*
X192532000Y-94742000D03*
X132588000Y-106934000D03*
X192532000Y-100838000D03*
X106172000Y-83058000D03*
X192532000Y-108966000D03*
X177292000Y-51308000D03*
X148336000Y-65278000D03*
X160020000Y-108966000D03*
X145542000Y-106426000D03*
X129540000Y-114808000D03*
X112268000Y-57404000D03*
X122428000Y-108966000D03*
X144780000Y-90932000D03*
X102108000Y-106934000D03*
X160020000Y-98806000D03*
X174244000Y-118872000D03*
X172212000Y-126492000D03*
X184404000Y-68834000D03*
X170180000Y-57404000D03*
X153924000Y-58928000D03*
X147828000Y-51308000D03*
X174244000Y-55372000D03*
X188468000Y-78994000D03*
X130556000Y-76962000D03*
X118364000Y-102870000D03*
X153924000Y-94742000D03*
X128524000Y-96774000D03*
X124460000Y-68834000D03*
X128524000Y-120396000D03*
X173228000Y-114808000D03*
X153416000Y-119888000D03*
X142748000Y-72898000D03*
X190500000Y-100838000D03*
X104140000Y-51308000D03*
X126492000Y-58928000D03*
X146812000Y-68834000D03*
X111252000Y-58928000D03*
X172212000Y-104902000D03*
X128524000Y-110998000D03*
X132588000Y-94742000D03*
X160020000Y-106934000D03*
X118364000Y-108966000D03*
X155956000Y-102870000D03*
X136652000Y-78994000D03*
X176276000Y-72898000D03*
X146812000Y-90932000D03*
X147828000Y-74930000D03*
X112268000Y-68834000D03*
X172212000Y-90932000D03*
X182372000Y-62992000D03*
X126492000Y-92710000D03*
X122428000Y-78994000D03*
X157988000Y-83058000D03*
X180340000Y-122428000D03*
X184404000Y-126492000D03*
X184404000Y-83058000D03*
X113284000Y-90932000D03*
X157988000Y-114808000D03*
X184404000Y-62992000D03*
X160020000Y-85090000D03*
X136652000Y-104902000D03*
X188468000Y-98806000D03*
X186436000Y-86360000D03*
X190500000Y-122428000D03*
X149860000Y-98806000D03*
X168148000Y-55372000D03*
X172212000Y-102870000D03*
X151892000Y-66802000D03*
X109220000Y-58674000D03*
X120396000Y-57404000D03*
X114300000Y-92710000D03*
X192532000Y-96774000D03*
X178308000Y-94742000D03*
X181356000Y-62992000D03*
X144780000Y-83058000D03*
X146050000Y-92221050D03*
X136652000Y-100838000D03*
X132588000Y-74930000D03*
X176276000Y-110998000D03*
X119380000Y-62992000D03*
X122428000Y-58928000D03*
D14*
X189230000Y-68580000D03*
D13*
X176276000Y-58928000D03*
X102108000Y-99822000D03*
X132588000Y-81026000D03*
X155956000Y-64770000D03*
X182372000Y-57404000D03*
X164084000Y-108966000D03*
X159004000Y-118872000D03*
X151892000Y-106934000D03*
X157988000Y-98806000D03*
X143764000Y-51308000D03*
X166116000Y-110998000D03*
X120396000Y-104902000D03*
X124460000Y-81026000D03*
X128524000Y-85090000D03*
X130556000Y-83058000D03*
X140716000Y-90932000D03*
X124460000Y-92710000D03*
X122428000Y-83058000D03*
X142748000Y-90932000D03*
X182372000Y-76962000D03*
X164084000Y-57404000D03*
X162052000Y-113030000D03*
X112268000Y-108966000D03*
X157988000Y-100838000D03*
X162052000Y-64770000D03*
X182372000Y-51308000D03*
X112268000Y-64770000D03*
X186436000Y-104902000D03*
X134620000Y-96774000D03*
X157988000Y-108966000D03*
X108204000Y-92710000D03*
X122428000Y-64770000D03*
X162052000Y-68834000D03*
X159004000Y-90932000D03*
X157988000Y-94742000D03*
X112268000Y-51308000D03*
X157988000Y-126492000D03*
X178308000Y-55372000D03*
X125476000Y-90932000D03*
X154940000Y-62992000D03*
X175260000Y-58928000D03*
X162052000Y-58928000D03*
X132588000Y-108966000D03*
X138684000Y-126492000D03*
X153924000Y-76962000D03*
X186436000Y-85090000D03*
X146812000Y-81026000D03*
X180340000Y-72898000D03*
X151892000Y-68834000D03*
X168148000Y-108966000D03*
X154940000Y-114808000D03*
X153924000Y-122428000D03*
X192532000Y-107950000D03*
X110236000Y-51308000D03*
X139700000Y-90932000D03*
X132588000Y-83058000D03*
X164084000Y-64770000D03*
X155956000Y-53340000D03*
X102108000Y-68834000D03*
X178308000Y-74930000D03*
X124460000Y-118872000D03*
X170180000Y-51308000D03*
X134620000Y-108966000D03*
X109220000Y-63246000D03*
X120396000Y-126492000D03*
X168148000Y-113030000D03*
X122428000Y-126492000D03*
X148336000Y-101854000D03*
X144780000Y-51308000D03*
X134620000Y-124460000D03*
X176276000Y-53340000D03*
X110236000Y-98806000D03*
X186436000Y-92710000D03*
X164084000Y-92710000D03*
X176276000Y-64770000D03*
X108204000Y-94742000D03*
X118364000Y-120396000D03*
X152400000Y-120142000D03*
X140716000Y-106934000D03*
X184404000Y-120396000D03*
X142748000Y-126492000D03*
X162052000Y-114808000D03*
X116332000Y-76962000D03*
X175260000Y-126492000D03*
X142748000Y-108966000D03*
X178308000Y-110998000D03*
X126492000Y-72898000D03*
X192532000Y-123444000D03*
X162052000Y-86868000D03*
X112268000Y-110998000D03*
X102108000Y-69850000D03*
X153924000Y-78994000D03*
X168148000Y-70866000D03*
X172212000Y-120396000D03*
X170180000Y-108966000D03*
X160020000Y-92710000D03*
X108204000Y-74930000D03*
X182372000Y-83058000D03*
X108204000Y-124460000D03*
X168148000Y-72898000D03*
X112268000Y-100838000D03*
X192532000Y-101854000D03*
X120396000Y-81026000D03*
X126492000Y-98806000D03*
X192532000Y-56388000D03*
X185420000Y-58674000D03*
X138684000Y-58928000D03*
X169164000Y-58928000D03*
X122428000Y-106934000D03*
X153924000Y-104902000D03*
X149098000Y-112522000D03*
X178308000Y-118872000D03*
X156972000Y-114808000D03*
X166116000Y-64770000D03*
X169164000Y-114808000D03*
X128524000Y-124460000D03*
X153924000Y-86868000D03*
X114300000Y-124460000D03*
X174244000Y-94742000D03*
X104140000Y-94742000D03*
X128524000Y-94742000D03*
X111252000Y-90932000D03*
X140716000Y-122428000D03*
X135636000Y-58928000D03*
X117348000Y-62992000D03*
X155956000Y-104902000D03*
X182372000Y-90932000D03*
X118364000Y-118872000D03*
X192532000Y-77978000D03*
X161036000Y-86868000D03*
X129540000Y-58928000D03*
X148590000Y-96031050D03*
X180340000Y-58928000D03*
X126492000Y-68834000D03*
X104140000Y-110998000D03*
X181356000Y-51308000D03*
X184404000Y-74930000D03*
X121412000Y-126492000D03*
X128524000Y-81026000D03*
X151892000Y-83058000D03*
X140716000Y-118872000D03*
X112268000Y-76962000D03*
X166116000Y-126492000D03*
X176276000Y-66802000D03*
X154940000Y-118872000D03*
X128524000Y-98806000D03*
X192532000Y-51308000D03*
X155956000Y-70866000D03*
X124460000Y-66802000D03*
X182372000Y-74930000D03*
X153924000Y-92710000D03*
X165100000Y-62992000D03*
X140716000Y-81026000D03*
X128524000Y-57404000D03*
X122428000Y-92710000D03*
X137668000Y-86868000D03*
X130556000Y-68834000D03*
X164084000Y-55372000D03*
X160020000Y-113030000D03*
X135636000Y-51308000D03*
X192532000Y-52324000D03*
X144780000Y-76962000D03*
X108204000Y-85090000D03*
X136652000Y-124460000D03*
X151892000Y-94742000D03*
X159004000Y-114808000D03*
X179324000Y-90932000D03*
X162052000Y-72898000D03*
X156972000Y-90932000D03*
X175260000Y-51308000D03*
X109220000Y-119126000D03*
X162052000Y-55372000D03*
X186436000Y-51308000D03*
X136652000Y-108966000D03*
X132588000Y-55372000D03*
X145288000Y-63754000D03*
X124460000Y-98806000D03*
X142748000Y-51308000D03*
X153924000Y-57404000D03*
X116332000Y-66802000D03*
X168148000Y-104902000D03*
X168148000Y-78994000D03*
X168148000Y-92710000D03*
X122428000Y-81026000D03*
X132588000Y-53340000D03*
X118364000Y-104902000D03*
X183388000Y-58928000D03*
X124460000Y-94742000D03*
X164084000Y-68834000D03*
X174244000Y-76962000D03*
X186436000Y-76962000D03*
X164084000Y-76962000D03*
X186436000Y-91440000D03*
X154940000Y-126492000D03*
X162052000Y-57404000D03*
X164084000Y-122428000D03*
X121412000Y-118872000D03*
X110236000Y-68834000D03*
X118364000Y-51308000D03*
X161036000Y-126492000D03*
X130556000Y-66802000D03*
X172212000Y-57404000D03*
X178308000Y-120396000D03*
X149860000Y-83058000D03*
X155956000Y-108966000D03*
X143764000Y-62992000D03*
X137668000Y-62992000D03*
X148844000Y-126492000D03*
X111252000Y-126492000D03*
X147320000Y-101854000D03*
X102108000Y-81026000D03*
X157988000Y-78994000D03*
X116332000Y-57404000D03*
X178308000Y-57404000D03*
X120396000Y-68834000D03*
X140716000Y-76962000D03*
X163068000Y-62992000D03*
X136652000Y-102870000D03*
X126492000Y-51308000D03*
X184404000Y-114808000D03*
X178308000Y-72898000D03*
X102108000Y-95758000D03*
X168148000Y-76962000D03*
X136652000Y-122428000D03*
X192532000Y-122428000D03*
X184404000Y-78994000D03*
X166116000Y-98806000D03*
X145542000Y-104394000D03*
X107188000Y-91694000D03*
X170180000Y-118872000D03*
X176276000Y-76962000D03*
X155956000Y-85090000D03*
X153924000Y-72898000D03*
X122428000Y-86868000D03*
X114300000Y-118872000D03*
X134620000Y-85090000D03*
X147828000Y-53340000D03*
X182372000Y-100838000D03*
X172212000Y-70866000D03*
X184404000Y-122428000D03*
X132588000Y-86868000D03*
X168148000Y-74930000D03*
X148844000Y-90932000D03*
X147320000Y-65278000D03*
X164084000Y-110998000D03*
X184404000Y-58928000D03*
X136652000Y-85090000D03*
X146812000Y-70866000D03*
X136652000Y-70866000D03*
X108204000Y-86360000D03*
X146812000Y-122428000D03*
X155956000Y-62992000D03*
X132588000Y-70866000D03*
X182372000Y-120396000D03*
X174244000Y-64770000D03*
X149098000Y-107442000D03*
X128524000Y-62992000D03*
X168148000Y-94742000D03*
X168148000Y-124460000D03*
X172212000Y-122428000D03*
X180340000Y-113030000D03*
X141732000Y-90932000D03*
X138684000Y-72898000D03*
X133604000Y-62992000D03*
X176276000Y-122428000D03*
X153924000Y-102870000D03*
X192532000Y-126492000D03*
X144780000Y-68834000D03*
X128524000Y-53340000D03*
X112268000Y-58928000D03*
X151892000Y-76962000D03*
X132588000Y-104902000D03*
X122428000Y-74930000D03*
X144780000Y-72898000D03*
X168148000Y-64770000D03*
X112268000Y-126492000D03*
X132588000Y-96774000D03*
X186436000Y-63500000D03*
X128524000Y-72898000D03*
X107188000Y-126492000D03*
X108204000Y-96774000D03*
X184404000Y-85090000D03*
X102108000Y-104902000D03*
X166116000Y-92710000D03*
X118364000Y-53340000D03*
X169164000Y-90932000D03*
X162052000Y-96774000D03*
X186436000Y-83058000D03*
X180340000Y-120396000D03*
X170180000Y-90932000D03*
X176276000Y-124460000D03*
X168148000Y-96774000D03*
X124460000Y-62992000D03*
X140716000Y-86868000D03*
X126492000Y-81026000D03*
X140716000Y-126492000D03*
D14*
X189230000Y-81280000D03*
D13*
X182372000Y-70866000D03*
X115316000Y-51308000D03*
X118364000Y-113030000D03*
X114300000Y-51308000D03*
X126492000Y-106934000D03*
X122428000Y-66802000D03*
X144780000Y-70866000D03*
X174244000Y-74930000D03*
X122428000Y-100838000D03*
X183388000Y-118872000D03*
X171196000Y-86868000D03*
X180340000Y-98806000D03*
X172212000Y-81026000D03*
X121412000Y-86868000D03*
X149860000Y-62992000D03*
X126492000Y-110998000D03*
X120396000Y-108966000D03*
X159004000Y-62992000D03*
X151892000Y-126492000D03*
X192532000Y-78994000D03*
X178308000Y-53340000D03*
X146812000Y-124460000D03*
X186436000Y-126492000D03*
X153924000Y-68834000D03*
X134620000Y-114808000D03*
X162052000Y-98806000D03*
X192532000Y-53340000D03*
X124460000Y-100838000D03*
X161036000Y-90932000D03*
X122428000Y-114808000D03*
X142748000Y-66802000D03*
X114300000Y-108966000D03*
X114300000Y-64770000D03*
X168148000Y-118872000D03*
X166116000Y-85090000D03*
X160020000Y-120396000D03*
X116332000Y-96774000D03*
X118364000Y-90932000D03*
X159004000Y-58928000D03*
X162052000Y-62992000D03*
X164084000Y-83058000D03*
X188468000Y-83058000D03*
X141732000Y-51308000D03*
X106172000Y-126492000D03*
X140716000Y-114808000D03*
X138684000Y-57404000D03*
D14*
X189230000Y-124460000D03*
D13*
X180340000Y-106934000D03*
X190500000Y-104902000D03*
X108204000Y-51308000D03*
X144780000Y-92710000D03*
X164084000Y-100838000D03*
X166116000Y-114808000D03*
X169164000Y-62992000D03*
X147828000Y-70866000D03*
X119380000Y-51308000D03*
X140716000Y-113030000D03*
X155956000Y-68834000D03*
X116332000Y-104902000D03*
X136652000Y-66802000D03*
X118364000Y-68834000D03*
X185420000Y-86614000D03*
X114300000Y-68834000D03*
X149860000Y-122428000D03*
X126492000Y-70866000D03*
X188468000Y-126492000D03*
X182372000Y-53340000D03*
X151892000Y-64770000D03*
X138684000Y-90932000D03*
X110236000Y-83058000D03*
X146812000Y-126492000D03*
X132588000Y-126492000D03*
X144780000Y-58928000D03*
X176276000Y-118872000D03*
X102108000Y-78994000D03*
X181356000Y-118872000D03*
X180340000Y-62992000D03*
X156972000Y-118872000D03*
X122428000Y-118872000D03*
X162052000Y-90932000D03*
X118364000Y-57404000D03*
X139700000Y-58928000D03*
X168148000Y-100838000D03*
X156972000Y-51308000D03*
X112268000Y-90932000D03*
X157988000Y-110998000D03*
X114300000Y-114808000D03*
X162052000Y-94742000D03*
X129540000Y-51308000D03*
X116332000Y-64770000D03*
X174244000Y-72898000D03*
X160020000Y-68834000D03*
X134620000Y-106934000D03*
X186436000Y-98806000D03*
X173228000Y-118872000D03*
X130556000Y-96774000D03*
X175260000Y-90932000D03*
X192532000Y-105918000D03*
X146812000Y-100838000D03*
X192532000Y-68834000D03*
X170180000Y-70866000D03*
X137668000Y-118872000D03*
X116332000Y-114808000D03*
X162052000Y-104902000D03*
X178308000Y-70866000D03*
X180340000Y-94742000D03*
X164084000Y-51308000D03*
X138684000Y-62992000D03*
X112268000Y-94742000D03*
X191516000Y-126492000D03*
X144272000Y-113538000D03*
X155956000Y-57404000D03*
X171196000Y-58928000D03*
X125476000Y-118872000D03*
X170180000Y-96774000D03*
X141732000Y-62992000D03*
X176276000Y-90932000D03*
X139700000Y-62992000D03*
X157988000Y-68834000D03*
X120396000Y-113030000D03*
X102108000Y-80010000D03*
X147828000Y-100838000D03*
X168148000Y-81026000D03*
X110236000Y-53340000D03*
X105156000Y-51308000D03*
X147320000Y-120142000D03*
X150876000Y-86868000D03*
X174244000Y-58928000D03*
X107188000Y-119634000D03*
X150876000Y-126492000D03*
X162052000Y-92710000D03*
X165100000Y-90932000D03*
X176276000Y-113030000D03*
X102108000Y-109982000D03*
X192532000Y-112014000D03*
X130556000Y-100838000D03*
X118364000Y-64770000D03*
X132588000Y-122428000D03*
X103124000Y-51308000D03*
X152908000Y-86868000D03*
X130556000Y-57404000D03*
X114300000Y-74930000D03*
X149860000Y-86868000D03*
X104140000Y-78994000D03*
X112268000Y-124460000D03*
X140716000Y-68834000D03*
X190500000Y-102870000D03*
X153924000Y-126492000D03*
X118364000Y-92710000D03*
X102108000Y-52324000D03*
X126492000Y-74930000D03*
X119380000Y-58928000D03*
X104140000Y-83058000D03*
X180340000Y-66802000D03*
X186436000Y-96774000D03*
X124460000Y-96774000D03*
X164084000Y-78994000D03*
X149098000Y-106426000D03*
X134620000Y-57404000D03*
X140716000Y-62992000D03*
X130556000Y-120396000D03*
X164084000Y-70866000D03*
X102108000Y-108966000D03*
X135636000Y-62992000D03*
X125476000Y-58928000D03*
X114300000Y-120396000D03*
X164084000Y-102870000D03*
X172212000Y-100838000D03*
X180340000Y-124460000D03*
X102108000Y-73914000D03*
X128524000Y-68834000D03*
X192532000Y-104902000D03*
X132588000Y-68834000D03*
X176276000Y-55372000D03*
X176276000Y-120396000D03*
X170180000Y-81026000D03*
X162052000Y-70866000D03*
X167132000Y-58928000D03*
X104140000Y-126492000D03*
X188468000Y-51308000D03*
X149860000Y-53340000D03*
X150368000Y-120142000D03*
X149860000Y-66802000D03*
X160020000Y-114808000D03*
X180340000Y-51308000D03*
X123444000Y-90932000D03*
X151892000Y-74930000D03*
X102108000Y-71882000D03*
X108204000Y-70866000D03*
X168148000Y-126492000D03*
X178308000Y-92710000D03*
D14*
X105410000Y-68580000D03*
D13*
X153924000Y-118872000D03*
X108204000Y-119380000D03*
X192532000Y-109982000D03*
X184404000Y-98806000D03*
X126492000Y-64770000D03*
X123444000Y-118872000D03*
X170180000Y-74930000D03*
X127508000Y-90932000D03*
X177292000Y-118872000D03*
X164084000Y-58928000D03*
X180340000Y-92710000D03*
X172212000Y-74930000D03*
X192532000Y-72898000D03*
X127508000Y-62992000D03*
X157988000Y-122428000D03*
X180340000Y-100838000D03*
X102108000Y-75946000D03*
X192532000Y-121412000D03*
X192532000Y-102870000D03*
X120396000Y-120396000D03*
X172212000Y-114808000D03*
X121412000Y-58928000D03*
X108204000Y-104902000D03*
X124460000Y-72898000D03*
X136652000Y-57404000D03*
X136652000Y-118872000D03*
X170180000Y-110998000D03*
X119380000Y-90932000D03*
X157988000Y-113030000D03*
X190500000Y-76962000D03*
X110236000Y-110998000D03*
X142748000Y-74930000D03*
X116332000Y-58928000D03*
X128524000Y-92710000D03*
X126492000Y-102870000D03*
X131572000Y-86868000D03*
X145288000Y-64770000D03*
X188468000Y-102870000D03*
X145796000Y-51308000D03*
X172212000Y-85090000D03*
X104140000Y-104902000D03*
X159004000Y-126492000D03*
X111252000Y-118872000D03*
X160020000Y-96774000D03*
X135636000Y-118872000D03*
X172212000Y-92710000D03*
X140716000Y-53340000D03*
X164084000Y-98806000D03*
X122428000Y-85090000D03*
X192532000Y-124460000D03*
X190500000Y-74930000D03*
X142748000Y-70866000D03*
X152908000Y-51308000D03*
X168148000Y-120396000D03*
X148844000Y-51308000D03*
X192532000Y-99822000D03*
X149860000Y-124460000D03*
X182372000Y-102870000D03*
X145542000Y-107442000D03*
X140716000Y-72898000D03*
X120396000Y-110998000D03*
X130556000Y-122428000D03*
X124460000Y-53340000D03*
X112268000Y-118872000D03*
X117348000Y-90932000D03*
X170180000Y-53340000D03*
X112268000Y-106934000D03*
X165100000Y-51308000D03*
X151892000Y-51308000D03*
X108204000Y-91440000D03*
X108204000Y-68834000D03*
X184404000Y-94742000D03*
X128524000Y-108966000D03*
X185420000Y-91186000D03*
X148336000Y-120142000D03*
X122428000Y-68834000D03*
X174244000Y-110998000D03*
X184404000Y-100838000D03*
X145542000Y-111506000D03*
X136652000Y-96774000D03*
X132588000Y-51308000D03*
X168148000Y-114808000D03*
X172212000Y-58928000D03*
X142748000Y-106934000D03*
X168148000Y-86868000D03*
X142240000Y-113538000D03*
X143256000Y-120142000D03*
X141732000Y-126492000D03*
X163068000Y-58928000D03*
X110236000Y-70866000D03*
X187452000Y-58166000D03*
X153416000Y-113792000D03*
X106172000Y-98806000D03*
X113284000Y-114808000D03*
X122428000Y-96774000D03*
X147828000Y-98806000D03*
X188468000Y-76962000D03*
X136652000Y-51308000D03*
X116332000Y-126492000D03*
X146304000Y-65278000D03*
X117348000Y-86868000D03*
X180340000Y-126492000D03*
X166116000Y-90932000D03*
X157988000Y-64770000D03*
X132588000Y-113030000D03*
X126492000Y-83058000D03*
X178308000Y-76962000D03*
X112268000Y-85090000D03*
X124460000Y-104902000D03*
X192532000Y-67818000D03*
X116332000Y-81026000D03*
X109220000Y-126492000D03*
X110236000Y-118872000D03*
X130556000Y-126492000D03*
X186436000Y-120396000D03*
X178308000Y-64770000D03*
X192532000Y-66802000D03*
X149860000Y-68834000D03*
X117348000Y-58928000D03*
X144780000Y-122428000D03*
X176276000Y-62992000D03*
X180340000Y-110998000D03*
X140716000Y-92710000D03*
X120396000Y-106934000D03*
X186436000Y-72898000D03*
X182372000Y-108966000D03*
X146812000Y-51308000D03*
X188468000Y-100838000D03*
X104140000Y-66802000D03*
X160020000Y-90932000D03*
X163068000Y-90932000D03*
X112268000Y-72898000D03*
X172212000Y-66802000D03*
X172212000Y-94742000D03*
X182372000Y-64770000D03*
X149860000Y-126492000D03*
X126492000Y-86868000D03*
X127508000Y-58928000D03*
X147828000Y-90932000D03*
X110236000Y-66802000D03*
X184404000Y-96774000D03*
X124460000Y-90932000D03*
X157988000Y-72898000D03*
X109220000Y-114554000D03*
X130556000Y-94742000D03*
X134620000Y-110998000D03*
X172212000Y-98806000D03*
X138684000Y-118872000D03*
X134620000Y-51308000D03*
X142748000Y-86868000D03*
X172212000Y-108966000D03*
X180340000Y-96774000D03*
X104140000Y-70866000D03*
X178308000Y-108966000D03*
X133604000Y-51308000D03*
X102108000Y-54356000D03*
X144780000Y-85090000D03*
X130556000Y-102870000D03*
X114300000Y-86868000D03*
X166116000Y-118872000D03*
X147320000Y-90170000D03*
X111252000Y-114808000D03*
X116332000Y-120396000D03*
X124460000Y-51308000D03*
X145288000Y-58166000D03*
X130556000Y-113030000D03*
X170180000Y-124460000D03*
X119380000Y-118872000D03*
X108204000Y-63500000D03*
X116332000Y-110998000D03*
X160020000Y-124460000D03*
X186436000Y-113030000D03*
X118364000Y-83058000D03*
X128524000Y-70866000D03*
X175260000Y-118872000D03*
X126492000Y-113030000D03*
X166116000Y-70866000D03*
X147828000Y-122428000D03*
X127508000Y-118872000D03*
X124460000Y-76962000D03*
X116332000Y-108966000D03*
X149098000Y-111506000D03*
X168148000Y-83058000D03*
X173228000Y-51308000D03*
X174244000Y-126492000D03*
X144780000Y-124460000D03*
X128524000Y-106934000D03*
X122428000Y-98806000D03*
X169164000Y-51308000D03*
X186436000Y-53340000D03*
X126492000Y-94742000D03*
X140716000Y-96774000D03*
X140716000Y-51308000D03*
X108204000Y-78994000D03*
X192532000Y-93726000D03*
X176276000Y-70866000D03*
X131572000Y-126492000D03*
X114300000Y-110998000D03*
X162052000Y-53340000D03*
X175260000Y-86868000D03*
X182372000Y-81026000D03*
X163068000Y-126492000D03*
X104140000Y-55372000D03*
X136652000Y-113030000D03*
X140716000Y-124460000D03*
X184404000Y-118872000D03*
X130556000Y-55372000D03*
X190500000Y-110998000D03*
X102108000Y-121412000D03*
X157988000Y-104902000D03*
X160020000Y-51308000D03*
X178308000Y-66802000D03*
X151892000Y-78994000D03*
X124460000Y-64770000D03*
X117348000Y-126492000D03*
X110236000Y-78994000D03*
X126492000Y-108966000D03*
X112268000Y-66802000D03*
X114300000Y-102870000D03*
X166116000Y-58928000D03*
X139700000Y-51308000D03*
X185420000Y-51308000D03*
X102108000Y-126492000D03*
X150876000Y-58928000D03*
X130556000Y-110998000D03*
X144780000Y-55372000D03*
X114300000Y-62992000D03*
X122428000Y-90932000D03*
X130556000Y-53340000D03*
X134620000Y-58928000D03*
X157988000Y-58928000D03*
X154940000Y-90932000D03*
D14*
X105410000Y-96520000D03*
D13*
X186436000Y-124460000D03*
X146304000Y-101854000D03*
X142748000Y-104902000D03*
X122428000Y-120396000D03*
X139700000Y-118872000D03*
X119380000Y-114808000D03*
X122428000Y-70866000D03*
X118364000Y-94742000D03*
X128524000Y-122428000D03*
X166116000Y-53340000D03*
X124460000Y-126492000D03*
X171196000Y-51308000D03*
X192532000Y-83058000D03*
X182372000Y-114808000D03*
X102108000Y-103886000D03*
X118364000Y-58928000D03*
X172212000Y-62992000D03*
X192532000Y-70866000D03*
X150368000Y-113538000D03*
X164084000Y-53340000D03*
X114300000Y-57404000D03*
X148590000Y-94761050D03*
X174244000Y-122428000D03*
X163068000Y-118872000D03*
X160020000Y-83058000D03*
X157988000Y-85090000D03*
X142748000Y-102870000D03*
X116332000Y-94742000D03*
X126492000Y-100838000D03*
X147828000Y-66802000D03*
X128524000Y-104902000D03*
X120396000Y-70866000D03*
X172212000Y-83058000D03*
X134620000Y-81026000D03*
X155956000Y-110998000D03*
X116332000Y-68834000D03*
X174244000Y-62992000D03*
X142748000Y-68834000D03*
X190500000Y-55372000D03*
X164084000Y-90932000D03*
X181356000Y-58928000D03*
X107188000Y-58166000D03*
X112268000Y-92710000D03*
X117348000Y-114808000D03*
X162052000Y-83058000D03*
X132588000Y-118872000D03*
X157988000Y-53340000D03*
X188468000Y-55372000D03*
X149860000Y-85090000D03*
X133604000Y-58928000D03*
X112268000Y-81026000D03*
X135636000Y-114808000D03*
X151892000Y-96774000D03*
X125476000Y-114808000D03*
X122428000Y-55372000D03*
X169164000Y-118872000D03*
X168148000Y-51308000D03*
X151384000Y-113538000D03*
X129540000Y-90932000D03*
X120396000Y-58928000D03*
X127508000Y-51308000D03*
X180340000Y-102870000D03*
X188468000Y-70866000D03*
X175260000Y-62992000D03*
X174244000Y-53340000D03*
X116332000Y-72898000D03*
X176276000Y-68834000D03*
X134620000Y-98806000D03*
X126492000Y-85090000D03*
X146812000Y-76962000D03*
X137668000Y-126492000D03*
X102108000Y-122428000D03*
X138684000Y-55372000D03*
X130556000Y-92710000D03*
X114300000Y-83058000D03*
X114300000Y-104902000D03*
X176276000Y-51308000D03*
X159004000Y-86868000D03*
X186436000Y-66802000D03*
X164084000Y-120396000D03*
X114300000Y-100838000D03*
X138684000Y-113030000D03*
X183388000Y-90932000D03*
X154940000Y-51308000D03*
X137668000Y-58928000D03*
X174244000Y-114808000D03*
X142240000Y-120142000D03*
X128524000Y-58928000D03*
X155956000Y-98806000D03*
X155956000Y-122428000D03*
X138684000Y-83058000D03*
X178308000Y-96774000D03*
X180340000Y-81026000D03*
X145542000Y-109474000D03*
X151892000Y-72898000D03*
X145796000Y-90932000D03*
X161036000Y-118872000D03*
X186436000Y-102870000D03*
X128524000Y-66802000D03*
X178308000Y-124460000D03*
X172212000Y-113030000D03*
X174244000Y-86868000D03*
X136652000Y-83058000D03*
X134620000Y-78994000D03*
X192532000Y-125476000D03*
X142748000Y-76962000D03*
X110236000Y-94742000D03*
X172212000Y-86868000D03*
X160020000Y-62992000D03*
X110236000Y-76962000D03*
X151892000Y-70866000D03*
X134620000Y-62992000D03*
X108204000Y-57404000D03*
X186436000Y-108966000D03*
X149860000Y-72898000D03*
X155956000Y-124460000D03*
X112268000Y-114808000D03*
X119380000Y-126492000D03*
X138684000Y-94742000D03*
X128524000Y-64770000D03*
X111252000Y-51308000D03*
X120396000Y-90932000D03*
X177292000Y-126492000D03*
X116332000Y-98806000D03*
X106172000Y-72898000D03*
X128524000Y-55372000D03*
X176276000Y-86868000D03*
X184404000Y-55372000D03*
X187452000Y-91694000D03*
X164084000Y-114808000D03*
X161036000Y-58928000D03*
X118364000Y-66802000D03*
X139700000Y-126492000D03*
D14*
X189230000Y-109220000D03*
D13*
X183388000Y-126492000D03*
X149098000Y-109474000D03*
X138684000Y-64770000D03*
X114300000Y-53340000D03*
X122428000Y-122428000D03*
X173228000Y-90932000D03*
X138684000Y-114808000D03*
X122428000Y-110998000D03*
X174244000Y-78994000D03*
X102108000Y-96774000D03*
X186436000Y-122428000D03*
X176276000Y-81026000D03*
X138684000Y-106934000D03*
X110236000Y-114808000D03*
X160020000Y-66802000D03*
X134620000Y-122428000D03*
X155956000Y-94742000D03*
X187452000Y-114046000D03*
X160020000Y-126492000D03*
X176276000Y-94742000D03*
X186436000Y-110998000D03*
X152404676Y-113526658D03*
X179324000Y-114808000D03*
X117348000Y-118872000D03*
X186436000Y-58420000D03*
X138684000Y-124460000D03*
X138684000Y-74930000D03*
X124460000Y-58928000D03*
X153924000Y-90932000D03*
X149352000Y-64770000D03*
X184404000Y-70866000D03*
X132588000Y-90932000D03*
X149098000Y-102362000D03*
X180340000Y-64770000D03*
X147828000Y-83058000D03*
X164084000Y-81026000D03*
X166116000Y-122428000D03*
X189484000Y-51308000D03*
X178308000Y-86868000D03*
X102108000Y-107950000D03*
X102108000Y-112014000D03*
X170180000Y-113030000D03*
X132588000Y-124460000D03*
X149098000Y-108458000D03*
X151892000Y-85090000D03*
X162052000Y-102870000D03*
X118364000Y-55372000D03*
X153924000Y-114808000D03*
X168148000Y-62992000D03*
X170180000Y-62992000D03*
X142748000Y-55372000D03*
X110236000Y-92710000D03*
X138684000Y-100838000D03*
X190500000Y-98806000D03*
X128524000Y-76962000D03*
X174244000Y-85090000D03*
X106172000Y-100838000D03*
X112268000Y-83058000D03*
X115316000Y-126492000D03*
X168148000Y-98806000D03*
X120396000Y-53340000D03*
X178308000Y-98806000D03*
X174244000Y-81026000D03*
X112268000Y-86868000D03*
X151892000Y-122428000D03*
X151892000Y-110998000D03*
X180340000Y-90932000D03*
X120396000Y-92710000D03*
X155956000Y-120396000D03*
X169164000Y-86868000D03*
X149860000Y-81026000D03*
X126492000Y-114808000D03*
X172212000Y-106934000D03*
X176276000Y-98806000D03*
X128524000Y-51308000D03*
X124460000Y-108966000D03*
X137668000Y-114808000D03*
X133604000Y-118872000D03*
X160020000Y-86868000D03*
X190500000Y-78994000D03*
X153924000Y-96774000D03*
X116332000Y-100838000D03*
X176276000Y-106934000D03*
X177292000Y-58928000D03*
X189484000Y-126492000D03*
X134620000Y-126492000D03*
X182372000Y-78994000D03*
X155956000Y-51308000D03*
X136652000Y-86868000D03*
X146812000Y-74930000D03*
X192532000Y-73914000D03*
X138684000Y-68834000D03*
X112268000Y-120396000D03*
X126492000Y-124460000D03*
X166116000Y-86868000D03*
X134620000Y-102870000D03*
X108204000Y-72898000D03*
X130556000Y-124460000D03*
X147828000Y-55372000D03*
X102108000Y-110998000D03*
X118364000Y-74930000D03*
X162052000Y-124460000D03*
X160020000Y-58928000D03*
X116332000Y-106934000D03*
X190500000Y-94742000D03*
X149860000Y-78994000D03*
X129540000Y-86868000D03*
X134620000Y-55372000D03*
X110236000Y-72898000D03*
X172212000Y-51308000D03*
X170180000Y-106934000D03*
X180340000Y-57404000D03*
X133604000Y-86868000D03*
X102108000Y-56388000D03*
X126492000Y-62992000D03*
X184404000Y-90932000D03*
X150876000Y-62992000D03*
X120396000Y-94742000D03*
X112268000Y-102870000D03*
X122428000Y-53340000D03*
X145542000Y-105410000D03*
X144780000Y-126492000D03*
X128524000Y-102870000D03*
X173228000Y-58928000D03*
X180340000Y-114808000D03*
X135636000Y-126492000D03*
X168148000Y-66802000D03*
X142748000Y-57404000D03*
X166116000Y-55372000D03*
X121412000Y-51308000D03*
X118364000Y-72898000D03*
X174244000Y-90932000D03*
X168148000Y-122428000D03*
X110236000Y-113030000D03*
X151892000Y-100838000D03*
X133604000Y-114808000D03*
X143256000Y-113538000D03*
X112268000Y-53340000D03*
X179324000Y-118872000D03*
X145542000Y-113538000D03*
X192532000Y-71882000D03*
X122428000Y-76962000D03*
X187452000Y-86106000D03*
X116332000Y-92710000D03*
X162052000Y-126492000D03*
X128524000Y-83058000D03*
X146812000Y-83058000D03*
X147828000Y-126492000D03*
X178308000Y-113030000D03*
X151892000Y-92710000D03*
X178308000Y-51308000D03*
X124460000Y-74930000D03*
X106172000Y-102870000D03*
X186436000Y-55372000D03*
X104140000Y-102870000D03*
X108204000Y-66802000D03*
X183388000Y-51308000D03*
X166116000Y-102870000D03*
X116332000Y-53340000D03*
X142748000Y-62992000D03*
X157988000Y-55372000D03*
X108204000Y-55372000D03*
X130556000Y-74930000D03*
X140716000Y-57404000D03*
X110236000Y-55372000D03*
X192532000Y-103886000D03*
X178308000Y-83058000D03*
X182372000Y-86868000D03*
X160020000Y-100838000D03*
X137668000Y-51308000D03*
X166116000Y-68834000D03*
X170180000Y-122428000D03*
X153924000Y-85090000D03*
X136652000Y-90932000D03*
X178308000Y-104902000D03*
X153924000Y-81026000D03*
X138684000Y-70866000D03*
X117348000Y-51308000D03*
X155956000Y-118872000D03*
X107188000Y-51308000D03*
X120396000Y-102870000D03*
X157988000Y-118872000D03*
X155956000Y-76962000D03*
X180340000Y-68834000D03*
X165100000Y-114808000D03*
X171196000Y-114808000D03*
X132588000Y-57404000D03*
X102108000Y-124460000D03*
X102108000Y-123444000D03*
X166116000Y-113030000D03*
X138684000Y-51308000D03*
X180340000Y-83058000D03*
X185420000Y-126492000D03*
X136652000Y-55372000D03*
X107188000Y-86106000D03*
X144780000Y-78994000D03*
X176276000Y-74930000D03*
X120396000Y-85090000D03*
X192532000Y-76962000D03*
X162052000Y-100838000D03*
X124460000Y-70866000D03*
X147828000Y-78994000D03*
X164084000Y-66802000D03*
X106172000Y-74930000D03*
X178308000Y-114808000D03*
X155956000Y-78994000D03*
X130556000Y-78994000D03*
X176276000Y-96774000D03*
X148590000Y-93491050D03*
X162052000Y-85090000D03*
X114300000Y-76962000D03*
X126492000Y-57404000D03*
X140716000Y-94742000D03*
X144780000Y-81026000D03*
X166116000Y-100838000D03*
X188468000Y-106934000D03*
X138684000Y-104902000D03*
X174244000Y-113030000D03*
X180340000Y-108966000D03*
X122428000Y-104902000D03*
X138684000Y-85090000D03*
X162052000Y-51308000D03*
X184404000Y-106934000D03*
X130556000Y-64770000D03*
X128524000Y-74930000D03*
X160020000Y-78994000D03*
X155956000Y-113030000D03*
X153924000Y-64770000D03*
X120396000Y-98806000D03*
X108204000Y-98806000D03*
X135636000Y-86868000D03*
X186436000Y-114300000D03*
X183388000Y-114808000D03*
X188468000Y-72898000D03*
X116332000Y-86868000D03*
X190500000Y-66802000D03*
X134620000Y-83058000D03*
X136652000Y-92710000D03*
X162052000Y-74930000D03*
X112268000Y-78994000D03*
X152908000Y-126492000D03*
X106172000Y-66802000D03*
X151892000Y-102870000D03*
X174244000Y-68834000D03*
X157988000Y-51308000D03*
X112268000Y-96774000D03*
X181356000Y-114808000D03*
X182372000Y-124460000D03*
X182372000Y-55372000D03*
X180340000Y-86868000D03*
X182372000Y-96774000D03*
X118364000Y-96774000D03*
X166116000Y-62992000D03*
X160020000Y-81026000D03*
X172212000Y-55372000D03*
X164084000Y-86868000D03*
X102108000Y-94742000D03*
X167132000Y-62992000D03*
X108204000Y-83058000D03*
X186436000Y-78994000D03*
X130556000Y-51308000D03*
X172212000Y-64770000D03*
X146812000Y-55372000D03*
X160020000Y-94742000D03*
X114300000Y-106934000D03*
X192532000Y-81026000D03*
X133604000Y-126492000D03*
X151892000Y-57404000D03*
X170180000Y-55372000D03*
X181356000Y-90932000D03*
X172212000Y-68834000D03*
X149352000Y-58166000D03*
X112268000Y-104902000D03*
X180340000Y-55372000D03*
X147828000Y-68834000D03*
X148336000Y-56642000D03*
X157988000Y-66802000D03*
X160020000Y-53340000D03*
X102108000Y-65786000D03*
X174244000Y-102870000D03*
X190500000Y-126492000D03*
X162052000Y-118872000D03*
X110236000Y-102870000D03*
X190500000Y-51308000D03*
X188468000Y-74930000D03*
X166116000Y-51308000D03*
X170180000Y-98806000D03*
X116332000Y-74930000D03*
X123444000Y-51308000D03*
X130556000Y-118872000D03*
X102108000Y-83058000D03*
X116332000Y-124460000D03*
X138684000Y-102870000D03*
X190500000Y-83058000D03*
X118364000Y-106934000D03*
X116332000Y-83058000D03*
X155956000Y-90932000D03*
X166116000Y-76962000D03*
X104140000Y-74930000D03*
X124460000Y-86868000D03*
X170180000Y-72898000D03*
X168148000Y-68834000D03*
X121412000Y-62992000D03*
X125476000Y-86868000D03*
X192532000Y-55372000D03*
X116332000Y-118872000D03*
X134620000Y-120396000D03*
X170180000Y-64770000D03*
X149098000Y-104394000D03*
X105156000Y-126492000D03*
X110236000Y-120396000D03*
X102108000Y-93726000D03*
X176276000Y-78994000D03*
X127508000Y-126492000D03*
X119380000Y-86868000D03*
X168148000Y-90932000D03*
X140716000Y-64770000D03*
X182372000Y-92710000D03*
X134620000Y-76962000D03*
X178308000Y-62992000D03*
X136652000Y-81026000D03*
X140716000Y-55372000D03*
X140716000Y-58928000D03*
X168148000Y-106934000D03*
X102108000Y-84074000D03*
X124460000Y-83058000D03*
X126492000Y-90932000D03*
X174244000Y-100838000D03*
X166116000Y-66802000D03*
X185420000Y-114554000D03*
X174244000Y-92710000D03*
X166116000Y-124460000D03*
X120396000Y-86868000D03*
X149860000Y-70866000D03*
X102108000Y-97790000D03*
X134620000Y-72898000D03*
X140716000Y-100838000D03*
X171196000Y-126492000D03*
X153924000Y-83058000D03*
X168148000Y-110998000D03*
X164084000Y-124460000D03*
X109220000Y-86614000D03*
X118364000Y-98806000D03*
X192532000Y-97790000D03*
X153924000Y-70866000D03*
X170180000Y-86868000D03*
X130556000Y-70866000D03*
X182372000Y-106934000D03*
X120396000Y-83058000D03*
X155956000Y-96774000D03*
X145542000Y-112522000D03*
X160020000Y-70866000D03*
X140716000Y-85090000D03*
X192532000Y-80010000D03*
X113284000Y-86868000D03*
X171196000Y-118872000D03*
X151892000Y-124460000D03*
X154940000Y-86868000D03*
X140716000Y-98806000D03*
X120396000Y-78994000D03*
X166116000Y-78994000D03*
X134620000Y-70866000D03*
X182372000Y-94742000D03*
X168148000Y-85090000D03*
X155956000Y-72898000D03*
X108204000Y-64770000D03*
X144780000Y-74930000D03*
X180340000Y-85090000D03*
X136652000Y-126492000D03*
X138684000Y-66802000D03*
X140716000Y-83058000D03*
X112268000Y-98806000D03*
X182372000Y-72898000D03*
X152908000Y-62992000D03*
X151892000Y-90932000D03*
X155956000Y-81026000D03*
X147828000Y-124460000D03*
X188468000Y-104902000D03*
X136652000Y-72898000D03*
X108204000Y-120396000D03*
X118364000Y-110998000D03*
X157988000Y-92710000D03*
X104140000Y-98806000D03*
X182372000Y-118872000D03*
X149352000Y-57150000D03*
X130556000Y-104902000D03*
X155956000Y-55372000D03*
X186436000Y-94742000D03*
X122428000Y-57404000D03*
X168148000Y-57404000D03*
X151892000Y-98806000D03*
X132588000Y-76962000D03*
X172212000Y-76962000D03*
X192532000Y-54356000D03*
X166116000Y-72898000D03*
X162052000Y-66802000D03*
X111252000Y-86868000D03*
X126492000Y-76962000D03*
X120396000Y-66802000D03*
X144780000Y-94742000D03*
X144780000Y-98806000D03*
X144780000Y-100838000D03*
X142748000Y-96012000D03*
X142748000Y-99060000D03*
X142748000Y-101092000D03*
%TD*%
%TA.AperFunction,Conductor*%
%TO.N,GND*%
G36*
X192931901Y-50897265D02*
G01*
X192961965Y-50949336D01*
X192963300Y-50964600D01*
X192963300Y-126835400D01*
X192942735Y-126891901D01*
X192890664Y-126921965D01*
X192875400Y-126923300D01*
X101764600Y-126923300D01*
X101708099Y-126902735D01*
X101678035Y-126850664D01*
X101676700Y-126835400D01*
X101676700Y-50964600D01*
X101697265Y-50908099D01*
X101749336Y-50878035D01*
X101764600Y-50876700D01*
X192875400Y-50876700D01*
X192931901Y-50897265D01*
G37*
%TD.AperFunction*%
%TD*%
M02*
