%TF.GenerationSoftware,KiCad,Pcbnew,8.0.4*%
%TF.CreationDate,2024-08-26T14:53:49-04:00*%
%TF.ProjectId,S-Band_1W_R1,532d4261-6e64-45f3-9157-5f52312e6b69,0*%
%TF.SameCoordinates,Original*%
%TF.FileFunction,Soldermask,Top*%
%TF.FilePolarity,Negative*%
%FSLAX46Y46*%
G04 Gerber Fmt 4.6, Leading zero omitted, Abs format (unit mm)*
G04 Created by KiCad (PCBNEW 8.0.4) date 2024-08-26 14:53:49*
%MOMM*%
%LPD*%
G01*
G04 APERTURE LIST*
G04 Aperture macros list*
%AMRoundRect*
0 Rectangle with rounded corners*
0 $1 Rounding radius*
0 $2 $3 $4 $5 $6 $7 $8 $9 X,Y pos of 4 corners*
0 Add a 4 corners polygon primitive as box body*
4,1,4,$2,$3,$4,$5,$6,$7,$8,$9,$2,$3,0*
0 Add four circle primitives for the rounded corners*
1,1,$1+$1,$2,$3*
1,1,$1+$1,$4,$5*
1,1,$1+$1,$6,$7*
1,1,$1+$1,$8,$9*
0 Add four rect primitives between the rounded corners*
20,1,$1+$1,$2,$3,$4,$5,0*
20,1,$1+$1,$4,$5,$6,$7,0*
20,1,$1+$1,$6,$7,$8,$9,0*
20,1,$1+$1,$8,$9,$2,$3,0*%
G04 Aperture macros list end*
%ADD10C,1.905000*%
%ADD11C,0.000000*%
%ADD12C,0.050800*%
%ADD13C,0.010000*%
%ADD14C,0.787400*%
%ADD15RoundRect,0.076200X2.286000X0.508000X-2.286000X0.508000X-2.286000X-0.508000X2.286000X-0.508000X0*%
%ADD16RoundRect,0.076200X2.286000X0.431800X-2.286000X0.431800X-2.286000X-0.431800X2.286000X-0.431800X0*%
%ADD17RoundRect,0.076200X-2.286000X-0.508000X2.286000X-0.508000X2.286000X0.508000X-2.286000X0.508000X0*%
%ADD18RoundRect,0.076200X-2.286000X-0.431800X2.286000X-0.431800X2.286000X0.431800X-2.286000X0.431800X0*%
%ADD19RoundRect,0.102000X-0.355600X-0.749300X0.355600X-0.749300X0.355600X0.749300X-0.355600X0.749300X0*%
%ADD20RoundRect,0.101600X1.016000X-0.635000X1.016000X0.635000X-1.016000X0.635000X-1.016000X-0.635000X0*%
%ADD21RoundRect,0.076200X-1.149473X-0.592697X-0.592697X-1.149473X1.149473X0.592697X0.592697X1.149473X0*%
%ADD22RoundRect,0.076200X-0.508000X-0.698500X0.508000X-0.698500X0.508000X0.698500X-0.508000X0.698500X0*%
%ADD23RoundRect,0.076200X0.406400X0.469900X-0.406400X0.469900X-0.406400X-0.469900X0.406400X-0.469900X0*%
%ADD24RoundRect,0.076200X-0.254000X-0.330200X0.254000X-0.330200X0.254000X0.330200X-0.254000X0.330200X0*%
%ADD25RoundRect,0.076200X-0.330200X-0.457200X0.330200X-0.457200X0.330200X0.457200X-0.330200X0.457200X0*%
%ADD26RoundRect,0.076200X0.279400X-3.175000X0.279400X3.175000X-0.279400X3.175000X-0.279400X-3.175000X0*%
%ADD27RoundRect,0.076200X0.330200X-0.254000X0.330200X0.254000X-0.330200X0.254000X-0.330200X-0.254000X0*%
%ADD28RoundRect,0.076200X-0.457200X0.330200X-0.457200X-0.330200X0.457200X-0.330200X0.457200X0.330200X0*%
%ADD29RoundRect,0.076200X0.330200X0.457200X-0.330200X0.457200X-0.330200X-0.457200X0.330200X-0.457200X0*%
%ADD30RoundRect,0.076200X-0.330200X0.254000X-0.330200X-0.254000X0.330200X-0.254000X0.330200X0.254000X0*%
%ADD31RoundRect,0.076200X0.457200X-0.330200X0.457200X0.330200X-0.457200X0.330200X-0.457200X-0.330200X0*%
G04 APERTURE END LIST*
D10*
X106362500Y-124460000D02*
G75*
G02*
X104457500Y-124460000I-952500J0D01*
G01*
X104457500Y-124460000D02*
G75*
G02*
X106362500Y-124460000I952500J0D01*
G01*
X190182500Y-124460000D02*
G75*
G02*
X188277500Y-124460000I-952500J0D01*
G01*
X188277500Y-124460000D02*
G75*
G02*
X190182500Y-124460000I952500J0D01*
G01*
X106362500Y-96520000D02*
G75*
G02*
X104457500Y-96520000I-952500J0D01*
G01*
X104457500Y-96520000D02*
G75*
G02*
X106362500Y-96520000I952500J0D01*
G01*
G36*
X141732000Y-114300000D02*
G01*
X152908000Y-114300000D01*
X152908000Y-119380000D01*
X141732000Y-119380000D01*
X141732000Y-114300000D01*
G37*
X190182500Y-109220000D02*
G75*
G02*
X188277500Y-109220000I-952500J0D01*
G01*
X188277500Y-109220000D02*
G75*
G02*
X190182500Y-109220000I952500J0D01*
G01*
X190182500Y-96520000D02*
G75*
G02*
X188277500Y-96520000I-952500J0D01*
G01*
X188277500Y-96520000D02*
G75*
G02*
X190182500Y-96520000I952500J0D01*
G01*
D11*
G36*
X109728000Y-115417600D02*
G01*
X109728000Y-118262400D01*
X106248200Y-119100600D01*
X106248200Y-114579400D01*
X109728000Y-115417600D01*
G37*
D10*
X190182500Y-68580000D02*
G75*
G02*
X188277500Y-68580000I-952500J0D01*
G01*
X188277500Y-68580000D02*
G75*
G02*
X190182500Y-68580000I952500J0D01*
G01*
X190182500Y-53340000D02*
G75*
G02*
X188277500Y-53340000I-952500J0D01*
G01*
X188277500Y-53340000D02*
G75*
G02*
X190182500Y-53340000I952500J0D01*
G01*
G36*
X148742400Y-59537600D02*
G01*
X184912000Y-59537600D01*
X184912000Y-62382400D01*
X148742400Y-62382400D01*
X148742400Y-59537600D01*
G37*
G36*
X152908000Y-115417600D02*
G01*
X184912000Y-115417600D01*
X184912000Y-118262400D01*
X152908000Y-118262400D01*
X152908000Y-115417600D01*
G37*
G36*
X109728000Y-59537600D02*
G01*
X145897600Y-59537600D01*
X145897600Y-62382400D01*
X109728000Y-62382400D01*
X109728000Y-59537600D01*
G37*
X106362500Y-68580000D02*
G75*
G02*
X104457500Y-68580000I-952500J0D01*
G01*
X104457500Y-68580000D02*
G75*
G02*
X106362500Y-68580000I952500J0D01*
G01*
X106362500Y-81280000D02*
G75*
G02*
X104457500Y-81280000I-952500J0D01*
G01*
X104457500Y-81280000D02*
G75*
G02*
X106362500Y-81280000I952500J0D01*
G01*
D11*
G36*
X188391800Y-119100600D02*
G01*
X184912000Y-118262400D01*
X184912000Y-115417600D01*
X188391800Y-114579400D01*
X188391800Y-119100600D01*
G37*
G36*
X188391800Y-63220600D02*
G01*
X184912000Y-62382400D01*
X184912000Y-59537600D01*
X188391800Y-58699400D01*
X188391800Y-63220600D01*
G37*
G36*
X145897600Y-57404000D02*
G01*
X148742400Y-57404000D01*
X148742400Y-64516000D01*
X145897600Y-64516000D01*
X145897600Y-57404000D01*
G37*
D10*
X106362500Y-53340000D02*
G75*
G02*
X104457500Y-53340000I-952500J0D01*
G01*
X104457500Y-53340000D02*
G75*
G02*
X106362500Y-53340000I952500J0D01*
G01*
D12*
X114274600Y-116128800D02*
X114274600Y-116509800D01*
X114274600Y-116128800D01*
D11*
G36*
X109728000Y-59537600D02*
G01*
X109728000Y-62382400D01*
X106248200Y-63220600D01*
X106248200Y-58699400D01*
X109728000Y-59537600D01*
G37*
G36*
X109728000Y-86614000D02*
G01*
X184912000Y-86614000D01*
X184912000Y-91186000D01*
X109728000Y-91186000D01*
X109728000Y-86614000D01*
G37*
G36*
X188391800Y-91160600D02*
G01*
X184912000Y-90322400D01*
X184912000Y-87477600D01*
X188391800Y-86639400D01*
X188391800Y-91160600D01*
G37*
G36*
X109728000Y-87477600D02*
G01*
X109728000Y-90322400D01*
X106248200Y-91160600D01*
X106248200Y-86639400D01*
X109728000Y-87477600D01*
G37*
G36*
X145313400Y-103276400D02*
G01*
X149326600Y-103276400D01*
X149326600Y-114300000D01*
X145313400Y-114300000D01*
X145313400Y-103276400D01*
G37*
G36*
X109728000Y-115417600D02*
G01*
X141732000Y-115417600D01*
X141732000Y-118262400D01*
X109728000Y-118262400D01*
X109728000Y-115417600D01*
G37*
D10*
X106362500Y-109220000D02*
G75*
G02*
X104457500Y-109220000I-952500J0D01*
G01*
X104457500Y-109220000D02*
G75*
G02*
X106362500Y-109220000I952500J0D01*
G01*
G36*
X146075400Y-102285800D02*
G01*
X148564600Y-102285800D01*
X148564600Y-103276400D01*
X146075400Y-103276400D01*
X146075400Y-102285800D01*
G37*
X190182500Y-81280000D02*
G75*
G02*
X188277500Y-81280000I-952500J0D01*
G01*
X188277500Y-81280000D02*
G75*
G02*
X190182500Y-81280000I952500J0D01*
G01*
%TO.C,J1*%
G36*
X106426000Y-64770000D02*
G01*
X101600000Y-64770000D01*
X101600000Y-57150000D01*
X106426000Y-57150000D01*
X106426000Y-64770000D01*
G37*
%TO.C,J3*%
G36*
X106426000Y-92710000D02*
G01*
X101600000Y-92710000D01*
X101600000Y-85090000D01*
X106426000Y-85090000D01*
X106426000Y-92710000D01*
G37*
%TO.C,J2*%
G36*
X188214000Y-57150000D02*
G01*
X193040000Y-57150000D01*
X193040000Y-64770000D01*
X188214000Y-64770000D01*
X188214000Y-57150000D01*
G37*
%TO.C,J4*%
G36*
X188214000Y-85090000D02*
G01*
X193040000Y-85090000D01*
X193040000Y-92710000D01*
X188214000Y-92710000D01*
X188214000Y-85090000D01*
G37*
%TO.C,U1*%
D12*
X144780000Y-87833200D02*
X149860000Y-87833200D01*
X149860000Y-89611200D01*
X144780000Y-89611200D01*
X144780000Y-87833200D01*
G36*
X144780000Y-87833200D02*
G01*
X149860000Y-87833200D01*
X149860000Y-89611200D01*
X144780000Y-89611200D01*
X144780000Y-87833200D01*
G37*
D13*
X148372500Y-84557400D02*
X148372500Y-87502200D01*
X147877200Y-87997500D01*
X147877200Y-89546100D01*
X146762800Y-89546100D01*
X146762800Y-87997500D01*
X146267500Y-87502200D01*
X146267500Y-84557400D01*
X146812800Y-84012100D01*
X147827200Y-84012100D01*
X148372500Y-84557400D01*
G36*
X148372500Y-84557400D02*
G01*
X148372500Y-87502200D01*
X147877200Y-87997500D01*
X147877200Y-89546100D01*
X146762800Y-89546100D01*
X146762800Y-87997500D01*
X146267500Y-87502200D01*
X146267500Y-84557400D01*
X146812800Y-84012100D01*
X147827200Y-84012100D01*
X148372500Y-84557400D01*
G37*
%TO.C,J5*%
G36*
X106426000Y-120650000D02*
G01*
X101600000Y-120650000D01*
X101600000Y-113030000D01*
X106426000Y-113030000D01*
X106426000Y-120650000D01*
G37*
%TO.C,J6*%
G36*
X188214000Y-113030000D02*
G01*
X193040000Y-113030000D01*
X193040000Y-120650000D01*
X188214000Y-120650000D01*
X188214000Y-113030000D01*
G37*
%TO.C,NT1*%
G36*
X147040600Y-103276400D02*
G01*
X147599400Y-103276400D01*
X147599400Y-115976400D01*
X147040600Y-115976400D01*
X147040600Y-103276400D01*
G37*
%TD*%
D14*
%TO.C,J1*%
X106172000Y-63754000D03*
X106172000Y-58166000D03*
X105664000Y-64516000D03*
X105664000Y-57404000D03*
X105156000Y-63754000D03*
X105156000Y-58166000D03*
X104648000Y-64516000D03*
X104648000Y-57404000D03*
X104140000Y-63754000D03*
X104140000Y-58166000D03*
D15*
X103962200Y-63728600D03*
X103962200Y-58191400D03*
D14*
X103632000Y-64516000D03*
X103632000Y-57404000D03*
X103124000Y-63754000D03*
X103124000Y-58166000D03*
X102616000Y-64516000D03*
X102616000Y-57404000D03*
X102108000Y-63754000D03*
X102108000Y-58166000D03*
D16*
X103962200Y-60960000D03*
%TD*%
D14*
%TO.C,J3*%
X106172000Y-91694000D03*
X106172000Y-86106000D03*
X105664000Y-92456000D03*
X105664000Y-85344000D03*
X105156000Y-91694000D03*
X105156000Y-86106000D03*
X104648000Y-92456000D03*
X104648000Y-85344000D03*
X104140000Y-91694000D03*
X104140000Y-86106000D03*
D15*
X103962200Y-91668600D03*
X103962200Y-86131400D03*
D14*
X103632000Y-92456000D03*
X103632000Y-85344000D03*
X103124000Y-91694000D03*
X103124000Y-86106000D03*
X102616000Y-92456000D03*
X102616000Y-85344000D03*
X102108000Y-91694000D03*
X102108000Y-86106000D03*
D16*
X103962200Y-88900000D03*
%TD*%
D14*
%TO.C,J2*%
X188468000Y-58166000D03*
X188468000Y-63754000D03*
X188976000Y-57404000D03*
X188976000Y-64516000D03*
X189484000Y-58166000D03*
X189484000Y-63754000D03*
X189992000Y-57404000D03*
X189992000Y-64516000D03*
X190500000Y-58166000D03*
X190500000Y-63754000D03*
D17*
X190677800Y-58191400D03*
X190677800Y-63728600D03*
D14*
X191008000Y-57404000D03*
X191008000Y-64516000D03*
X191516000Y-58166000D03*
X191516000Y-63754000D03*
X192024000Y-57404000D03*
X192024000Y-64516000D03*
X192532000Y-58166000D03*
X192532000Y-63754000D03*
D18*
X190677800Y-60960000D03*
%TD*%
D14*
%TO.C,J4*%
X188468000Y-86106000D03*
X188468000Y-91694000D03*
X188976000Y-85344000D03*
X188976000Y-92456000D03*
X189484000Y-86106000D03*
X189484000Y-91694000D03*
X189992000Y-85344000D03*
X189992000Y-92456000D03*
X190500000Y-86106000D03*
X190500000Y-91694000D03*
D17*
X190677800Y-86131400D03*
X190677800Y-91668600D03*
D14*
X191008000Y-85344000D03*
X191008000Y-92456000D03*
X191516000Y-86106000D03*
X191516000Y-91694000D03*
X192024000Y-85344000D03*
X192024000Y-92456000D03*
X192532000Y-86106000D03*
X192532000Y-91694000D03*
D18*
X190677800Y-88900000D03*
%TD*%
D19*
%TO.C,U1*%
X145821400Y-88696800D03*
X148818600Y-88696800D03*
%TD*%
D14*
%TO.C,J5*%
X106172000Y-119634000D03*
X106172000Y-114046000D03*
X105664000Y-120396000D03*
X105664000Y-113284000D03*
X105156000Y-119634000D03*
X105156000Y-114046000D03*
X104648000Y-120396000D03*
X104648000Y-113284000D03*
X104140000Y-119634000D03*
X104140000Y-114046000D03*
D15*
X103962200Y-119608600D03*
X103962200Y-114071400D03*
D14*
X103632000Y-120396000D03*
X103632000Y-113284000D03*
X103124000Y-119634000D03*
X103124000Y-114046000D03*
X102616000Y-120396000D03*
X102616000Y-113284000D03*
X102108000Y-119634000D03*
X102108000Y-114046000D03*
D16*
X103962200Y-116840000D03*
%TD*%
D14*
%TO.C,J6*%
X188468000Y-114046000D03*
X188468000Y-119634000D03*
X188976000Y-113284000D03*
X188976000Y-120396000D03*
X189484000Y-114046000D03*
X189484000Y-119634000D03*
X189992000Y-113284000D03*
X189992000Y-120396000D03*
X190500000Y-114046000D03*
X190500000Y-119634000D03*
D17*
X190677800Y-114071400D03*
X190677800Y-119608600D03*
D14*
X191008000Y-113284000D03*
X191008000Y-120396000D03*
X191516000Y-114046000D03*
X191516000Y-119634000D03*
X192024000Y-113284000D03*
X192024000Y-120396000D03*
X192532000Y-114046000D03*
X192532000Y-119634000D03*
D18*
X190677800Y-116840000D03*
%TD*%
D20*
%TO.C,J7*%
X143128500Y-94996000D03*
X146557500Y-97536000D03*
X143128500Y-100076000D03*
%TD*%
D21*
%TO.C,L6*%
X144282211Y-116552632D03*
X146293789Y-117127368D03*
%TD*%
D22*
%TO.C,R1*%
X148691600Y-97536000D03*
X150520400Y-97536000D03*
%TD*%
D23*
%TO.C,C6*%
X150672800Y-94742000D03*
X149047200Y-94742000D03*
%TD*%
D24*
%TO.C,L3*%
X149606000Y-60960000D03*
X150622000Y-60960000D03*
%TD*%
D25*
%TO.C,C15*%
X147320000Y-108762800D03*
X148844000Y-108762800D03*
%TD*%
D26*
%TO.C,NT1*%
X147320000Y-112801400D03*
X147320000Y-106451400D03*
%TD*%
D25*
%TO.C,C10*%
X177038000Y-88900000D03*
X178562000Y-88900000D03*
%TD*%
D27*
%TO.C,C1*%
X147320000Y-59944000D03*
X147320000Y-58928000D03*
%TD*%
D28*
%TO.C,R3*%
X114300000Y-89115900D03*
X114300000Y-90639900D03*
%TD*%
D24*
%TO.C,C2*%
X145796000Y-60960000D03*
X146812000Y-60960000D03*
%TD*%
D29*
%TO.C,R2*%
X148082000Y-92202000D03*
X146558000Y-92202000D03*
%TD*%
D28*
%TO.C,C14*%
X163195000Y-89115900D03*
X163195000Y-90639900D03*
%TD*%
D24*
%TO.C,C3*%
X147828000Y-60960000D03*
X148844000Y-60960000D03*
%TD*%
D28*
%TO.C,C11*%
X131064000Y-89115900D03*
X131064000Y-90639900D03*
%TD*%
D23*
%TO.C,C5*%
X150672800Y-96012000D03*
X149047200Y-96012000D03*
%TD*%
D28*
%TO.C,C12*%
X144221200Y-89115900D03*
X144221200Y-90639900D03*
%TD*%
D24*
%TO.C,L2*%
X144018000Y-60960000D03*
X145034000Y-60960000D03*
%TD*%
D30*
%TO.C,C4*%
X147320000Y-61976000D03*
X147320000Y-62992000D03*
%TD*%
D28*
%TO.C,C13*%
X153289000Y-89115900D03*
X153289000Y-90639900D03*
%TD*%
D25*
%TO.C,C9*%
X116078000Y-88900000D03*
X117602000Y-88900000D03*
%TD*%
D23*
%TO.C,C7*%
X150672800Y-93472000D03*
X149047200Y-93472000D03*
%TD*%
D29*
%TO.C,C8*%
X150622000Y-92202000D03*
X149098000Y-92202000D03*
%TD*%
D30*
%TO.C,L4*%
X147320000Y-63754000D03*
X147320000Y-64770000D03*
%TD*%
D31*
%TO.C,L5*%
X150622000Y-90639900D03*
X150622000Y-89115900D03*
%TD*%
D21*
%TO.C,L7*%
X148346211Y-116552632D03*
X150357789Y-117127368D03*
%TD*%
D28*
%TO.C,R4*%
X180340000Y-89115900D03*
X180340000Y-90639900D03*
%TD*%
D30*
%TO.C,L1*%
X147320000Y-57150000D03*
X147320000Y-58166000D03*
%TD*%
M02*
