M48
; DRILL file {KiCad 8.0.4} date 2024-08-26T14:54:02-0400
; FORMAT={-:-/ absolute / inch / decimal}
; #@! TF.CreationDate,2024-08-26T14:54:02-04:00
; #@! TF.GenerationSoftware,Kicad,Pcbnew,8.0.4
; #@! TF.FileFunction,Plated,1,2,PTH
FMAT,2
INCH
; #@! TA.AperFunction,Plated,PTH,ViaDrill
T1C0.0150
; #@! TA.AperFunction,Plated,PTH,ComponentDrill
T2C0.0150
; #@! TA.AperFunction,Plated,PTH,ViaDrill
T3C0.1000
%
G90
G05
T1
X4.02Y-2.02
X4.02Y-2.06
X4.02Y-2.1
X4.02Y-2.14
X4.02Y-2.18
X4.02Y-2.22
X4.02Y-2.59
X4.02Y-2.63
X4.02Y-2.67
X4.02Y-2.71
X4.02Y-2.75
X4.02Y-2.79
X4.02Y-2.83
X4.02Y-2.87
X4.02Y-2.91
X4.02Y-2.95
X4.02Y-2.99
X4.02Y-3.03
X4.02Y-3.07
X4.02Y-3.11
X4.02Y-3.15
X4.02Y-3.19
X4.02Y-3.23
X4.02Y-3.27
X4.02Y-3.31
X4.02Y-3.69
X4.02Y-3.73
X4.02Y-3.77
X4.02Y-3.81
X4.02Y-3.85
X4.02Y-3.89
X4.02Y-3.93
X4.02Y-3.97
X4.02Y-4.01
X4.02Y-4.05
X4.02Y-4.09
X4.02Y-4.13
X4.02Y-4.17
X4.02Y-4.21
X4.02Y-4.25
X4.02Y-4.29
X4.02Y-4.33
X4.02Y-4.37
X4.02Y-4.41
X4.02Y-4.78
X4.02Y-4.82
X4.02Y-4.86
X4.02Y-4.9
X4.02Y-4.94
X4.02Y-4.98
X4.06Y-2.02
X4.06Y-4.98
X4.1Y-2.02
X4.1Y-2.18
X4.1Y-2.63
X4.1Y-2.79
X4.1Y-2.87
X4.1Y-2.95
X4.1Y-3.03
X4.1Y-3.11
X4.1Y-3.27
X4.1Y-3.73
X4.1Y-3.89
X4.1Y-3.97
X4.1Y-4.05
X4.1Y-4.13
X4.1Y-4.21
X4.1Y-4.37
X4.1Y-4.82
X4.1Y-4.98
X4.14Y-2.02
X4.14Y-4.98
X4.18Y-2.02
X4.18Y-2.18
X4.18Y-2.63
X4.18Y-2.79
X4.18Y-2.87
X4.18Y-2.95
X4.18Y-3.03
X4.18Y-3.11
X4.18Y-3.27
X4.18Y-3.73
X4.18Y-3.89
X4.18Y-3.97
X4.18Y-4.05
X4.18Y-4.13
X4.18Y-4.21
X4.18Y-4.37
X4.18Y-4.82
X4.18Y-4.98
X4.22Y-2.02
X4.22Y-2.29
X4.22Y-2.51
X4.22Y-3.39
X4.22Y-3.61
X4.22Y-4.49
X4.22Y-4.71
X4.22Y-4.98
X4.26Y-2.02
X4.26Y-2.1
X4.26Y-2.18
X4.26Y-2.26
X4.26Y-2.3
X4.26Y-2.5
X4.26Y-2.55
X4.26Y-2.63
X4.26Y-2.71
X4.26Y-2.79
X4.26Y-2.87
X4.26Y-2.95
X4.26Y-3.03
X4.26Y-3.11
X4.26Y-3.19
X4.26Y-3.27
X4.26Y-3.35
X4.26Y-3.4
X4.26Y-3.6
X4.26Y-3.65
X4.26Y-3.73
X4.26Y-3.81
X4.26Y-3.89
X4.26Y-3.97
X4.26Y-4.05
X4.26Y-4.13
X4.26Y-4.21
X4.26Y-4.29
X4.26Y-4.37
X4.26Y-4.45
X4.26Y-4.5
X4.26Y-4.7
X4.26Y-4.74
X4.26Y-4.82
X4.26Y-4.9
X4.26Y-4.98
X4.3Y-2.02
X4.3Y-2.31
X4.3Y-2.49
X4.3Y-3.41
X4.3Y-3.59
X4.3Y-4.51
X4.3Y-4.69
X4.3Y-4.98
X4.34Y-2.02
X4.34Y-2.1
X4.34Y-2.18
X4.34Y-2.26
X4.34Y-2.32
X4.34Y-2.48
X4.34Y-2.55
X4.34Y-2.63
X4.34Y-2.71
X4.34Y-2.79
X4.34Y-2.87
X4.34Y-2.95
X4.34Y-3.03
X4.34Y-3.11
X4.34Y-3.19
X4.34Y-3.27
X4.34Y-3.35
X4.34Y-3.42
X4.34Y-3.58
X4.34Y-3.65
X4.34Y-3.73
X4.34Y-3.81
X4.34Y-3.89
X4.34Y-3.97
X4.34Y-4.05
X4.34Y-4.13
X4.34Y-4.21
X4.34Y-4.29
X4.34Y-4.37
X4.34Y-4.45
X4.34Y-4.52
X4.34Y-4.68
X4.34Y-4.74
X4.34Y-4.82
X4.34Y-4.9
X4.34Y-4.98
X4.38Y-2.02
X4.38Y-2.32
X4.38Y-2.48
X4.38Y-3.42
X4.38Y-3.58
X4.38Y-4.52
X4.38Y-4.68
X4.38Y-4.98
X4.42Y-2.02
X4.42Y-2.1
X4.42Y-2.18
X4.42Y-2.26
X4.42Y-2.32
X4.42Y-2.48
X4.42Y-2.55
X4.42Y-2.63
X4.42Y-2.71
X4.42Y-2.79
X4.42Y-2.87
X4.42Y-2.95
X4.42Y-3.03
X4.42Y-3.11
X4.42Y-3.19
X4.42Y-3.27
X4.42Y-3.35
X4.42Y-3.42
X4.42Y-3.58
X4.42Y-3.65
X4.42Y-3.73
X4.42Y-3.81
X4.42Y-3.89
X4.42Y-3.97
X4.42Y-4.05
X4.42Y-4.13
X4.42Y-4.21
X4.42Y-4.29
X4.42Y-4.37
X4.42Y-4.45
X4.42Y-4.52
X4.42Y-4.68
X4.42Y-4.74
X4.42Y-4.82
X4.42Y-4.9
X4.42Y-4.98
X4.46Y-2.02
X4.46Y-2.32
X4.46Y-2.48
X4.46Y-3.42
X4.46Y-3.58
X4.46Y-4.52
X4.46Y-4.68
X4.46Y-4.98
X4.5Y-2.02
X4.5Y-2.1
X4.5Y-2.18
X4.5Y-2.26
X4.5Y-2.32
X4.5Y-2.48
X4.5Y-2.55
X4.5Y-2.63
X4.5Y-2.71
X4.5Y-2.79
X4.5Y-2.87
X4.5Y-2.95
X4.5Y-3.03
X4.5Y-3.11
X4.5Y-3.19
X4.5Y-3.27
X4.5Y-3.35
X4.5Y-3.42
X4.5Y-3.58
X4.5Y-3.65
X4.5Y-3.73
X4.5Y-3.81
X4.5Y-3.89
X4.5Y-3.97
X4.5Y-4.05
X4.5Y-4.13
X4.5Y-4.21
X4.5Y-4.29
X4.5Y-4.37
X4.5Y-4.45
X4.5Y-4.52
X4.5Y-4.68
X4.5Y-4.74
X4.5Y-4.82
X4.5Y-4.9
X4.5Y-4.98
X4.54Y-2.02
X4.54Y-2.32
X4.54Y-2.48
X4.54Y-3.42
X4.54Y-3.58
X4.54Y-4.52
X4.54Y-4.68
X4.54Y-4.98
X4.58Y-2.02
X4.58Y-2.1
X4.58Y-2.18
X4.58Y-2.26
X4.58Y-2.32
X4.58Y-2.48
X4.58Y-2.55
X4.58Y-2.63
X4.58Y-2.71
X4.58Y-2.79
X4.58Y-2.87
X4.58Y-2.95
X4.58Y-3.03
X4.58Y-3.11
X4.58Y-3.19
X4.58Y-3.27
X4.58Y-3.35
X4.58Y-3.42
X4.58Y-3.58
X4.58Y-3.65
X4.58Y-3.73
X4.58Y-3.81
X4.58Y-3.89
X4.58Y-3.97
X4.58Y-4.05
X4.58Y-4.13
X4.58Y-4.21
X4.58Y-4.29
X4.58Y-4.37
X4.58Y-4.45
X4.58Y-4.52
X4.58Y-4.68
X4.58Y-4.74
X4.58Y-4.82
X4.58Y-4.9
X4.58Y-4.98
X4.62Y-2.02
X4.62Y-2.32
X4.62Y-2.48
X4.62Y-3.42
X4.62Y-3.58
X4.62Y-4.52
X4.62Y-4.68
X4.62Y-4.98
X4.66Y-2.02
X4.66Y-2.1
X4.66Y-2.18
X4.66Y-2.26
X4.66Y-2.32
X4.66Y-2.48
X4.66Y-2.55
X4.66Y-2.63
X4.66Y-2.71
X4.66Y-2.79
X4.66Y-2.87
X4.66Y-2.95
X4.66Y-3.03
X4.66Y-3.11
X4.66Y-3.19
X4.66Y-3.27
X4.66Y-3.35
X4.66Y-3.42
X4.66Y-3.58
X4.66Y-3.65
X4.66Y-3.73
X4.66Y-3.81
X4.66Y-3.89
X4.66Y-3.97
X4.66Y-4.05
X4.66Y-4.13
X4.66Y-4.21
X4.66Y-4.29
X4.66Y-4.37
X4.66Y-4.45
X4.66Y-4.52
X4.66Y-4.68
X4.66Y-4.74
X4.66Y-4.82
X4.66Y-4.9
X4.66Y-4.98
X4.7Y-2.02
X4.7Y-2.32
X4.7Y-2.48
X4.7Y-3.42
X4.7Y-3.58
X4.7Y-4.52
X4.7Y-4.68
X4.7Y-4.98
X4.74Y-2.02
X4.74Y-2.1
X4.74Y-2.18
X4.74Y-2.26
X4.74Y-2.32
X4.74Y-2.48
X4.74Y-2.55
X4.74Y-2.63
X4.74Y-2.71
X4.74Y-2.79
X4.74Y-2.87
X4.74Y-2.95
X4.74Y-3.03
X4.74Y-3.11
X4.74Y-3.19
X4.74Y-3.27
X4.74Y-3.35
X4.74Y-3.42
X4.74Y-3.58
X4.74Y-3.65
X4.74Y-3.73
X4.74Y-3.81
X4.74Y-3.89
X4.74Y-3.97
X4.74Y-4.05
X4.74Y-4.13
X4.74Y-4.21
X4.74Y-4.29
X4.74Y-4.37
X4.74Y-4.45
X4.74Y-4.52
X4.74Y-4.68
X4.74Y-4.74
X4.74Y-4.82
X4.74Y-4.9
X4.74Y-4.98
X4.78Y-2.02
X4.78Y-2.32
X4.78Y-2.48
X4.78Y-3.42
X4.78Y-3.58
X4.78Y-4.52
X4.78Y-4.68
X4.78Y-4.98
X4.82Y-2.02
X4.82Y-2.1
X4.82Y-2.18
X4.82Y-2.26
X4.82Y-2.32
X4.82Y-2.48
X4.82Y-2.55
X4.82Y-2.63
X4.82Y-2.71
X4.82Y-2.79
X4.82Y-2.87
X4.82Y-2.95
X4.82Y-3.03
X4.82Y-3.11
X4.82Y-3.19
X4.82Y-3.27
X4.82Y-3.35
X4.82Y-3.42
X4.82Y-3.58
X4.82Y-3.65
X4.82Y-3.73
X4.82Y-3.81
X4.82Y-3.89
X4.82Y-3.97
X4.82Y-4.05
X4.82Y-4.13
X4.82Y-4.21
X4.82Y-4.29
X4.82Y-4.37
X4.82Y-4.45
X4.82Y-4.52
X4.82Y-4.68
X4.82Y-4.74
X4.82Y-4.82
X4.82Y-4.9
X4.82Y-4.98
X4.86Y-2.02
X4.86Y-2.32
X4.86Y-2.48
X4.86Y-3.42
X4.86Y-3.58
X4.86Y-4.52
X4.86Y-4.68
X4.86Y-4.98
X4.9Y-2.02
X4.9Y-2.1
X4.9Y-2.18
X4.9Y-2.26
X4.9Y-2.32
X4.9Y-2.48
X4.9Y-2.55
X4.9Y-2.63
X4.9Y-2.71
X4.9Y-2.79
X4.9Y-2.87
X4.9Y-2.95
X4.9Y-3.03
X4.9Y-3.11
X4.9Y-3.19
X4.9Y-3.27
X4.9Y-3.35
X4.9Y-3.42
X4.9Y-3.58
X4.9Y-3.65
X4.9Y-3.73
X4.9Y-3.81
X4.9Y-3.89
X4.9Y-3.97
X4.9Y-4.05
X4.9Y-4.13
X4.9Y-4.21
X4.9Y-4.29
X4.9Y-4.37
X4.9Y-4.45
X4.9Y-4.52
X4.9Y-4.68
X4.9Y-4.74
X4.9Y-4.82
X4.9Y-4.9
X4.9Y-4.98
X4.94Y-2.02
X4.94Y-2.32
X4.94Y-2.48
X4.94Y-3.42
X4.94Y-3.58
X4.94Y-4.52
X4.94Y-4.68
X4.94Y-4.98
X4.98Y-2.02
X4.98Y-2.1
X4.98Y-2.18
X4.98Y-2.26
X4.98Y-2.32
X4.98Y-2.48
X4.98Y-2.55
X4.98Y-2.63
X4.98Y-2.71
X4.98Y-2.79
X4.98Y-2.87
X4.98Y-2.95
X4.98Y-3.03
X4.98Y-3.11
X4.98Y-3.19
X4.98Y-3.27
X4.98Y-3.35
X4.98Y-3.42
X4.98Y-3.58
X4.98Y-3.65
X4.98Y-3.73
X4.98Y-3.81
X4.98Y-3.89
X4.98Y-3.97
X4.98Y-4.05
X4.98Y-4.13
X4.98Y-4.21
X4.98Y-4.29
X4.98Y-4.37
X4.98Y-4.45
X4.98Y-4.52
X4.98Y-4.68
X4.98Y-4.74
X4.98Y-4.82
X4.98Y-4.9
X4.98Y-4.98
X5.02Y-2.02
X5.02Y-2.32
X5.02Y-2.48
X5.02Y-3.42
X5.02Y-3.58
X5.02Y-4.52
X5.02Y-4.68
X5.02Y-4.98
X5.06Y-2.02
X5.06Y-2.1
X5.06Y-2.18
X5.06Y-2.26
X5.06Y-2.32
X5.06Y-2.48
X5.06Y-2.55
X5.06Y-2.63
X5.06Y-2.71
X5.06Y-2.79
X5.06Y-2.87
X5.06Y-2.95
X5.06Y-3.03
X5.06Y-3.11
X5.06Y-3.19
X5.06Y-3.27
X5.06Y-3.35
X5.06Y-3.42
X5.06Y-3.58
X5.06Y-3.65
X5.06Y-3.73
X5.06Y-3.81
X5.06Y-3.89
X5.06Y-3.97
X5.06Y-4.05
X5.06Y-4.13
X5.06Y-4.21
X5.06Y-4.29
X5.06Y-4.37
X5.06Y-4.45
X5.06Y-4.52
X5.06Y-4.68
X5.06Y-4.74
X5.06Y-4.82
X5.06Y-4.9
X5.06Y-4.98
X5.1Y-2.02
X5.1Y-2.32
X5.1Y-2.48
X5.1Y-3.42
X5.1Y-3.58
X5.1Y-4.52
X5.1Y-4.68
X5.1Y-4.98
X5.14Y-2.02
X5.14Y-2.1
X5.14Y-2.18
X5.14Y-2.26
X5.14Y-2.32
X5.14Y-2.48
X5.14Y-2.55
X5.14Y-2.63
X5.14Y-2.71
X5.14Y-2.79
X5.14Y-2.87
X5.14Y-2.95
X5.14Y-3.03
X5.14Y-3.11
X5.14Y-3.19
X5.14Y-3.27
X5.14Y-3.35
X5.14Y-3.42
X5.14Y-3.58
X5.14Y-3.65
X5.14Y-3.73
X5.14Y-3.81
X5.14Y-3.89
X5.14Y-3.97
X5.14Y-4.05
X5.14Y-4.13
X5.14Y-4.21
X5.14Y-4.29
X5.14Y-4.37
X5.14Y-4.45
X5.14Y-4.52
X5.14Y-4.68
X5.14Y-4.74
X5.14Y-4.82
X5.14Y-4.9
X5.14Y-4.98
X5.18Y-2.02
X5.18Y-2.32
X5.18Y-2.48
X5.18Y-3.42
X5.18Y-3.58
X5.18Y-4.52
X5.18Y-4.68
X5.18Y-4.98
X5.22Y-2.02
X5.22Y-2.1
X5.22Y-2.18
X5.22Y-2.26
X5.22Y-2.32
X5.22Y-2.48
X5.22Y-2.55
X5.22Y-2.63
X5.22Y-2.71
X5.22Y-2.79
X5.22Y-2.87
X5.22Y-2.95
X5.22Y-3.03
X5.22Y-3.11
X5.22Y-3.19
X5.22Y-3.27
X5.22Y-3.35
X5.22Y-3.42
X5.22Y-3.58
X5.22Y-3.65
X5.22Y-3.73
X5.22Y-3.81
X5.22Y-3.89
X5.22Y-3.97
X5.22Y-4.05
X5.22Y-4.13
X5.22Y-4.21
X5.22Y-4.29
X5.22Y-4.37
X5.22Y-4.45
X5.22Y-4.52
X5.22Y-4.68
X5.22Y-4.74
X5.22Y-4.82
X5.22Y-4.9
X5.22Y-4.98
X5.26Y-2.02
X5.26Y-2.32
X5.26Y-2.48
X5.26Y-3.42
X5.26Y-3.58
X5.26Y-4.52
X5.26Y-4.68
X5.26Y-4.98
X5.3Y-2.02
X5.3Y-2.1
X5.3Y-2.18
X5.3Y-2.26
X5.3Y-2.32
X5.3Y-2.48
X5.3Y-2.55
X5.3Y-2.63
X5.3Y-2.71
X5.3Y-2.79
X5.3Y-2.87
X5.3Y-2.95
X5.3Y-3.03
X5.3Y-3.11
X5.3Y-3.19
X5.3Y-3.27
X5.3Y-3.35
X5.3Y-3.42
X5.3Y-3.58
X5.3Y-3.65
X5.3Y-3.73
X5.3Y-3.81
X5.3Y-3.89
X5.3Y-3.97
X5.3Y-4.05
X5.3Y-4.13
X5.3Y-4.21
X5.3Y-4.29
X5.3Y-4.37
X5.3Y-4.45
X5.3Y-4.52
X5.3Y-4.68
X5.3Y-4.74
X5.3Y-4.82
X5.3Y-4.9
X5.3Y-4.98
X5.34Y-2.02
X5.34Y-2.32
X5.34Y-2.48
X5.34Y-3.42
X5.34Y-3.58
X5.34Y-4.52
X5.34Y-4.68
X5.34Y-4.98
X5.38Y-2.02
X5.38Y-2.1
X5.38Y-2.18
X5.38Y-2.26
X5.38Y-2.32
X5.38Y-2.48
X5.38Y-2.55
X5.38Y-2.63
X5.38Y-2.71
X5.38Y-2.79
X5.38Y-2.87
X5.38Y-2.95
X5.38Y-3.03
X5.38Y-3.11
X5.38Y-3.19
X5.38Y-3.27
X5.38Y-3.35
X5.38Y-3.42
X5.38Y-3.58
X5.38Y-3.65
X5.38Y-3.73
X5.38Y-3.81
X5.38Y-3.89
X5.38Y-3.97
X5.38Y-4.05
X5.38Y-4.13
X5.38Y-4.21
X5.38Y-4.29
X5.38Y-4.37
X5.38Y-4.45
X5.38Y-4.52
X5.38Y-4.68
X5.38Y-4.74
X5.38Y-4.82
X5.38Y-4.9
X5.38Y-4.98
X5.42Y-2.02
X5.42Y-2.32
X5.42Y-2.48
X5.42Y-3.42
X5.42Y-3.58
X5.42Y-4.52
X5.42Y-4.68
X5.42Y-4.98
X5.46Y-2.02
X5.46Y-2.1
X5.46Y-2.18
X5.46Y-2.26
X5.46Y-2.32
X5.46Y-2.48
X5.46Y-2.55
X5.46Y-2.63
X5.46Y-2.71
X5.46Y-2.79
X5.46Y-2.87
X5.46Y-2.95
X5.46Y-3.03
X5.46Y-3.11
X5.46Y-3.19
X5.46Y-3.27
X5.46Y-3.35
X5.46Y-3.42
X5.46Y-3.58
X5.46Y-3.65
X5.46Y-3.73
X5.46Y-3.81
X5.46Y-3.89
X5.46Y-3.97
X5.46Y-4.05
X5.46Y-4.13
X5.46Y-4.21
X5.46Y-4.29
X5.46Y-4.37
X5.46Y-4.45
X5.46Y-4.52
X5.46Y-4.68
X5.46Y-4.74
X5.46Y-4.82
X5.46Y-4.9
X5.46Y-4.98
X5.5Y-2.02
X5.5Y-2.32
X5.5Y-2.48
X5.5Y-3.42
X5.5Y-3.58
X5.5Y-4.52
X5.5Y-4.68
X5.5Y-4.98
X5.54Y-2.02
X5.54Y-2.1
X5.54Y-2.18
X5.54Y-2.26
X5.54Y-2.32
X5.54Y-2.48
X5.54Y-2.55
X5.54Y-2.63
X5.54Y-2.71
X5.54Y-2.79
X5.54Y-2.87
X5.54Y-2.95
X5.54Y-3.03
X5.54Y-3.11
X5.54Y-3.19
X5.54Y-3.27
X5.54Y-3.35
X5.54Y-3.42
X5.54Y-3.58
X5.54Y-3.65
X5.54Y-3.73
X5.54Y-3.81
X5.54Y-3.89
X5.54Y-3.97
X5.54Y-4.05
X5.54Y-4.13
X5.54Y-4.21
X5.54Y-4.29
X5.54Y-4.37
X5.54Y-4.45
X5.54Y-4.52
X5.54Y-4.68
X5.54Y-4.82
X5.54Y-4.9
X5.54Y-4.98
X5.56Y-4.48
X5.56Y-4.72
X5.58Y-2.02
X5.58Y-2.32
X5.58Y-2.48
X5.58Y-3.42
X5.58Y-3.58
X5.58Y-4.98
X5.6Y-4.47
X5.6Y-4.73
X5.62Y-2.02
X5.62Y-2.1
X5.62Y-2.18
X5.62Y-2.26
X5.62Y-2.32
X5.62Y-2.48
X5.62Y-2.55
X5.62Y-2.63
X5.62Y-2.71
X5.62Y-2.79
X5.62Y-2.87
X5.62Y-2.95
X5.62Y-3.03
X5.62Y-3.11
X5.62Y-3.19
X5.62Y-3.27
X5.62Y-3.35
X5.62Y-3.42
X5.62Y-3.58
X5.62Y-3.65
X5.62Y-3.7
X5.62Y-3.78
X5.62Y-3.9
X5.62Y-3.98
X5.62Y-4.05
X5.62Y-4.13
X5.62Y-4.21
X5.62Y-4.29
X5.62Y-4.37
X5.62Y-4.82
X5.62Y-4.9
X5.62Y-4.98
X5.64Y-4.47
X5.64Y-4.73
X5.66Y-2.02
X5.66Y-2.32
X5.66Y-2.48
X5.66Y-3.42
X5.66Y-3.58
X5.66Y-4.98
X5.68Y-4.47
X5.68Y-4.73
X5.7Y-2.02
X5.7Y-2.1
X5.7Y-2.18
X5.7Y-2.32
X5.7Y-2.48
X5.7Y-2.63
X5.7Y-2.71
X5.7Y-2.79
X5.7Y-2.87
X5.7Y-2.95
X5.7Y-3.03
X5.7Y-3.11
X5.7Y-3.19
X5.7Y-3.27
X5.7Y-3.35
X5.7Y-3.42
X5.7Y-3.58
X5.7Y-3.65
X5.7Y-3.73
X5.7Y-3.81
X5.7Y-3.89
X5.7Y-3.97
X5.7Y-4.82
X5.7Y-4.9
X5.7Y-4.98
X5.72Y-2.25
X5.72Y-2.29
X5.72Y-2.51
X5.72Y-2.55
X5.72Y-4.73
X5.73Y-4.03
X5.73Y-4.07
X5.73Y-4.11
X5.73Y-4.15
X5.73Y-4.19
X5.73Y-4.23
X5.73Y-4.27
X5.73Y-4.31
X5.73Y-4.35
X5.73Y-4.39
X5.73Y-4.43
X5.73Y-4.47
X5.74Y-2.02
X5.74Y-3.58
X5.74Y-4.98
X5.75Y-3.6307
X5.76Y-2.23
X5.76Y-2.57
X5.76Y-4.01
X5.76Y-4.73
X5.78Y-2.02
X5.78Y-2.1
X5.78Y-2.18
X5.78Y-2.63
X5.78Y-2.71
X5.78Y-2.79
X5.78Y-2.87
X5.78Y-2.95
X5.78Y-3.03
X5.78Y-3.11
X5.78Y-3.19
X5.78Y-3.27
X5.78Y-3.58
X5.78Y-3.73
X5.78Y-3.89
X5.78Y-3.97
X5.78Y-4.82
X5.78Y-4.9
X5.78Y-4.98
X5.8Y-2.23
X5.8Y-2.57
X5.8Y-3.55
X5.8Y-4.01
X5.8Y-4.73
X5.82Y-2.02
X5.82Y-2.1
X5.82Y-2.18
X5.82Y-2.63
X5.82Y-2.71
X5.82Y-2.79
X5.82Y-2.87
X5.82Y-2.95
X5.82Y-3.03
X5.82Y-3.11
X5.82Y-3.19
X5.82Y-3.27
X5.82Y-3.58
X5.82Y-3.89
X5.82Y-3.97
X5.82Y-4.82
X5.82Y-4.9
X5.82Y-4.98
X5.84Y-2.23
X5.84Y-2.57
X5.84Y-4.01
X5.84Y-4.73
X5.85Y-3.6807
X5.85Y-3.7308
X5.85Y-3.7807
X5.86Y-2.02
X5.86Y-3.58
X5.86Y-4.98
X5.87Y-4.03
X5.87Y-4.07
X5.87Y-4.11
X5.87Y-4.15
X5.87Y-4.19
X5.87Y-4.23
X5.87Y-4.27
X5.87Y-4.31
X5.87Y-4.35
X5.87Y-4.39
X5.87Y-4.43
X5.87Y-4.47
X5.88Y-2.25
X5.88Y-2.29
X5.88Y-2.51
X5.88Y-2.55
X5.88Y-4.73
X5.9Y-2.02
X5.9Y-2.1
X5.9Y-2.18
X5.9Y-2.32
X5.9Y-2.48
X5.9Y-2.63
X5.9Y-2.71
X5.9Y-2.79
X5.9Y-2.87
X5.9Y-2.95
X5.9Y-3.03
X5.9Y-3.11
X5.9Y-3.19
X5.9Y-3.27
X5.9Y-3.35
X5.9Y-3.42
X5.9Y-3.89
X5.9Y-3.97
X5.9Y-4.82
X5.9Y-4.9
X5.9Y-4.98
X5.92Y-4.47
X5.92Y-4.73
X5.94Y-2.02
X5.94Y-2.32
X5.94Y-2.48
X5.94Y-3.42
X5.94Y-4.98
X5.96Y-4.47
X5.96Y-4.73
X5.98Y-2.02
X5.98Y-2.1
X5.98Y-2.18
X5.98Y-2.26
X5.98Y-2.32
X5.98Y-2.48
X5.98Y-2.55
X5.98Y-2.63
X5.98Y-2.71
X5.98Y-2.79
X5.98Y-2.87
X5.98Y-2.95
X5.98Y-3.03
X5.98Y-3.11
X5.98Y-3.19
X5.98Y-3.27
X5.98Y-3.35
X5.98Y-3.42
X5.98Y-3.58
X5.98Y-3.65
X5.98Y-3.73
X5.98Y-3.81
X5.98Y-3.89
X5.98Y-3.97
X5.98Y-4.05
X5.98Y-4.13
X5.98Y-4.21
X5.98Y-4.29
X5.98Y-4.37
X5.98Y-4.82
X5.98Y-4.9
X5.98Y-4.98
X6.0Y-4.73
X6.0002Y-4.4696
X6.02Y-2.02
X6.02Y-2.32
X6.02Y-2.48
X6.02Y-3.42
X6.02Y-3.58
X6.02Y-4.98
X6.04Y-4.48
X6.04Y-4.72
X6.06Y-2.02
X6.06Y-2.1
X6.06Y-2.18
X6.06Y-2.26
X6.06Y-2.32
X6.06Y-2.48
X6.06Y-2.55
X6.06Y-2.63
X6.06Y-2.71
X6.06Y-2.79
X6.06Y-2.87
X6.06Y-2.95
X6.06Y-3.03
X6.06Y-3.11
X6.06Y-3.19
X6.06Y-3.27
X6.06Y-3.35
X6.06Y-3.42
X6.06Y-3.58
X6.06Y-3.65
X6.06Y-3.73
X6.06Y-3.81
X6.06Y-3.89
X6.06Y-3.97
X6.06Y-4.05
X6.06Y-4.13
X6.06Y-4.21
X6.06Y-4.29
X6.06Y-4.37
X6.06Y-4.45
X6.06Y-4.52
X6.06Y-4.68
X6.06Y-4.82
X6.06Y-4.9
X6.06Y-4.98
X6.1Y-2.02
X6.1Y-2.32
X6.1Y-2.48
X6.1Y-3.42
X6.1Y-3.58
X6.1Y-4.52
X6.1Y-4.68
X6.1Y-4.98
X6.14Y-2.02
X6.14Y-2.1
X6.14Y-2.18
X6.14Y-2.26
X6.14Y-2.32
X6.14Y-2.48
X6.14Y-2.55
X6.14Y-2.63
X6.14Y-2.71
X6.14Y-2.79
X6.14Y-2.87
X6.14Y-2.95
X6.14Y-3.03
X6.14Y-3.11
X6.14Y-3.19
X6.14Y-3.27
X6.14Y-3.35
X6.14Y-3.42
X6.14Y-3.58
X6.14Y-3.65
X6.14Y-3.73
X6.14Y-3.81
X6.14Y-3.89
X6.14Y-3.97
X6.14Y-4.05
X6.14Y-4.13
X6.14Y-4.21
X6.14Y-4.29
X6.14Y-4.37
X6.14Y-4.45
X6.14Y-4.52
X6.14Y-4.68
X6.14Y-4.74
X6.14Y-4.82
X6.14Y-4.9
X6.14Y-4.98
X6.18Y-2.02
X6.18Y-2.32
X6.18Y-2.48
X6.18Y-3.42
X6.18Y-3.58
X6.18Y-4.52
X6.18Y-4.68
X6.18Y-4.98
X6.22Y-2.02
X6.22Y-2.1
X6.22Y-2.18
X6.22Y-2.26
X6.22Y-2.32
X6.22Y-2.48
X6.22Y-2.55
X6.22Y-2.63
X6.22Y-2.71
X6.22Y-2.79
X6.22Y-2.87
X6.22Y-2.95
X6.22Y-3.03
X6.22Y-3.11
X6.22Y-3.19
X6.22Y-3.27
X6.22Y-3.35
X6.22Y-3.42
X6.22Y-3.58
X6.22Y-3.65
X6.22Y-3.73
X6.22Y-3.81
X6.22Y-3.89
X6.22Y-3.97
X6.22Y-4.05
X6.22Y-4.13
X6.22Y-4.21
X6.22Y-4.29
X6.22Y-4.37
X6.22Y-4.45
X6.22Y-4.52
X6.22Y-4.68
X6.22Y-4.74
X6.22Y-4.82
X6.22Y-4.9
X6.22Y-4.98
X6.26Y-2.02
X6.26Y-2.32
X6.26Y-2.48
X6.26Y-3.42
X6.26Y-3.58
X6.26Y-4.52
X6.26Y-4.68
X6.26Y-4.98
X6.3Y-2.02
X6.3Y-2.1
X6.3Y-2.18
X6.3Y-2.26
X6.3Y-2.32
X6.3Y-2.48
X6.3Y-2.55
X6.3Y-2.63
X6.3Y-2.71
X6.3Y-2.79
X6.3Y-2.87
X6.3Y-2.95
X6.3Y-3.03
X6.3Y-3.11
X6.3Y-3.19
X6.3Y-3.27
X6.3Y-3.35
X6.3Y-3.42
X6.3Y-3.58
X6.3Y-3.65
X6.3Y-3.73
X6.3Y-3.81
X6.3Y-3.89
X6.3Y-3.97
X6.3Y-4.05
X6.3Y-4.13
X6.3Y-4.21
X6.3Y-4.29
X6.3Y-4.37
X6.3Y-4.45
X6.3Y-4.52
X6.3Y-4.68
X6.3Y-4.74
X6.3Y-4.82
X6.3Y-4.9
X6.3Y-4.98
X6.34Y-2.02
X6.34Y-2.32
X6.34Y-2.48
X6.34Y-3.42
X6.34Y-3.58
X6.34Y-4.52
X6.34Y-4.68
X6.34Y-4.98
X6.38Y-2.02
X6.38Y-2.1
X6.38Y-2.18
X6.38Y-2.26
X6.38Y-2.32
X6.38Y-2.48
X6.38Y-2.55
X6.38Y-2.63
X6.38Y-2.71
X6.38Y-2.79
X6.38Y-2.87
X6.38Y-2.95
X6.38Y-3.03
X6.38Y-3.11
X6.38Y-3.19
X6.38Y-3.27
X6.38Y-3.35
X6.38Y-3.42
X6.38Y-3.58
X6.38Y-3.65
X6.38Y-3.73
X6.38Y-3.81
X6.38Y-3.89
X6.38Y-3.97
X6.38Y-4.05
X6.38Y-4.13
X6.38Y-4.21
X6.38Y-4.29
X6.38Y-4.37
X6.38Y-4.45
X6.38Y-4.52
X6.38Y-4.68
X6.38Y-4.74
X6.38Y-4.82
X6.38Y-4.9
X6.38Y-4.98
X6.42Y-2.02
X6.42Y-2.32
X6.42Y-2.48
X6.42Y-3.42
X6.42Y-3.58
X6.42Y-4.52
X6.42Y-4.68
X6.42Y-4.98
X6.46Y-2.02
X6.46Y-2.1
X6.46Y-2.18
X6.46Y-2.26
X6.46Y-2.32
X6.46Y-2.48
X6.46Y-2.55
X6.46Y-2.63
X6.46Y-2.71
X6.46Y-2.79
X6.46Y-2.87
X6.46Y-2.95
X6.46Y-3.03
X6.46Y-3.11
X6.46Y-3.19
X6.46Y-3.27
X6.46Y-3.35
X6.46Y-3.42
X6.46Y-3.58
X6.46Y-3.65
X6.46Y-3.73
X6.46Y-3.81
X6.46Y-3.89
X6.46Y-3.97
X6.46Y-4.05
X6.46Y-4.13
X6.46Y-4.21
X6.46Y-4.29
X6.46Y-4.37
X6.46Y-4.45
X6.46Y-4.52
X6.46Y-4.68
X6.46Y-4.74
X6.46Y-4.82
X6.46Y-4.9
X6.46Y-4.98
X6.5Y-2.02
X6.5Y-2.32
X6.5Y-2.48
X6.5Y-3.42
X6.5Y-3.58
X6.5Y-4.52
X6.5Y-4.68
X6.5Y-4.98
X6.54Y-2.02
X6.54Y-2.1
X6.54Y-2.18
X6.54Y-2.26
X6.54Y-2.32
X6.54Y-2.48
X6.54Y-2.55
X6.54Y-2.63
X6.54Y-2.71
X6.54Y-2.79
X6.54Y-2.87
X6.54Y-2.95
X6.54Y-3.03
X6.54Y-3.11
X6.54Y-3.19
X6.54Y-3.27
X6.54Y-3.35
X6.54Y-3.42
X6.54Y-3.58
X6.54Y-3.65
X6.54Y-3.73
X6.54Y-3.81
X6.54Y-3.89
X6.54Y-3.97
X6.54Y-4.05
X6.54Y-4.13
X6.54Y-4.21
X6.54Y-4.29
X6.54Y-4.37
X6.54Y-4.45
X6.54Y-4.52
X6.54Y-4.68
X6.54Y-4.74
X6.54Y-4.82
X6.54Y-4.9
X6.54Y-4.98
X6.58Y-2.02
X6.58Y-2.32
X6.58Y-2.48
X6.58Y-3.42
X6.58Y-3.58
X6.58Y-4.52
X6.58Y-4.68
X6.58Y-4.98
X6.62Y-2.02
X6.62Y-2.1
X6.62Y-2.18
X6.62Y-2.26
X6.62Y-2.32
X6.62Y-2.48
X6.62Y-2.55
X6.62Y-2.63
X6.62Y-2.71
X6.62Y-2.79
X6.62Y-2.87
X6.62Y-2.95
X6.62Y-3.03
X6.62Y-3.11
X6.62Y-3.19
X6.62Y-3.27
X6.62Y-3.35
X6.62Y-3.42
X6.62Y-3.58
X6.62Y-3.65
X6.62Y-3.73
X6.62Y-3.81
X6.62Y-3.89
X6.62Y-3.97
X6.62Y-4.05
X6.62Y-4.13
X6.62Y-4.21
X6.62Y-4.29
X6.62Y-4.37
X6.62Y-4.45
X6.62Y-4.52
X6.62Y-4.68
X6.62Y-4.74
X6.62Y-4.82
X6.62Y-4.9
X6.62Y-4.98
X6.66Y-2.02
X6.66Y-2.32
X6.66Y-2.48
X6.66Y-3.42
X6.66Y-3.58
X6.66Y-4.52
X6.66Y-4.68
X6.66Y-4.98
X6.7Y-2.02
X6.7Y-2.1
X6.7Y-2.18
X6.7Y-2.26
X6.7Y-2.32
X6.7Y-2.48
X6.7Y-2.55
X6.7Y-2.63
X6.7Y-2.71
X6.7Y-2.79
X6.7Y-2.87
X6.7Y-2.95
X6.7Y-3.03
X6.7Y-3.11
X6.7Y-3.19
X6.7Y-3.27
X6.7Y-3.35
X6.7Y-3.42
X6.7Y-3.58
X6.7Y-3.65
X6.7Y-3.73
X6.7Y-3.81
X6.7Y-3.89
X6.7Y-3.97
X6.7Y-4.05
X6.7Y-4.13
X6.7Y-4.21
X6.7Y-4.29
X6.7Y-4.37
X6.7Y-4.45
X6.7Y-4.52
X6.7Y-4.68
X6.7Y-4.74
X6.7Y-4.82
X6.7Y-4.9
X6.7Y-4.98
X6.74Y-2.02
X6.74Y-2.32
X6.74Y-2.48
X6.74Y-3.42
X6.74Y-3.58
X6.74Y-4.52
X6.74Y-4.68
X6.74Y-4.98
X6.78Y-2.02
X6.78Y-2.1
X6.78Y-2.18
X6.78Y-2.26
X6.78Y-2.32
X6.78Y-2.48
X6.78Y-2.55
X6.78Y-2.63
X6.78Y-2.71
X6.78Y-2.79
X6.78Y-2.87
X6.78Y-2.95
X6.78Y-3.03
X6.78Y-3.11
X6.78Y-3.19
X6.78Y-3.27
X6.78Y-3.35
X6.78Y-3.42
X6.78Y-3.58
X6.78Y-3.65
X6.78Y-3.73
X6.78Y-3.81
X6.78Y-3.89
X6.78Y-3.97
X6.78Y-4.05
X6.78Y-4.13
X6.78Y-4.21
X6.78Y-4.29
X6.78Y-4.37
X6.78Y-4.45
X6.78Y-4.52
X6.78Y-4.68
X6.78Y-4.74
X6.78Y-4.82
X6.78Y-4.9
X6.78Y-4.98
X6.82Y-2.02
X6.82Y-2.32
X6.82Y-2.48
X6.82Y-3.42
X6.82Y-3.58
X6.82Y-4.52
X6.82Y-4.68
X6.82Y-4.98
X6.86Y-2.02
X6.86Y-2.1
X6.86Y-2.18
X6.86Y-2.26
X6.86Y-2.32
X6.86Y-2.48
X6.86Y-2.55
X6.86Y-2.63
X6.86Y-2.71
X6.86Y-2.79
X6.86Y-2.87
X6.86Y-2.95
X6.86Y-3.03
X6.86Y-3.11
X6.86Y-3.19
X6.86Y-3.27
X6.86Y-3.35
X6.86Y-3.42
X6.86Y-3.58
X6.86Y-3.65
X6.86Y-3.73
X6.86Y-3.81
X6.86Y-3.89
X6.86Y-3.97
X6.86Y-4.05
X6.86Y-4.13
X6.86Y-4.21
X6.86Y-4.29
X6.86Y-4.37
X6.86Y-4.45
X6.86Y-4.52
X6.86Y-4.68
X6.86Y-4.74
X6.86Y-4.82
X6.86Y-4.9
X6.86Y-4.98
X6.9Y-2.02
X6.9Y-2.32
X6.9Y-2.48
X6.9Y-3.42
X6.9Y-3.58
X6.9Y-4.52
X6.9Y-4.68
X6.9Y-4.98
X6.94Y-2.02
X6.94Y-2.1
X6.94Y-2.18
X6.94Y-2.26
X6.94Y-2.32
X6.94Y-2.48
X6.94Y-2.55
X6.94Y-2.63
X6.94Y-2.71
X6.94Y-2.79
X6.94Y-2.87
X6.94Y-2.95
X6.94Y-3.03
X6.94Y-3.11
X6.94Y-3.19
X6.94Y-3.27
X6.94Y-3.35
X6.94Y-3.42
X6.94Y-3.58
X6.94Y-3.65
X6.94Y-3.73
X6.94Y-3.81
X6.94Y-3.89
X6.94Y-3.97
X6.94Y-4.05
X6.94Y-4.13
X6.94Y-4.21
X6.94Y-4.29
X6.94Y-4.37
X6.94Y-4.45
X6.94Y-4.52
X6.94Y-4.68
X6.94Y-4.74
X6.94Y-4.82
X6.94Y-4.9
X6.94Y-4.98
X6.98Y-2.02
X6.98Y-2.32
X6.98Y-2.48
X6.98Y-3.42
X6.98Y-3.58
X6.98Y-4.52
X6.98Y-4.68
X6.98Y-4.98
X7.02Y-2.02
X7.02Y-2.1
X7.02Y-2.18
X7.02Y-2.26
X7.02Y-2.32
X7.02Y-2.48
X7.02Y-2.55
X7.02Y-2.63
X7.02Y-2.71
X7.02Y-2.79
X7.02Y-2.87
X7.02Y-2.95
X7.02Y-3.03
X7.02Y-3.11
X7.02Y-3.19
X7.02Y-3.27
X7.02Y-3.35
X7.02Y-3.42
X7.02Y-3.58
X7.02Y-3.65
X7.02Y-3.73
X7.02Y-3.81
X7.02Y-3.89
X7.02Y-3.97
X7.02Y-4.05
X7.02Y-4.13
X7.02Y-4.21
X7.02Y-4.29
X7.02Y-4.37
X7.02Y-4.45
X7.02Y-4.52
X7.02Y-4.68
X7.02Y-4.74
X7.02Y-4.82
X7.02Y-4.9
X7.02Y-4.98
X7.06Y-2.02
X7.06Y-2.32
X7.06Y-2.48
X7.06Y-3.42
X7.06Y-3.58
X7.06Y-4.52
X7.06Y-4.68
X7.06Y-4.98
X7.1Y-2.02
X7.1Y-2.1
X7.1Y-2.18
X7.1Y-2.26
X7.1Y-2.32
X7.1Y-2.48
X7.1Y-2.55
X7.1Y-2.63
X7.1Y-2.71
X7.1Y-2.79
X7.1Y-2.87
X7.1Y-2.95
X7.1Y-3.03
X7.1Y-3.11
X7.1Y-3.19
X7.1Y-3.27
X7.1Y-3.35
X7.1Y-3.42
X7.1Y-3.58
X7.1Y-3.65
X7.1Y-3.73
X7.1Y-3.81
X7.1Y-3.89
X7.1Y-3.97
X7.1Y-4.05
X7.1Y-4.13
X7.1Y-4.21
X7.1Y-4.29
X7.1Y-4.37
X7.1Y-4.45
X7.1Y-4.52
X7.1Y-4.68
X7.1Y-4.74
X7.1Y-4.82
X7.1Y-4.9
X7.1Y-4.98
X7.14Y-2.02
X7.14Y-2.32
X7.14Y-2.48
X7.14Y-3.42
X7.14Y-3.58
X7.14Y-4.52
X7.14Y-4.68
X7.14Y-4.98
X7.18Y-2.02
X7.18Y-2.1
X7.18Y-2.18
X7.18Y-2.26
X7.18Y-2.32
X7.18Y-2.48
X7.18Y-2.55
X7.18Y-2.63
X7.18Y-2.71
X7.18Y-2.79
X7.18Y-2.87
X7.18Y-2.95
X7.18Y-3.03
X7.18Y-3.11
X7.18Y-3.19
X7.18Y-3.27
X7.18Y-3.35
X7.18Y-3.42
X7.18Y-3.58
X7.18Y-3.65
X7.18Y-3.73
X7.18Y-3.81
X7.18Y-3.89
X7.18Y-3.97
X7.18Y-4.05
X7.18Y-4.13
X7.18Y-4.21
X7.18Y-4.29
X7.18Y-4.37
X7.18Y-4.45
X7.18Y-4.52
X7.18Y-4.68
X7.18Y-4.74
X7.18Y-4.82
X7.18Y-4.9
X7.18Y-4.98
X7.22Y-2.02
X7.22Y-2.32
X7.22Y-2.48
X7.22Y-3.42
X7.22Y-3.58
X7.22Y-4.52
X7.22Y-4.68
X7.22Y-4.98
X7.26Y-2.02
X7.26Y-2.1
X7.26Y-2.18
X7.26Y-2.26
X7.26Y-2.32
X7.26Y-2.48
X7.26Y-2.55
X7.26Y-2.63
X7.26Y-2.71
X7.26Y-2.79
X7.26Y-2.87
X7.26Y-2.95
X7.26Y-3.03
X7.26Y-3.11
X7.26Y-3.19
X7.26Y-3.27
X7.26Y-3.35
X7.26Y-3.42
X7.26Y-3.58
X7.26Y-3.65
X7.26Y-3.73
X7.26Y-3.81
X7.26Y-3.89
X7.26Y-3.97
X7.26Y-4.05
X7.26Y-4.13
X7.26Y-4.21
X7.26Y-4.29
X7.26Y-4.37
X7.26Y-4.45
X7.26Y-4.52
X7.26Y-4.68
X7.26Y-4.74
X7.26Y-4.82
X7.26Y-4.9
X7.26Y-4.98
X7.3Y-2.02
X7.3Y-2.31
X7.3Y-2.49
X7.3Y-3.41
X7.3Y-3.59
X7.3Y-4.51
X7.3Y-4.69
X7.3Y-4.98
X7.34Y-2.02
X7.34Y-2.1
X7.34Y-2.18
X7.34Y-2.26
X7.34Y-2.3
X7.34Y-2.5
X7.34Y-2.55
X7.34Y-2.63
X7.34Y-2.71
X7.34Y-2.79
X7.34Y-2.87
X7.34Y-2.95
X7.34Y-3.03
X7.34Y-3.11
X7.34Y-3.19
X7.34Y-3.27
X7.34Y-3.35
X7.34Y-3.4
X7.34Y-3.6
X7.34Y-3.65
X7.34Y-3.73
X7.34Y-3.81
X7.34Y-3.89
X7.34Y-3.97
X7.34Y-4.05
X7.34Y-4.13
X7.34Y-4.21
X7.34Y-4.29
X7.34Y-4.37
X7.34Y-4.45
X7.34Y-4.5
X7.34Y-4.7
X7.34Y-4.74
X7.34Y-4.82
X7.34Y-4.9
X7.34Y-4.98
X7.38Y-2.02
X7.38Y-2.29
X7.38Y-2.51
X7.38Y-3.39
X7.38Y-3.61
X7.38Y-4.49
X7.38Y-4.71
X7.38Y-4.98
X7.42Y-2.02
X7.42Y-2.18
X7.42Y-2.63
X7.42Y-2.79
X7.42Y-2.87
X7.42Y-2.95
X7.42Y-3.03
X7.42Y-3.11
X7.42Y-3.27
X7.42Y-3.73
X7.42Y-3.89
X7.42Y-3.97
X7.42Y-4.05
X7.42Y-4.13
X7.42Y-4.21
X7.42Y-4.37
X7.42Y-4.82
X7.42Y-4.98
X7.46Y-2.02
X7.46Y-4.98
X7.5Y-2.02
X7.5Y-2.18
X7.5Y-2.63
X7.5Y-2.79
X7.5Y-2.87
X7.5Y-2.95
X7.5Y-3.03
X7.5Y-3.11
X7.5Y-3.27
X7.5Y-3.73
X7.5Y-3.89
X7.5Y-3.97
X7.5Y-4.05
X7.5Y-4.13
X7.5Y-4.21
X7.5Y-4.37
X7.5Y-4.82
X7.5Y-4.98
X7.54Y-2.02
X7.54Y-4.98
X7.58Y-2.02
X7.58Y-2.06
X7.58Y-2.1
X7.58Y-2.14
X7.58Y-2.18
X7.58Y-2.22
X7.58Y-2.59
X7.58Y-2.63
X7.58Y-2.67
X7.58Y-2.71
X7.58Y-2.75
X7.58Y-2.79
X7.58Y-2.83
X7.58Y-2.87
X7.58Y-2.91
X7.58Y-2.95
X7.58Y-2.99
X7.58Y-3.03
X7.58Y-3.07
X7.58Y-3.11
X7.58Y-3.15
X7.58Y-3.19
X7.58Y-3.23
X7.58Y-3.27
X7.58Y-3.31
X7.58Y-3.69
X7.58Y-3.73
X7.58Y-3.77
X7.58Y-3.81
X7.58Y-3.85
X7.58Y-3.89
X7.58Y-3.93
X7.58Y-3.97
X7.58Y-4.01
X7.58Y-4.05
X7.58Y-4.09
X7.58Y-4.13
X7.58Y-4.17
X7.58Y-4.21
X7.58Y-4.25
X7.58Y-4.29
X7.58Y-4.33
X7.58Y-4.37
X7.58Y-4.41
X7.58Y-4.78
X7.58Y-4.82
X7.58Y-4.86
X7.58Y-4.9
X7.58Y-4.94
X7.58Y-4.98
T2
X4.02Y-2.29
X4.02Y-2.51
X4.02Y-3.39
X4.02Y-3.61
X4.02Y-4.49
X4.02Y-4.71
X4.04Y-2.26
X4.04Y-2.54
X4.04Y-3.36
X4.04Y-3.64
X4.04Y-4.46
X4.04Y-4.74
X4.06Y-2.29
X4.06Y-2.51
X4.06Y-3.39
X4.06Y-3.61
X4.06Y-4.49
X4.06Y-4.71
X4.08Y-2.26
X4.08Y-2.54
X4.08Y-3.36
X4.08Y-3.64
X4.08Y-4.46
X4.08Y-4.74
X4.1Y-2.29
X4.1Y-2.51
X4.1Y-3.39
X4.1Y-3.61
X4.1Y-4.49
X4.1Y-4.71
X4.12Y-2.26
X4.12Y-2.54
X4.12Y-3.36
X4.12Y-3.64
X4.12Y-4.46
X4.12Y-4.74
X4.14Y-2.29
X4.14Y-2.51
X4.14Y-3.39
X4.14Y-3.61
X4.14Y-4.49
X4.14Y-4.71
X4.16Y-2.26
X4.16Y-2.54
X4.16Y-3.36
X4.16Y-3.64
X4.16Y-4.46
X4.16Y-4.74
X4.18Y-2.29
X4.18Y-2.51
X4.18Y-3.39
X4.18Y-3.61
X4.18Y-4.49
X4.18Y-4.71
X5.76Y-3.402
X5.7623Y-3.341
X5.78Y-3.372
X5.78Y-3.432
X5.782Y-3.312
X5.8Y-3.342
X5.8Y-3.402
X5.8Y-3.462
X5.8Y-3.492
X5.8Y-3.522
X5.82Y-3.312
X5.82Y-3.372
X5.82Y-3.432
X5.84Y-3.341
X5.84Y-3.402
X7.42Y-2.29
X7.42Y-2.51
X7.42Y-3.39
X7.42Y-3.61
X7.42Y-4.49
X7.42Y-4.71
X7.44Y-2.26
X7.44Y-2.54
X7.44Y-3.36
X7.44Y-3.64
X7.44Y-4.46
X7.44Y-4.74
X7.46Y-2.29
X7.46Y-2.51
X7.46Y-3.39
X7.46Y-3.61
X7.46Y-4.49
X7.46Y-4.71
X7.48Y-2.26
X7.48Y-2.54
X7.48Y-3.36
X7.48Y-3.64
X7.48Y-4.46
X7.48Y-4.74
X7.5Y-2.29
X7.5Y-2.51
X7.5Y-3.39
X7.5Y-3.61
X7.5Y-4.49
X7.5Y-4.71
X7.52Y-2.26
X7.52Y-2.54
X7.52Y-3.36
X7.52Y-3.64
X7.52Y-4.46
X7.52Y-4.74
X7.54Y-2.29
X7.54Y-2.51
X7.54Y-3.39
X7.54Y-3.61
X7.54Y-4.49
X7.54Y-4.71
X7.56Y-2.26
X7.56Y-2.54
X7.56Y-3.36
X7.56Y-3.64
X7.56Y-4.46
X7.56Y-4.74
X7.58Y-2.29
X7.58Y-2.51
X7.58Y-3.39
X7.58Y-3.61
X7.58Y-4.49
X7.58Y-4.71
T3
X4.15Y-2.1
X4.15Y-2.7
X4.15Y-3.2
X4.15Y-3.8
X4.15Y-4.3
X4.15Y-4.9
X7.45Y-2.1
X7.45Y-2.7
X7.45Y-3.2
X7.45Y-3.8
X7.45Y-4.3
X7.45Y-4.9
M30
