%TF.GenerationSoftware,KiCad,Pcbnew,8.0.4*%
%TF.CreationDate,2024-08-26T14:53:49-04:00*%
%TF.ProjectId,S-Band_1W_R1,532d4261-6e64-45f3-9157-5f52312e6b69,0*%
%TF.SameCoordinates,Original*%
%TF.FileFunction,Copper,L1,Top*%
%TF.FilePolarity,Positive*%
%FSLAX46Y46*%
G04 Gerber Fmt 4.6, Leading zero omitted, Abs format (unit mm)*
G04 Created by KiCad (PCBNEW 8.0.4) date 2024-08-26 14:53:49*
%MOMM*%
%LPD*%
G01*
G04 APERTURE LIST*
G04 Aperture macros list*
%AMRotRect*
0 Rectangle, with rotation*
0 The origin of the aperture is its center*
0 $1 length*
0 $2 width*
0 $3 Rotation angle, in degrees counterclockwise*
0 Add horizontal line*
21,1,$1,$2,0,0,$3*%
%AMFreePoly0*
4,1,21,0.460736,2.670536,0.956036,2.175236,0.957500,2.171700,0.957500,-0.673100,0.956036,-0.676636,0.462200,-1.170472,0.462200,-2.667000,0.460736,-2.670536,0.457200,-2.672000,-0.457200,-2.672000,-0.460736,-2.670536,-0.462200,-2.667000,-0.462200,-1.170472,-0.956036,-0.676636,-0.957500,-0.673100,-0.957500,2.171700,-0.956036,2.175236,-0.460736,2.670536,-0.457200,2.672000,0.457200,2.672000,
0.460736,2.670536,0.460736,2.670536,$1*%
G04 Aperture macros list end*
%TA.AperFunction,Conductor*%
%ADD10C,0.177800*%
%TD*%
%TA.AperFunction,ComponentPad*%
%ADD11C,0.635000*%
%TD*%
%TA.AperFunction,SMDPad,CuDef*%
%ADD12R,4.572000X1.016000*%
%TD*%
%TA.AperFunction,SMDPad,CuDef*%
%ADD13R,4.572000X0.863600*%
%TD*%
%TA.AperFunction,HeatsinkPad*%
%ADD14C,0.635000*%
%TD*%
%TA.AperFunction,SMDPad,CuDef*%
%ADD15FreePoly0,0.000000*%
%TD*%
%TA.AperFunction,SMDPad,CuDef*%
%ADD16R,0.711200X1.498600*%
%TD*%
%TA.AperFunction,SMDPad,CuDef*%
%ADD17R,2.032000X1.270000*%
%TD*%
%TA.AperFunction,SMDPad,CuDef*%
%ADD18RotRect,0.787400X2.463800X315.000000*%
%TD*%
%TA.AperFunction,SMDPad,CuDef*%
%ADD19R,1.016000X1.397000*%
%TD*%
%TA.AperFunction,SMDPad,CuDef*%
%ADD20R,0.812800X0.939800*%
%TD*%
%TA.AperFunction,SMDPad,CuDef*%
%ADD21R,0.508000X0.660400*%
%TD*%
%TA.AperFunction,SMDPad,CuDef*%
%ADD22R,0.660400X0.914400*%
%TD*%
%TA.AperFunction,SMDPad,CuDef*%
%ADD23R,0.558800X6.350000*%
%TD*%
%TA.AperFunction,SMDPad,CuDef*%
%ADD24R,0.660400X0.508000*%
%TD*%
%TA.AperFunction,SMDPad,CuDef*%
%ADD25R,0.914400X0.660400*%
%TD*%
%TA.AperFunction,ViaPad*%
%ADD26C,0.635000*%
%TD*%
%TA.AperFunction,ViaPad*%
%ADD27C,2.794000*%
%TD*%
%TA.AperFunction,Conductor*%
%ADD28C,1.092200*%
%TD*%
G04 APERTURE END LIST*
%TA.AperFunction,Conductor*%
%TO.N,Net-(L6-Pad2)*%
G36*
X147040600Y-115087400D02*
G01*
X147599400Y-115087400D01*
X147599400Y-117144800D01*
X147040600Y-117144800D01*
X147040600Y-115087400D01*
G37*
%TD.AperFunction*%
%TA.AperFunction,Conductor*%
%TO.N,/J2*%
G36*
X188391800Y-60413900D02*
G01*
X192963800Y-60413900D01*
X192963800Y-61506100D01*
X188391800Y-61506100D01*
X188391800Y-60413900D01*
G37*
%TD.AperFunction*%
%TA.AperFunction,Conductor*%
%TO.N,GND*%
G36*
X146862800Y-89433400D02*
G01*
X147777200Y-89433400D01*
X147777200Y-90322400D01*
X146862800Y-90322400D01*
X146862800Y-89433400D01*
G37*
%TD.AperFunction*%
D10*
X147040600Y-89128600D02*
X147040600Y-89179400D01*
X147040600Y-89128600D01*
%TA.AperFunction,Conductor*%
%TO.N,/J1*%
G36*
X101676200Y-60413900D02*
G01*
X106248200Y-60413900D01*
X106248200Y-61506100D01*
X101676200Y-61506100D01*
X101676200Y-60413900D01*
G37*
%TD.AperFunction*%
%TA.AperFunction,Conductor*%
%TO.N,Net-(C8-Pad2)*%
G36*
X147751800Y-91744800D02*
G01*
X149428200Y-91744800D01*
X149428200Y-92659200D01*
X147751800Y-92659200D01*
X147751800Y-91744800D01*
G37*
%TD.AperFunction*%
%TA.AperFunction,Conductor*%
%TO.N,Net-(C4-Pad2)*%
G36*
X146989800Y-62738000D02*
G01*
X147650200Y-62738000D01*
X147650200Y-64008000D01*
X146989800Y-64008000D01*
X146989800Y-62738000D01*
G37*
%TD.AperFunction*%
%TA.AperFunction,Conductor*%
%TO.N,Net-(C1-Pad1)*%
G36*
X146989800Y-59690000D02*
G01*
X147650200Y-59690000D01*
X147650200Y-62230000D01*
X146989800Y-62230000D01*
X146989800Y-59690000D01*
G37*
%TD.AperFunction*%
%TA.AperFunction,Conductor*%
%TO.N,Net-(C2-Pad1)*%
G36*
X144780000Y-60629800D02*
G01*
X146050000Y-60629800D01*
X146050000Y-61290200D01*
X144780000Y-61290200D01*
X144780000Y-60629800D01*
G37*
%TD.AperFunction*%
%TA.AperFunction,Conductor*%
%TO.N,Net-(C1-Pad1)*%
G36*
X146558000Y-60629800D02*
G01*
X148082000Y-60629800D01*
X148082000Y-61290200D01*
X146558000Y-61290200D01*
X146558000Y-60629800D01*
G37*
%TD.AperFunction*%
%TA.AperFunction,Conductor*%
%TO.N,Net-(C3-Pad2)*%
G36*
X148590000Y-60629800D02*
G01*
X149860000Y-60629800D01*
X149860000Y-61290200D01*
X148590000Y-61290200D01*
X148590000Y-60629800D01*
G37*
%TD.AperFunction*%
%TA.AperFunction,Conductor*%
%TO.N,Net-(C1-Pad2)*%
G36*
X146989800Y-57912000D02*
G01*
X147650200Y-57912000D01*
X147650200Y-59182000D01*
X146989800Y-59182000D01*
X146989800Y-57912000D01*
G37*
%TD.AperFunction*%
%TA.AperFunction,Conductor*%
%TO.N,Net-(J7-Pad2)*%
G36*
X145542000Y-96901000D02*
G01*
X149199600Y-96901000D01*
X149199600Y-98171000D01*
X145542000Y-98171000D01*
X145542000Y-96901000D01*
G37*
%TD.AperFunction*%
%TA.AperFunction,Conductor*%
%TO.N,/J6*%
G36*
X188391800Y-116293900D02*
G01*
X192963800Y-116293900D01*
X192963800Y-117386100D01*
X188391800Y-117386100D01*
X188391800Y-116293900D01*
G37*
%TD.AperFunction*%
%TA.AperFunction,Conductor*%
%TO.N,/J3*%
G36*
X101676200Y-88353900D02*
G01*
X106248200Y-88353900D01*
X106248200Y-89446100D01*
X101676200Y-89446100D01*
X101676200Y-88353900D01*
G37*
%TD.AperFunction*%
%TA.AperFunction,Conductor*%
%TO.N,/J5*%
G36*
X101676200Y-116293900D02*
G01*
X106248200Y-116293900D01*
X106248200Y-117386100D01*
X101676200Y-117386100D01*
X101676200Y-116293900D01*
G37*
%TD.AperFunction*%
%TA.AperFunction,Conductor*%
%TO.N,Net-(C5-Pad1)*%
G36*
X150164800Y-90970100D02*
G01*
X151079200Y-90970100D01*
X151079200Y-98234500D01*
X150164800Y-98234500D01*
X150164800Y-90970100D01*
G37*
%TD.AperFunction*%
%TA.AperFunction,Conductor*%
%TO.N,/J4*%
G36*
X188391800Y-88353900D02*
G01*
X192963800Y-88353900D01*
X192963800Y-89446100D01*
X188391800Y-89446100D01*
X188391800Y-88353900D01*
G37*
%TD.AperFunction*%
%TD*%
D11*
%TO.P,J1,0*%
%TO.N,GND*%
X106172000Y-63754000D03*
X106172000Y-58166000D03*
X105664000Y-64516000D03*
X105664000Y-57404000D03*
X105156000Y-63754000D03*
X105156000Y-58166000D03*
X104648000Y-64516000D03*
X104648000Y-57404000D03*
X104140000Y-63754000D03*
X104140000Y-58166000D03*
D12*
X103962200Y-63728600D03*
X103962200Y-58191400D03*
D11*
X103632000Y-64516000D03*
X103632000Y-57404000D03*
X103124000Y-63754000D03*
X103124000Y-58166000D03*
X102616000Y-64516000D03*
X102616000Y-57404000D03*
X102108000Y-63754000D03*
X102108000Y-58166000D03*
D13*
%TO.P,J1,1,Pin_1*%
%TO.N,/J1*%
X103962200Y-60960000D03*
%TD*%
D11*
%TO.P,J3,0*%
%TO.N,GND*%
X106172000Y-91694000D03*
X106172000Y-86106000D03*
X105664000Y-92456000D03*
X105664000Y-85344000D03*
X105156000Y-91694000D03*
X105156000Y-86106000D03*
X104648000Y-92456000D03*
X104648000Y-85344000D03*
X104140000Y-91694000D03*
X104140000Y-86106000D03*
D12*
X103962200Y-91668600D03*
X103962200Y-86131400D03*
D11*
X103632000Y-92456000D03*
X103632000Y-85344000D03*
X103124000Y-91694000D03*
X103124000Y-86106000D03*
X102616000Y-92456000D03*
X102616000Y-85344000D03*
X102108000Y-91694000D03*
X102108000Y-86106000D03*
D13*
%TO.P,J3,1,Pin_1*%
%TO.N,/J3*%
X103962200Y-88900000D03*
%TD*%
D11*
%TO.P,J2,0*%
%TO.N,GND*%
X188468000Y-58166000D03*
X188468000Y-63754000D03*
X188976000Y-57404000D03*
X188976000Y-64516000D03*
X189484000Y-58166000D03*
X189484000Y-63754000D03*
X189992000Y-57404000D03*
X189992000Y-64516000D03*
X190500000Y-58166000D03*
X190500000Y-63754000D03*
D12*
X190677800Y-58191400D03*
X190677800Y-63728600D03*
D11*
X191008000Y-57404000D03*
X191008000Y-64516000D03*
X191516000Y-58166000D03*
X191516000Y-63754000D03*
X192024000Y-57404000D03*
X192024000Y-64516000D03*
X192532000Y-58166000D03*
X192532000Y-63754000D03*
D13*
%TO.P,J2,1,Pin_1*%
%TO.N,/J2*%
X190677800Y-60960000D03*
%TD*%
D11*
%TO.P,J4,0*%
%TO.N,GND*%
X188468000Y-86106000D03*
X188468000Y-91694000D03*
X188976000Y-85344000D03*
X188976000Y-92456000D03*
X189484000Y-86106000D03*
X189484000Y-91694000D03*
X189992000Y-85344000D03*
X189992000Y-92456000D03*
X190500000Y-86106000D03*
X190500000Y-91694000D03*
D12*
X190677800Y-86131400D03*
X190677800Y-91668600D03*
D11*
X191008000Y-85344000D03*
X191008000Y-92456000D03*
X191516000Y-86106000D03*
X191516000Y-91694000D03*
X192024000Y-85344000D03*
X192024000Y-92456000D03*
X192532000Y-86106000D03*
X192532000Y-91694000D03*
D13*
%TO.P,J4,1,Pin_1*%
%TO.N,/J4*%
X190677800Y-88900000D03*
%TD*%
D14*
%TO.P,U1,0*%
%TO.N,GND*%
X146304000Y-86410800D03*
X146362500Y-84861400D03*
X146812000Y-85648800D03*
X146812000Y-87172800D03*
X146862800Y-84124800D03*
X147320000Y-84886800D03*
X147320000Y-86410800D03*
D15*
X147320000Y-86779100D03*
D14*
X147320000Y-87934800D03*
X147320000Y-88696800D03*
X147320000Y-89458800D03*
X147828000Y-84124800D03*
X147828000Y-85648800D03*
X147828000Y-87172800D03*
X148336000Y-84861400D03*
X148336000Y-86410800D03*
D16*
%TO.P,U1,1*%
%TO.N,Net-(C11-Pad1)*%
X145821400Y-88696800D03*
%TO.P,U1,3*%
%TO.N,Net-(C10-Pad1)*%
X148818600Y-88696800D03*
%TD*%
D11*
%TO.P,J5,0*%
%TO.N,GND*%
X106172000Y-119634000D03*
X106172000Y-114046000D03*
X105664000Y-120396000D03*
X105664000Y-113284000D03*
X105156000Y-119634000D03*
X105156000Y-114046000D03*
X104648000Y-120396000D03*
X104648000Y-113284000D03*
X104140000Y-119634000D03*
X104140000Y-114046000D03*
D12*
X103962200Y-119608600D03*
X103962200Y-114071400D03*
D11*
X103632000Y-120396000D03*
X103632000Y-113284000D03*
X103124000Y-119634000D03*
X103124000Y-114046000D03*
X102616000Y-120396000D03*
X102616000Y-113284000D03*
X102108000Y-119634000D03*
X102108000Y-114046000D03*
D13*
%TO.P,J5,1,Pin_1*%
%TO.N,/J5*%
X103962200Y-116840000D03*
%TD*%
D11*
%TO.P,J6,0*%
%TO.N,GND*%
X188468000Y-114046000D03*
X188468000Y-119634000D03*
X188976000Y-113284000D03*
X188976000Y-120396000D03*
X189484000Y-114046000D03*
X189484000Y-119634000D03*
X189992000Y-113284000D03*
X189992000Y-120396000D03*
X190500000Y-114046000D03*
X190500000Y-119634000D03*
D12*
X190677800Y-114071400D03*
X190677800Y-119608600D03*
D11*
X191008000Y-113284000D03*
X191008000Y-120396000D03*
X191516000Y-114046000D03*
X191516000Y-119634000D03*
X192024000Y-113284000D03*
X192024000Y-120396000D03*
X192532000Y-114046000D03*
X192532000Y-119634000D03*
D13*
%TO.P,J6,1,Pin_1*%
%TO.N,/J6*%
X190677800Y-116840000D03*
%TD*%
D17*
%TO.P,J7,3*%
%TO.N,GND*%
X143128500Y-94996000D03*
%TO.P,J7,2*%
%TO.N,Net-(J7-Pad2)*%
X146557500Y-97536000D03*
%TO.P,J7,1*%
%TO.N,GND*%
X143128500Y-100076000D03*
%TD*%
D18*
%TO.P,L6,1,1*%
%TO.N,/J5*%
X144282211Y-116552632D03*
%TO.P,L6,2,2*%
%TO.N,Net-(L6-Pad2)*%
X146293789Y-117127368D03*
%TD*%
D19*
%TO.P,R1,1*%
%TO.N,Net-(J7-Pad2)*%
X148691600Y-97536000D03*
%TO.P,R1,2*%
%TO.N,Net-(C5-Pad1)*%
X150520400Y-97536000D03*
%TD*%
D20*
%TO.P,C6,1*%
%TO.N,Net-(C5-Pad1)*%
X150672800Y-94742000D03*
%TO.P,C6,2*%
%TO.N,GND*%
X149047200Y-94742000D03*
%TD*%
D21*
%TO.P,L3,1,1*%
%TO.N,Net-(C3-Pad2)*%
X149606000Y-60960000D03*
%TO.P,L3,2,2*%
%TO.N,/J2*%
X150622000Y-60960000D03*
%TD*%
D22*
%TO.P,C15,1*%
%TO.N,Net-(C15-Pad1)*%
X147320000Y-108762800D03*
%TO.P,C15,2*%
%TO.N,GND*%
X148844000Y-108762800D03*
%TD*%
D23*
%TO.P,NT1,1*%
%TO.N,Net-(L6-Pad2)*%
X147320000Y-112801400D03*
%TO.P,NT1,2*%
%TO.N,Net-(C15-Pad1)*%
X147320000Y-106451400D03*
%TD*%
D22*
%TO.P,C10,1*%
%TO.N,Net-(C10-Pad1)*%
X177038000Y-88900000D03*
%TO.P,C10,2*%
%TO.N,/J4*%
X178562000Y-88900000D03*
%TD*%
D24*
%TO.P,C1,1*%
%TO.N,Net-(C1-Pad1)*%
X147320000Y-59944000D03*
%TO.P,C1,2*%
%TO.N,Net-(C1-Pad2)*%
X147320000Y-58928000D03*
%TD*%
D25*
%TO.P,R3,1*%
%TO.N,/J3*%
X114300000Y-89115900D03*
%TO.P,R3,2*%
%TO.N,GND*%
X114300000Y-90639900D03*
%TD*%
D21*
%TO.P,C2,1*%
%TO.N,Net-(C2-Pad1)*%
X145796000Y-60960000D03*
%TO.P,C2,2*%
%TO.N,Net-(C1-Pad1)*%
X146812000Y-60960000D03*
%TD*%
D22*
%TO.P,R2,1*%
%TO.N,Net-(C8-Pad2)*%
X148082000Y-92202000D03*
%TO.P,R2,2*%
%TO.N,GND*%
X146558000Y-92202000D03*
%TD*%
D25*
%TO.P,C14,1*%
%TO.N,Net-(C10-Pad1)*%
X163195000Y-89115900D03*
%TO.P,C14,2*%
%TO.N,GND*%
X163195000Y-90639900D03*
%TD*%
D21*
%TO.P,C3,1*%
%TO.N,Net-(C1-Pad1)*%
X147828000Y-60960000D03*
%TO.P,C3,2*%
%TO.N,Net-(C3-Pad2)*%
X148844000Y-60960000D03*
%TD*%
D25*
%TO.P,C11,1*%
%TO.N,Net-(C11-Pad1)*%
X131064000Y-89115900D03*
%TO.P,C11,2*%
%TO.N,GND*%
X131064000Y-90639900D03*
%TD*%
D20*
%TO.P,C5,1*%
%TO.N,Net-(C5-Pad1)*%
X150672800Y-96012000D03*
%TO.P,C5,2*%
%TO.N,GND*%
X149047200Y-96012000D03*
%TD*%
D25*
%TO.P,C12,1*%
%TO.N,Net-(C11-Pad1)*%
X144221200Y-89115900D03*
%TO.P,C12,2*%
%TO.N,GND*%
X144221200Y-90639900D03*
%TD*%
D21*
%TO.P,L2,1,1*%
%TO.N,/J1*%
X144018000Y-60960000D03*
%TO.P,L2,2,2*%
%TO.N,Net-(C2-Pad1)*%
X145034000Y-60960000D03*
%TD*%
D24*
%TO.P,C4,1*%
%TO.N,Net-(C1-Pad1)*%
X147320000Y-61976000D03*
%TO.P,C4,2*%
%TO.N,Net-(C4-Pad2)*%
X147320000Y-62992000D03*
%TD*%
D25*
%TO.P,C13,1*%
%TO.N,Net-(C10-Pad1)*%
X153289000Y-89115900D03*
%TO.P,C13,2*%
%TO.N,GND*%
X153289000Y-90639900D03*
%TD*%
D22*
%TO.P,C9,1*%
%TO.N,/J3*%
X116078000Y-88900000D03*
%TO.P,C9,2*%
%TO.N,Net-(C11-Pad1)*%
X117602000Y-88900000D03*
%TD*%
D20*
%TO.P,C7,1*%
%TO.N,Net-(C5-Pad1)*%
X150672800Y-93472000D03*
%TO.P,C7,2*%
%TO.N,GND*%
X149047200Y-93472000D03*
%TD*%
D22*
%TO.P,C8,1*%
%TO.N,Net-(C5-Pad1)*%
X150622000Y-92202000D03*
%TO.P,C8,2*%
%TO.N,Net-(C8-Pad2)*%
X149098000Y-92202000D03*
%TD*%
D24*
%TO.P,L4,1,1*%
%TO.N,Net-(C4-Pad2)*%
X147320000Y-63754000D03*
%TO.P,L4,2,2*%
%TO.N,GND*%
X147320000Y-64770000D03*
%TD*%
D25*
%TO.P,L5,1,1*%
%TO.N,Net-(C5-Pad1)*%
X150622000Y-90639900D03*
%TO.P,L5,2,2*%
%TO.N,Net-(C10-Pad1)*%
X150622000Y-89115900D03*
%TD*%
D18*
%TO.P,L7,1,1*%
%TO.N,Net-(L6-Pad2)*%
X148346211Y-116552632D03*
%TO.P,L7,2,2*%
%TO.N,/J6*%
X150357789Y-117127368D03*
%TD*%
D25*
%TO.P,R4,1*%
%TO.N,/J4*%
X180340000Y-89115900D03*
%TO.P,R4,2*%
%TO.N,GND*%
X180340000Y-90639900D03*
%TD*%
D24*
%TO.P,L1,1,1*%
%TO.N,GND*%
X147320000Y-57150000D03*
%TO.P,L1,2,2*%
%TO.N,Net-(C1-Pad2)*%
X147320000Y-58166000D03*
%TD*%
D26*
%TO.N,GND*%
X142748000Y-93980000D03*
X179324000Y-51308000D03*
X184404000Y-72898000D03*
X184404000Y-108966000D03*
X136652000Y-64770000D03*
X181356000Y-126492000D03*
X149352000Y-63754000D03*
X110236000Y-104902000D03*
X132588000Y-110998000D03*
X109220000Y-51308000D03*
X145542000Y-103378000D03*
X120396000Y-96774000D03*
X192532000Y-110998000D03*
X176276000Y-126492000D03*
X151384000Y-120142000D03*
X116332000Y-122428000D03*
X106172000Y-94742000D03*
X114300000Y-78994000D03*
X102108000Y-125476000D03*
X175260000Y-114808000D03*
X132588000Y-102870000D03*
X102108000Y-102870000D03*
X170180000Y-126492000D03*
X136652000Y-58928000D03*
X190500000Y-72898000D03*
X108204000Y-76962000D03*
X118364000Y-114808000D03*
X151892000Y-53340000D03*
X112268000Y-55372000D03*
X166116000Y-94742000D03*
X174244000Y-70866000D03*
X111252000Y-62992000D03*
X186436000Y-106934000D03*
X118364000Y-126492000D03*
X184404000Y-113030000D03*
X145796000Y-126492000D03*
X176276000Y-114808000D03*
X173228000Y-86868000D03*
X126492000Y-78994000D03*
X176276000Y-57404000D03*
X174244000Y-98806000D03*
X171196000Y-62992000D03*
X132588000Y-78994000D03*
X113284000Y-62992000D03*
X114300000Y-94742000D03*
X184404000Y-102870000D03*
X162052000Y-78994000D03*
X151892000Y-104902000D03*
X115316000Y-114808000D03*
X167132000Y-51308000D03*
X170180000Y-94742000D03*
X172212000Y-110998000D03*
X174244000Y-124460000D03*
X155956000Y-74930000D03*
X172212000Y-53340000D03*
X147828000Y-76962000D03*
X145542000Y-102362000D03*
X110236000Y-62992000D03*
X157988000Y-74930000D03*
X180340000Y-76962000D03*
X132588000Y-92710000D03*
X141732000Y-58928000D03*
X145542000Y-110490000D03*
X134620000Y-53340000D03*
X153924000Y-98806000D03*
X170180000Y-58928000D03*
X155956000Y-106934000D03*
X155956000Y-86868000D03*
X139700000Y-86868000D03*
X138684000Y-53340000D03*
X130556000Y-86868000D03*
X186436000Y-74930000D03*
X151892000Y-81026000D03*
X134620000Y-100838000D03*
X157988000Y-76962000D03*
X146304000Y-56642000D03*
X114300000Y-72898000D03*
X114300000Y-85090000D03*
X178308000Y-106934000D03*
X182372000Y-122428000D03*
X160020000Y-110998000D03*
X167132000Y-86868000D03*
X156972000Y-126492000D03*
X130556000Y-72898000D03*
X106172000Y-55372000D03*
X146812000Y-53340000D03*
X130556000Y-81026000D03*
X178308000Y-126492000D03*
X124460000Y-122428000D03*
X122428000Y-51308000D03*
X149098000Y-103378000D03*
X136652000Y-114808000D03*
X146812000Y-66802000D03*
X157988000Y-96774000D03*
X132588000Y-66802000D03*
X191516000Y-51308000D03*
X162052000Y-106934000D03*
X167132000Y-90932000D03*
X142748000Y-81026000D03*
X128524000Y-90932000D03*
X124460000Y-114808000D03*
X179324000Y-62992000D03*
X110236000Y-106934000D03*
X153924000Y-124460000D03*
X120396000Y-100838000D03*
X160020000Y-72898000D03*
X122428000Y-124460000D03*
X104140000Y-76962000D03*
X160020000Y-118872000D03*
X178308000Y-122428000D03*
X172212000Y-72898000D03*
X140716000Y-102870000D03*
X132588000Y-85090000D03*
X166116000Y-74930000D03*
X184404000Y-86868000D03*
X143764000Y-90932000D03*
X149860000Y-74930000D03*
X110236000Y-57404000D03*
X157988000Y-106934000D03*
X182372000Y-85090000D03*
X134620000Y-113030000D03*
X106172000Y-51308000D03*
X180340000Y-70866000D03*
X172212000Y-118872000D03*
X120396000Y-72898000D03*
X168148000Y-102870000D03*
X116332000Y-113030000D03*
X120396000Y-124460000D03*
D27*
X105410000Y-109220000D03*
D26*
X157988000Y-90932000D03*
X102108000Y-98806000D03*
X114300000Y-66802000D03*
X157988000Y-120396000D03*
X142748000Y-110998000D03*
X149352000Y-120142000D03*
X102108000Y-74930000D03*
X187452000Y-119634000D03*
X116332000Y-51308000D03*
X176276000Y-102870000D03*
X176276000Y-104902000D03*
X128524000Y-126492000D03*
X114300000Y-70866000D03*
X114300000Y-122428000D03*
X136652000Y-120396000D03*
X124460000Y-120396000D03*
X164084000Y-113030000D03*
X178308000Y-81026000D03*
X184404000Y-57404000D03*
X108204000Y-113030000D03*
X102108000Y-82042000D03*
X124460000Y-78994000D03*
X160020000Y-104902000D03*
X123444000Y-126492000D03*
X140716000Y-66802000D03*
X143764000Y-86868000D03*
X182372000Y-110998000D03*
X110236000Y-81026000D03*
X102108000Y-105918000D03*
X155956000Y-114808000D03*
X134620000Y-92710000D03*
X112268000Y-122428000D03*
X185420000Y-63246000D03*
X173228000Y-62992000D03*
X138684000Y-98806000D03*
X179324000Y-58928000D03*
X144272000Y-120142000D03*
X122428000Y-72898000D03*
X131572000Y-51308000D03*
X126492000Y-120396000D03*
X186436000Y-68834000D03*
X152908000Y-90932000D03*
X110236000Y-74930000D03*
X131572000Y-58928000D03*
X118364000Y-100838000D03*
X160020000Y-102870000D03*
X192532000Y-106934000D03*
X183388000Y-86868000D03*
X160020000Y-122428000D03*
X155956000Y-58928000D03*
X170180000Y-76962000D03*
X114300000Y-90932000D03*
X192532000Y-98806000D03*
X153924000Y-74930000D03*
X130556000Y-58928000D03*
X120396000Y-118872000D03*
X178308000Y-85090000D03*
X110236000Y-58928000D03*
X114300000Y-58928000D03*
X108204000Y-126492000D03*
X131572000Y-118872000D03*
X182372000Y-68834000D03*
D27*
X189230000Y-53340000D03*
D26*
X184404000Y-81026000D03*
X170180000Y-83058000D03*
X134620000Y-68834000D03*
X153924000Y-108966000D03*
X106172000Y-110998000D03*
X165100000Y-86868000D03*
X126492000Y-53340000D03*
X180340000Y-118872000D03*
X114300000Y-55372000D03*
X166116000Y-83058000D03*
X144780000Y-62992000D03*
X132588000Y-72898000D03*
X123444000Y-114808000D03*
X138684000Y-81026000D03*
X165100000Y-126492000D03*
X132588000Y-98806000D03*
X113284000Y-126492000D03*
X178308000Y-68834000D03*
X141224000Y-119888000D03*
X140716000Y-104902000D03*
X155956000Y-100838000D03*
X183388000Y-62992000D03*
X132588000Y-58928000D03*
X112268000Y-113030000D03*
X134620000Y-66802000D03*
X112268000Y-74930000D03*
X102108000Y-72898000D03*
X138684000Y-122428000D03*
X173228000Y-126492000D03*
X184404000Y-66802000D03*
X134620000Y-118872000D03*
X102108000Y-51308000D03*
X130556000Y-106934000D03*
X186436000Y-70866000D03*
X129540000Y-118872000D03*
X134620000Y-94742000D03*
X186436000Y-64770000D03*
X192532000Y-74930000D03*
X163068000Y-51308000D03*
X153924000Y-62992000D03*
X136652000Y-110998000D03*
X186436000Y-81026000D03*
X161036000Y-62992000D03*
X141732000Y-86868000D03*
X161036000Y-114808000D03*
X116332000Y-62992000D03*
X166116000Y-120396000D03*
X174244000Y-57404000D03*
X126492000Y-118872000D03*
X174244000Y-120396000D03*
X153924000Y-55372000D03*
X127508000Y-114808000D03*
X122428000Y-102870000D03*
X107188000Y-63754000D03*
X188468000Y-94742000D03*
X177292000Y-86868000D03*
X164084000Y-94742000D03*
X157988000Y-81026000D03*
X114300000Y-126492000D03*
X182372000Y-66802000D03*
X104140000Y-106934000D03*
X160020000Y-57404000D03*
X138684000Y-76962000D03*
X115316000Y-58928000D03*
X165100000Y-58928000D03*
X172212000Y-124460000D03*
X127508000Y-86868000D03*
X126492000Y-96774000D03*
X106172000Y-122428000D03*
X134620000Y-64770000D03*
X174244000Y-104902000D03*
X116332000Y-90932000D03*
X131572000Y-90932000D03*
X142748000Y-122428000D03*
X147828000Y-81026000D03*
X172212000Y-78994000D03*
X134620000Y-90932000D03*
X167132000Y-118872000D03*
D27*
X189230000Y-96520000D03*
D26*
X151892000Y-62992000D03*
X102108000Y-101854000D03*
X182372000Y-58928000D03*
X126492000Y-104902000D03*
X132588000Y-64770000D03*
X184404000Y-64770000D03*
X163068000Y-114808000D03*
X104140000Y-72898000D03*
X128524000Y-114808000D03*
D27*
X105410000Y-81280000D03*
D26*
X134620000Y-86868000D03*
X174244000Y-96774000D03*
X118364000Y-122428000D03*
X160020000Y-55372000D03*
X153924000Y-113030000D03*
X170180000Y-68834000D03*
X184404000Y-104902000D03*
X135636000Y-90932000D03*
X192532000Y-75946000D03*
X164084000Y-72898000D03*
X182372000Y-104902000D03*
X124460000Y-102870000D03*
X155956000Y-66802000D03*
X120396000Y-114808000D03*
X118364000Y-81026000D03*
X102108000Y-76962000D03*
X152908000Y-58928000D03*
X131572000Y-62992000D03*
X122428000Y-94742000D03*
X192532000Y-69850000D03*
X126492000Y-126492000D03*
X118364000Y-76962000D03*
X134620000Y-74930000D03*
X159004000Y-51308000D03*
X168148000Y-53340000D03*
X153924000Y-110998000D03*
X126492000Y-55372000D03*
X142748000Y-58928000D03*
X118364000Y-62992000D03*
X188468000Y-122428000D03*
X140716000Y-78994000D03*
X166116000Y-106934000D03*
X176276000Y-85090000D03*
X146812000Y-98806000D03*
X142748000Y-64770000D03*
X172212000Y-96774000D03*
X128524000Y-86868000D03*
X112268000Y-62992000D03*
X156972000Y-58928000D03*
X162052000Y-76962000D03*
X186436000Y-119380000D03*
X192532000Y-65786000D03*
X161036000Y-51308000D03*
X184404000Y-76962000D03*
X156972000Y-62992000D03*
X121412000Y-114808000D03*
X123444000Y-62992000D03*
X166116000Y-57404000D03*
X120396000Y-55372000D03*
X167132000Y-114808000D03*
X113284000Y-118872000D03*
X120396000Y-51308000D03*
X129540000Y-62992000D03*
X110236000Y-122428000D03*
X186436000Y-100838000D03*
X174244000Y-51308000D03*
X106172000Y-70866000D03*
X187452000Y-126492000D03*
X170180000Y-120396000D03*
X186436000Y-57404000D03*
X174244000Y-108966000D03*
X170180000Y-114808000D03*
X176276000Y-108966000D03*
X188468000Y-110998000D03*
X142748000Y-83058000D03*
X143764000Y-58928000D03*
X147320000Y-56642000D03*
X122428000Y-113030000D03*
X123444000Y-58928000D03*
X192532000Y-82042000D03*
X114300000Y-96774000D03*
X138684000Y-108966000D03*
X182372000Y-113030000D03*
X136652000Y-98806000D03*
X118364000Y-70866000D03*
X110236000Y-86868000D03*
X116332000Y-78994000D03*
X153924000Y-66802000D03*
X190500000Y-106934000D03*
X130556000Y-62992000D03*
X102108000Y-70866000D03*
X149860000Y-51308000D03*
X184404000Y-53340000D03*
X162052000Y-110998000D03*
X142748000Y-53340000D03*
X160020000Y-74930000D03*
X137668000Y-90932000D03*
X128524000Y-113030000D03*
X164084000Y-106934000D03*
X125476000Y-51308000D03*
X145542000Y-108458000D03*
X124460000Y-85090000D03*
X136652000Y-62992000D03*
X123444000Y-86868000D03*
X131572000Y-114808000D03*
X136652000Y-94742000D03*
X124460000Y-55372000D03*
D27*
X105410000Y-53340000D03*
D26*
X108204000Y-122428000D03*
X124460000Y-57404000D03*
D27*
X105410000Y-124460000D03*
D26*
X128524000Y-78994000D03*
X126492000Y-122428000D03*
X121412000Y-90932000D03*
X149098000Y-113538000D03*
X146812000Y-78994000D03*
X149860000Y-55372000D03*
X153924000Y-106934000D03*
X136652000Y-53340000D03*
X160020000Y-64770000D03*
X124460000Y-106934000D03*
X140716000Y-74930000D03*
X125476000Y-62992000D03*
X151892000Y-108966000D03*
X147828000Y-72898000D03*
X166116000Y-108966000D03*
X126492000Y-66802000D03*
X149860000Y-100838000D03*
X109220000Y-91186000D03*
X115316000Y-86868000D03*
X170180000Y-102870000D03*
X151892000Y-55372000D03*
X108204000Y-102870000D03*
X178308000Y-90932000D03*
X178308000Y-58928000D03*
X130556000Y-114808000D03*
X157988000Y-124460000D03*
X167132000Y-126492000D03*
X181356000Y-86868000D03*
X176276000Y-83058000D03*
X133604000Y-90932000D03*
X116332000Y-55372000D03*
X180340000Y-78994000D03*
X174244000Y-83058000D03*
X177292000Y-90932000D03*
X187452000Y-51308000D03*
X130556000Y-108966000D03*
X110236000Y-96774000D03*
X151892000Y-58928000D03*
X164084000Y-104902000D03*
X140716000Y-108966000D03*
X149098000Y-110490000D03*
X177292000Y-114808000D03*
X145288000Y-57150000D03*
X166116000Y-81026000D03*
X124460000Y-124460000D03*
X160020000Y-76962000D03*
X157988000Y-86868000D03*
X182372000Y-126492000D03*
X108204000Y-53340000D03*
X138684000Y-120396000D03*
X120396000Y-76962000D03*
X112268000Y-70866000D03*
X155956000Y-126492000D03*
X102108000Y-100838000D03*
X108204000Y-106934000D03*
X157988000Y-70866000D03*
X116332000Y-102870000D03*
X149860000Y-76962000D03*
X130556000Y-90932000D03*
X182372000Y-98806000D03*
X150876000Y-51308000D03*
X192532000Y-95758000D03*
X185420000Y-119126000D03*
X102108000Y-77978000D03*
X164084000Y-96774000D03*
X118364000Y-124460000D03*
X162052000Y-120396000D03*
X178308000Y-78994000D03*
X124460000Y-113030000D03*
X146304000Y-120142000D03*
X170180000Y-92710000D03*
X153924000Y-100838000D03*
X164084000Y-62992000D03*
X166116000Y-104902000D03*
X136652000Y-76962000D03*
X169164000Y-126492000D03*
X174244000Y-106934000D03*
X110236000Y-124460000D03*
X110236000Y-126492000D03*
X144780000Y-86868000D03*
X142748000Y-85090000D03*
X139700000Y-114808000D03*
X184404000Y-92710000D03*
X120396000Y-64770000D03*
X171196000Y-90932000D03*
X178308000Y-100838000D03*
X104140000Y-100838000D03*
X174244000Y-66802000D03*
X184404000Y-124460000D03*
X108204000Y-100838000D03*
X153924000Y-51308000D03*
X118364000Y-78994000D03*
X170180000Y-104902000D03*
X140716000Y-110998000D03*
X120396000Y-62992000D03*
X118364000Y-85090000D03*
X114300000Y-98806000D03*
X192532000Y-84074000D03*
X162052000Y-108966000D03*
X144780000Y-66802000D03*
X141224000Y-113792000D03*
X157988000Y-62992000D03*
X103124000Y-126492000D03*
X190500000Y-70866000D03*
X110236000Y-90932000D03*
X106172000Y-106934000D03*
X102108000Y-66802000D03*
X176276000Y-92710000D03*
X170180000Y-85090000D03*
X106172000Y-78994000D03*
X116332000Y-85090000D03*
X138684000Y-110998000D03*
X136652000Y-106934000D03*
X140716000Y-70866000D03*
X110236000Y-100838000D03*
X122428000Y-62992000D03*
X154940000Y-58928000D03*
X110236000Y-85090000D03*
X179324000Y-126492000D03*
X145288000Y-120142000D03*
X142748000Y-78994000D03*
X138684000Y-92710000D03*
X157988000Y-57404000D03*
X162052000Y-122428000D03*
X144780000Y-96774000D03*
X163068000Y-86868000D03*
X187452000Y-63754000D03*
X120396000Y-74930000D03*
X180340000Y-104902000D03*
X138684000Y-78994000D03*
X179324000Y-86868000D03*
X108204000Y-110998000D03*
X114300000Y-113030000D03*
X149098000Y-105410000D03*
X107188000Y-114046000D03*
X188468000Y-66802000D03*
X128524000Y-100838000D03*
X143764000Y-126492000D03*
X115316000Y-118872000D03*
X136652000Y-74930000D03*
X155956000Y-83058000D03*
X102108000Y-67818000D03*
X170180000Y-78994000D03*
X146812000Y-72898000D03*
X170180000Y-66802000D03*
X138684000Y-96774000D03*
X125476000Y-126492000D03*
X124460000Y-110998000D03*
X142748000Y-124460000D03*
X164084000Y-74930000D03*
X108204000Y-108966000D03*
X115316000Y-62992000D03*
X110236000Y-64770000D03*
X116332000Y-70866000D03*
X108204000Y-114300000D03*
X120396000Y-122428000D03*
X110236000Y-108966000D03*
X130556000Y-85090000D03*
X142748000Y-92710000D03*
X156972000Y-86868000D03*
X157988000Y-102870000D03*
X108204000Y-58420000D03*
X106172000Y-104902000D03*
X134620000Y-104902000D03*
X118364000Y-86868000D03*
X144780000Y-53340000D03*
X180340000Y-74930000D03*
X176276000Y-100838000D03*
X177292000Y-62992000D03*
X104140000Y-122428000D03*
X168148000Y-58928000D03*
X102108000Y-53340000D03*
X128524000Y-118872000D03*
X153924000Y-53340000D03*
X132588000Y-120396000D03*
X178308000Y-102870000D03*
X151892000Y-86868000D03*
X102108000Y-55372000D03*
X170180000Y-100838000D03*
X129540000Y-126492000D03*
X113284000Y-58928000D03*
X136652000Y-68834000D03*
X155956000Y-92710000D03*
X162052000Y-81026000D03*
X132588000Y-100838000D03*
X166116000Y-96774000D03*
X113284000Y-51308000D03*
X132588000Y-62992000D03*
X108204000Y-81026000D03*
X164084000Y-118872000D03*
X165100000Y-118872000D03*
X146812000Y-94742000D03*
X132588000Y-114808000D03*
X115316000Y-90932000D03*
X149860000Y-58928000D03*
X184404000Y-51308000D03*
X138684000Y-86868000D03*
X114300000Y-81026000D03*
X164084000Y-85090000D03*
X180340000Y-53340000D03*
X106172000Y-76962000D03*
X130556000Y-98806000D03*
X164084000Y-126492000D03*
X184404000Y-110998000D03*
X192532000Y-94742000D03*
X132588000Y-106934000D03*
X192532000Y-100838000D03*
X106172000Y-83058000D03*
X192532000Y-108966000D03*
X177292000Y-51308000D03*
X148336000Y-65278000D03*
X160020000Y-108966000D03*
X145542000Y-106426000D03*
X129540000Y-114808000D03*
X112268000Y-57404000D03*
X122428000Y-108966000D03*
X144780000Y-90932000D03*
X102108000Y-106934000D03*
X160020000Y-98806000D03*
X174244000Y-118872000D03*
X172212000Y-126492000D03*
X184404000Y-68834000D03*
X170180000Y-57404000D03*
X153924000Y-58928000D03*
X147828000Y-51308000D03*
X174244000Y-55372000D03*
X188468000Y-78994000D03*
X130556000Y-76962000D03*
X118364000Y-102870000D03*
X153924000Y-94742000D03*
X128524000Y-96774000D03*
X124460000Y-68834000D03*
X128524000Y-120396000D03*
X173228000Y-114808000D03*
X153416000Y-119888000D03*
X142748000Y-72898000D03*
X190500000Y-100838000D03*
X104140000Y-51308000D03*
X126492000Y-58928000D03*
X146812000Y-68834000D03*
X111252000Y-58928000D03*
X172212000Y-104902000D03*
X128524000Y-110998000D03*
X132588000Y-94742000D03*
X160020000Y-106934000D03*
X118364000Y-108966000D03*
X155956000Y-102870000D03*
X136652000Y-78994000D03*
X176276000Y-72898000D03*
X146812000Y-90932000D03*
X147828000Y-74930000D03*
X112268000Y-68834000D03*
X172212000Y-90932000D03*
X182372000Y-62992000D03*
X126492000Y-92710000D03*
X122428000Y-78994000D03*
X157988000Y-83058000D03*
X180340000Y-122428000D03*
X184404000Y-126492000D03*
X184404000Y-83058000D03*
X113284000Y-90932000D03*
X157988000Y-114808000D03*
X184404000Y-62992000D03*
X160020000Y-85090000D03*
X136652000Y-104902000D03*
X188468000Y-98806000D03*
X186436000Y-86360000D03*
X190500000Y-122428000D03*
X149860000Y-98806000D03*
X168148000Y-55372000D03*
X172212000Y-102870000D03*
X151892000Y-66802000D03*
X109220000Y-58674000D03*
X120396000Y-57404000D03*
X114300000Y-92710000D03*
X192532000Y-96774000D03*
X178308000Y-94742000D03*
X181356000Y-62992000D03*
X144780000Y-83058000D03*
X146050000Y-92221050D03*
X136652000Y-100838000D03*
X132588000Y-74930000D03*
X176276000Y-110998000D03*
X119380000Y-62992000D03*
X122428000Y-58928000D03*
D27*
X189230000Y-68580000D03*
D26*
X176276000Y-58928000D03*
X102108000Y-99822000D03*
X132588000Y-81026000D03*
X155956000Y-64770000D03*
X182372000Y-57404000D03*
X164084000Y-108966000D03*
X159004000Y-118872000D03*
X151892000Y-106934000D03*
X157988000Y-98806000D03*
X143764000Y-51308000D03*
X166116000Y-110998000D03*
X120396000Y-104902000D03*
X124460000Y-81026000D03*
X128524000Y-85090000D03*
X130556000Y-83058000D03*
X140716000Y-90932000D03*
X124460000Y-92710000D03*
X122428000Y-83058000D03*
X142748000Y-90932000D03*
X182372000Y-76962000D03*
X164084000Y-57404000D03*
X162052000Y-113030000D03*
X112268000Y-108966000D03*
X157988000Y-100838000D03*
X162052000Y-64770000D03*
X182372000Y-51308000D03*
X112268000Y-64770000D03*
X186436000Y-104902000D03*
X134620000Y-96774000D03*
X157988000Y-108966000D03*
X108204000Y-92710000D03*
X122428000Y-64770000D03*
X162052000Y-68834000D03*
X159004000Y-90932000D03*
X157988000Y-94742000D03*
X112268000Y-51308000D03*
X157988000Y-126492000D03*
X178308000Y-55372000D03*
X125476000Y-90932000D03*
X154940000Y-62992000D03*
X175260000Y-58928000D03*
X162052000Y-58928000D03*
X132588000Y-108966000D03*
X138684000Y-126492000D03*
X153924000Y-76962000D03*
X186436000Y-85090000D03*
X146812000Y-81026000D03*
X180340000Y-72898000D03*
X151892000Y-68834000D03*
X168148000Y-108966000D03*
X154940000Y-114808000D03*
X153924000Y-122428000D03*
X192532000Y-107950000D03*
X110236000Y-51308000D03*
X139700000Y-90932000D03*
X132588000Y-83058000D03*
X164084000Y-64770000D03*
X155956000Y-53340000D03*
X102108000Y-68834000D03*
X178308000Y-74930000D03*
X124460000Y-118872000D03*
X170180000Y-51308000D03*
X134620000Y-108966000D03*
X109220000Y-63246000D03*
X120396000Y-126492000D03*
X168148000Y-113030000D03*
X122428000Y-126492000D03*
X148336000Y-101854000D03*
X144780000Y-51308000D03*
X134620000Y-124460000D03*
X176276000Y-53340000D03*
X110236000Y-98806000D03*
X186436000Y-92710000D03*
X164084000Y-92710000D03*
X176276000Y-64770000D03*
X108204000Y-94742000D03*
X118364000Y-120396000D03*
X152400000Y-120142000D03*
X140716000Y-106934000D03*
X184404000Y-120396000D03*
X142748000Y-126492000D03*
X162052000Y-114808000D03*
X116332000Y-76962000D03*
X175260000Y-126492000D03*
X142748000Y-108966000D03*
X178308000Y-110998000D03*
X126492000Y-72898000D03*
X192532000Y-123444000D03*
X162052000Y-86868000D03*
X112268000Y-110998000D03*
X102108000Y-69850000D03*
X153924000Y-78994000D03*
X168148000Y-70866000D03*
X172212000Y-120396000D03*
X170180000Y-108966000D03*
X160020000Y-92710000D03*
X108204000Y-74930000D03*
X182372000Y-83058000D03*
X108204000Y-124460000D03*
X168148000Y-72898000D03*
X112268000Y-100838000D03*
X192532000Y-101854000D03*
X120396000Y-81026000D03*
X126492000Y-98806000D03*
X192532000Y-56388000D03*
X185420000Y-58674000D03*
X138684000Y-58928000D03*
X169164000Y-58928000D03*
X122428000Y-106934000D03*
X153924000Y-104902000D03*
X149098000Y-112522000D03*
X178308000Y-118872000D03*
X156972000Y-114808000D03*
X166116000Y-64770000D03*
X169164000Y-114808000D03*
X128524000Y-124460000D03*
X153924000Y-86868000D03*
X114300000Y-124460000D03*
X174244000Y-94742000D03*
X104140000Y-94742000D03*
X128524000Y-94742000D03*
X111252000Y-90932000D03*
X140716000Y-122428000D03*
X135636000Y-58928000D03*
X117348000Y-62992000D03*
X155956000Y-104902000D03*
X182372000Y-90932000D03*
X118364000Y-118872000D03*
X192532000Y-77978000D03*
X161036000Y-86868000D03*
X129540000Y-58928000D03*
X148590000Y-96031050D03*
X180340000Y-58928000D03*
X126492000Y-68834000D03*
X104140000Y-110998000D03*
X181356000Y-51308000D03*
X184404000Y-74930000D03*
X121412000Y-126492000D03*
X128524000Y-81026000D03*
X151892000Y-83058000D03*
X140716000Y-118872000D03*
X112268000Y-76962000D03*
X166116000Y-126492000D03*
X176276000Y-66802000D03*
X154940000Y-118872000D03*
X128524000Y-98806000D03*
X192532000Y-51308000D03*
X155956000Y-70866000D03*
X124460000Y-66802000D03*
X182372000Y-74930000D03*
X153924000Y-92710000D03*
X165100000Y-62992000D03*
X140716000Y-81026000D03*
X128524000Y-57404000D03*
X122428000Y-92710000D03*
X137668000Y-86868000D03*
X130556000Y-68834000D03*
X164084000Y-55372000D03*
X160020000Y-113030000D03*
X135636000Y-51308000D03*
X192532000Y-52324000D03*
X144780000Y-76962000D03*
X108204000Y-85090000D03*
X136652000Y-124460000D03*
X151892000Y-94742000D03*
X159004000Y-114808000D03*
X179324000Y-90932000D03*
X162052000Y-72898000D03*
X156972000Y-90932000D03*
X175260000Y-51308000D03*
X109220000Y-119126000D03*
X162052000Y-55372000D03*
X186436000Y-51308000D03*
X136652000Y-108966000D03*
X132588000Y-55372000D03*
X145288000Y-63754000D03*
X124460000Y-98806000D03*
X142748000Y-51308000D03*
X153924000Y-57404000D03*
X116332000Y-66802000D03*
X168148000Y-104902000D03*
X168148000Y-78994000D03*
X168148000Y-92710000D03*
X122428000Y-81026000D03*
X132588000Y-53340000D03*
X118364000Y-104902000D03*
X183388000Y-58928000D03*
X124460000Y-94742000D03*
X164084000Y-68834000D03*
X174244000Y-76962000D03*
X186436000Y-76962000D03*
X164084000Y-76962000D03*
X186436000Y-91440000D03*
X154940000Y-126492000D03*
X162052000Y-57404000D03*
X164084000Y-122428000D03*
X121412000Y-118872000D03*
X110236000Y-68834000D03*
X118364000Y-51308000D03*
X161036000Y-126492000D03*
X130556000Y-66802000D03*
X172212000Y-57404000D03*
X178308000Y-120396000D03*
X149860000Y-83058000D03*
X155956000Y-108966000D03*
X143764000Y-62992000D03*
X137668000Y-62992000D03*
X148844000Y-126492000D03*
X111252000Y-126492000D03*
X147320000Y-101854000D03*
X102108000Y-81026000D03*
X157988000Y-78994000D03*
X116332000Y-57404000D03*
X178308000Y-57404000D03*
X120396000Y-68834000D03*
X140716000Y-76962000D03*
X163068000Y-62992000D03*
X136652000Y-102870000D03*
X126492000Y-51308000D03*
X184404000Y-114808000D03*
X178308000Y-72898000D03*
X102108000Y-95758000D03*
X168148000Y-76962000D03*
X136652000Y-122428000D03*
X192532000Y-122428000D03*
X184404000Y-78994000D03*
X166116000Y-98806000D03*
X145542000Y-104394000D03*
X107188000Y-91694000D03*
X170180000Y-118872000D03*
X176276000Y-76962000D03*
X155956000Y-85090000D03*
X153924000Y-72898000D03*
X122428000Y-86868000D03*
X114300000Y-118872000D03*
X134620000Y-85090000D03*
X147828000Y-53340000D03*
X182372000Y-100838000D03*
X172212000Y-70866000D03*
X184404000Y-122428000D03*
X132588000Y-86868000D03*
X168148000Y-74930000D03*
X148844000Y-90932000D03*
X147320000Y-65278000D03*
X164084000Y-110998000D03*
X184404000Y-58928000D03*
X136652000Y-85090000D03*
X146812000Y-70866000D03*
X136652000Y-70866000D03*
X108204000Y-86360000D03*
X146812000Y-122428000D03*
X155956000Y-62992000D03*
X132588000Y-70866000D03*
X182372000Y-120396000D03*
X174244000Y-64770000D03*
X149098000Y-107442000D03*
X128524000Y-62992000D03*
X168148000Y-94742000D03*
X168148000Y-124460000D03*
X172212000Y-122428000D03*
X180340000Y-113030000D03*
X141732000Y-90932000D03*
X138684000Y-72898000D03*
X133604000Y-62992000D03*
X176276000Y-122428000D03*
X153924000Y-102870000D03*
X192532000Y-126492000D03*
X144780000Y-68834000D03*
X128524000Y-53340000D03*
X112268000Y-58928000D03*
X151892000Y-76962000D03*
X132588000Y-104902000D03*
X122428000Y-74930000D03*
X144780000Y-72898000D03*
X168148000Y-64770000D03*
X112268000Y-126492000D03*
X132588000Y-96774000D03*
X186436000Y-63500000D03*
X128524000Y-72898000D03*
X107188000Y-126492000D03*
X108204000Y-96774000D03*
X184404000Y-85090000D03*
X102108000Y-104902000D03*
X166116000Y-92710000D03*
X118364000Y-53340000D03*
X169164000Y-90932000D03*
X162052000Y-96774000D03*
X186436000Y-83058000D03*
X180340000Y-120396000D03*
X170180000Y-90932000D03*
X176276000Y-124460000D03*
X168148000Y-96774000D03*
X124460000Y-62992000D03*
X140716000Y-86868000D03*
X126492000Y-81026000D03*
X140716000Y-126492000D03*
D27*
X189230000Y-81280000D03*
D26*
X182372000Y-70866000D03*
X115316000Y-51308000D03*
X118364000Y-113030000D03*
X114300000Y-51308000D03*
X126492000Y-106934000D03*
X122428000Y-66802000D03*
X144780000Y-70866000D03*
X174244000Y-74930000D03*
X122428000Y-100838000D03*
X183388000Y-118872000D03*
X171196000Y-86868000D03*
X180340000Y-98806000D03*
X172212000Y-81026000D03*
X121412000Y-86868000D03*
X149860000Y-62992000D03*
X126492000Y-110998000D03*
X120396000Y-108966000D03*
X159004000Y-62992000D03*
X151892000Y-126492000D03*
X192532000Y-78994000D03*
X178308000Y-53340000D03*
X146812000Y-124460000D03*
X186436000Y-126492000D03*
X153924000Y-68834000D03*
X134620000Y-114808000D03*
X162052000Y-98806000D03*
X192532000Y-53340000D03*
X124460000Y-100838000D03*
X161036000Y-90932000D03*
X122428000Y-114808000D03*
X142748000Y-66802000D03*
X114300000Y-108966000D03*
X114300000Y-64770000D03*
X168148000Y-118872000D03*
X166116000Y-85090000D03*
X160020000Y-120396000D03*
X116332000Y-96774000D03*
X118364000Y-90932000D03*
X159004000Y-58928000D03*
X162052000Y-62992000D03*
X164084000Y-83058000D03*
X188468000Y-83058000D03*
X141732000Y-51308000D03*
X106172000Y-126492000D03*
X140716000Y-114808000D03*
X138684000Y-57404000D03*
D27*
X189230000Y-124460000D03*
D26*
X180340000Y-106934000D03*
X190500000Y-104902000D03*
X108204000Y-51308000D03*
X144780000Y-92710000D03*
X164084000Y-100838000D03*
X166116000Y-114808000D03*
X169164000Y-62992000D03*
X147828000Y-70866000D03*
X119380000Y-51308000D03*
X140716000Y-113030000D03*
X155956000Y-68834000D03*
X116332000Y-104902000D03*
X136652000Y-66802000D03*
X118364000Y-68834000D03*
X185420000Y-86614000D03*
X114300000Y-68834000D03*
X149860000Y-122428000D03*
X126492000Y-70866000D03*
X188468000Y-126492000D03*
X182372000Y-53340000D03*
X151892000Y-64770000D03*
X138684000Y-90932000D03*
X110236000Y-83058000D03*
X146812000Y-126492000D03*
X132588000Y-126492000D03*
X144780000Y-58928000D03*
X176276000Y-118872000D03*
X102108000Y-78994000D03*
X181356000Y-118872000D03*
X180340000Y-62992000D03*
X156972000Y-118872000D03*
X122428000Y-118872000D03*
X162052000Y-90932000D03*
X118364000Y-57404000D03*
X139700000Y-58928000D03*
X168148000Y-100838000D03*
X156972000Y-51308000D03*
X112268000Y-90932000D03*
X157988000Y-110998000D03*
X114300000Y-114808000D03*
X162052000Y-94742000D03*
X129540000Y-51308000D03*
X116332000Y-64770000D03*
X174244000Y-72898000D03*
X160020000Y-68834000D03*
X134620000Y-106934000D03*
X186436000Y-98806000D03*
X173228000Y-118872000D03*
X130556000Y-96774000D03*
X175260000Y-90932000D03*
X192532000Y-105918000D03*
X146812000Y-100838000D03*
X192532000Y-68834000D03*
X170180000Y-70866000D03*
X137668000Y-118872000D03*
X116332000Y-114808000D03*
X162052000Y-104902000D03*
X178308000Y-70866000D03*
X180340000Y-94742000D03*
X164084000Y-51308000D03*
X138684000Y-62992000D03*
X112268000Y-94742000D03*
X191516000Y-126492000D03*
X144272000Y-113538000D03*
X155956000Y-57404000D03*
X171196000Y-58928000D03*
X125476000Y-118872000D03*
X170180000Y-96774000D03*
X141732000Y-62992000D03*
X176276000Y-90932000D03*
X139700000Y-62992000D03*
X157988000Y-68834000D03*
X120396000Y-113030000D03*
X102108000Y-80010000D03*
X147828000Y-100838000D03*
X168148000Y-81026000D03*
X110236000Y-53340000D03*
X105156000Y-51308000D03*
X147320000Y-120142000D03*
X150876000Y-86868000D03*
X174244000Y-58928000D03*
X107188000Y-119634000D03*
X150876000Y-126492000D03*
X162052000Y-92710000D03*
X165100000Y-90932000D03*
X176276000Y-113030000D03*
X102108000Y-109982000D03*
X192532000Y-112014000D03*
X130556000Y-100838000D03*
X118364000Y-64770000D03*
X132588000Y-122428000D03*
X103124000Y-51308000D03*
X152908000Y-86868000D03*
X130556000Y-57404000D03*
X114300000Y-74930000D03*
X149860000Y-86868000D03*
X104140000Y-78994000D03*
X112268000Y-124460000D03*
X140716000Y-68834000D03*
X190500000Y-102870000D03*
X153924000Y-126492000D03*
X118364000Y-92710000D03*
X102108000Y-52324000D03*
X126492000Y-74930000D03*
X119380000Y-58928000D03*
X104140000Y-83058000D03*
X180340000Y-66802000D03*
X186436000Y-96774000D03*
X124460000Y-96774000D03*
X164084000Y-78994000D03*
X149098000Y-106426000D03*
X134620000Y-57404000D03*
X140716000Y-62992000D03*
X130556000Y-120396000D03*
X164084000Y-70866000D03*
X102108000Y-108966000D03*
X135636000Y-62992000D03*
X125476000Y-58928000D03*
X114300000Y-120396000D03*
X164084000Y-102870000D03*
X172212000Y-100838000D03*
X180340000Y-124460000D03*
X102108000Y-73914000D03*
X128524000Y-68834000D03*
X192532000Y-104902000D03*
X132588000Y-68834000D03*
X176276000Y-55372000D03*
X176276000Y-120396000D03*
X170180000Y-81026000D03*
X162052000Y-70866000D03*
X167132000Y-58928000D03*
X104140000Y-126492000D03*
X188468000Y-51308000D03*
X149860000Y-53340000D03*
X150368000Y-120142000D03*
X149860000Y-66802000D03*
X160020000Y-114808000D03*
X180340000Y-51308000D03*
X123444000Y-90932000D03*
X151892000Y-74930000D03*
X102108000Y-71882000D03*
X108204000Y-70866000D03*
X168148000Y-126492000D03*
X178308000Y-92710000D03*
D27*
X105410000Y-68580000D03*
D26*
X153924000Y-118872000D03*
X108204000Y-119380000D03*
X192532000Y-109982000D03*
X184404000Y-98806000D03*
X126492000Y-64770000D03*
X123444000Y-118872000D03*
X170180000Y-74930000D03*
X127508000Y-90932000D03*
X177292000Y-118872000D03*
X164084000Y-58928000D03*
X180340000Y-92710000D03*
X172212000Y-74930000D03*
X192532000Y-72898000D03*
X127508000Y-62992000D03*
X157988000Y-122428000D03*
X180340000Y-100838000D03*
X102108000Y-75946000D03*
X192532000Y-121412000D03*
X192532000Y-102870000D03*
X120396000Y-120396000D03*
X172212000Y-114808000D03*
X121412000Y-58928000D03*
X108204000Y-104902000D03*
X124460000Y-72898000D03*
X136652000Y-57404000D03*
X136652000Y-118872000D03*
X170180000Y-110998000D03*
X119380000Y-90932000D03*
X157988000Y-113030000D03*
X190500000Y-76962000D03*
X110236000Y-110998000D03*
X142748000Y-74930000D03*
X116332000Y-58928000D03*
X128524000Y-92710000D03*
X126492000Y-102870000D03*
X131572000Y-86868000D03*
X145288000Y-64770000D03*
X188468000Y-102870000D03*
X145796000Y-51308000D03*
X172212000Y-85090000D03*
X104140000Y-104902000D03*
X159004000Y-126492000D03*
X111252000Y-118872000D03*
X160020000Y-96774000D03*
X135636000Y-118872000D03*
X172212000Y-92710000D03*
X140716000Y-53340000D03*
X164084000Y-98806000D03*
X122428000Y-85090000D03*
X192532000Y-124460000D03*
X190500000Y-74930000D03*
X142748000Y-70866000D03*
X152908000Y-51308000D03*
X168148000Y-120396000D03*
X148844000Y-51308000D03*
X192532000Y-99822000D03*
X149860000Y-124460000D03*
X182372000Y-102870000D03*
X145542000Y-107442000D03*
X140716000Y-72898000D03*
X120396000Y-110998000D03*
X130556000Y-122428000D03*
X124460000Y-53340000D03*
X112268000Y-118872000D03*
X117348000Y-90932000D03*
X170180000Y-53340000D03*
X112268000Y-106934000D03*
X165100000Y-51308000D03*
X151892000Y-51308000D03*
X108204000Y-91440000D03*
X108204000Y-68834000D03*
X184404000Y-94742000D03*
X128524000Y-108966000D03*
X185420000Y-91186000D03*
X148336000Y-120142000D03*
X122428000Y-68834000D03*
X174244000Y-110998000D03*
X184404000Y-100838000D03*
X145542000Y-111506000D03*
X136652000Y-96774000D03*
X132588000Y-51308000D03*
X168148000Y-114808000D03*
X172212000Y-58928000D03*
X142748000Y-106934000D03*
X168148000Y-86868000D03*
X142240000Y-113538000D03*
X143256000Y-120142000D03*
X141732000Y-126492000D03*
X163068000Y-58928000D03*
X110236000Y-70866000D03*
X187452000Y-58166000D03*
X153416000Y-113792000D03*
X106172000Y-98806000D03*
X113284000Y-114808000D03*
X122428000Y-96774000D03*
X147828000Y-98806000D03*
X188468000Y-76962000D03*
X136652000Y-51308000D03*
X116332000Y-126492000D03*
X146304000Y-65278000D03*
X117348000Y-86868000D03*
X180340000Y-126492000D03*
X166116000Y-90932000D03*
X157988000Y-64770000D03*
X132588000Y-113030000D03*
X126492000Y-83058000D03*
X178308000Y-76962000D03*
X112268000Y-85090000D03*
X124460000Y-104902000D03*
X192532000Y-67818000D03*
X116332000Y-81026000D03*
X109220000Y-126492000D03*
X110236000Y-118872000D03*
X130556000Y-126492000D03*
X186436000Y-120396000D03*
X178308000Y-64770000D03*
X192532000Y-66802000D03*
X149860000Y-68834000D03*
X117348000Y-58928000D03*
X144780000Y-122428000D03*
X176276000Y-62992000D03*
X180340000Y-110998000D03*
X140716000Y-92710000D03*
X120396000Y-106934000D03*
X186436000Y-72898000D03*
X182372000Y-108966000D03*
X146812000Y-51308000D03*
X188468000Y-100838000D03*
X104140000Y-66802000D03*
X160020000Y-90932000D03*
X163068000Y-90932000D03*
X112268000Y-72898000D03*
X172212000Y-66802000D03*
X172212000Y-94742000D03*
X182372000Y-64770000D03*
X149860000Y-126492000D03*
X126492000Y-86868000D03*
X127508000Y-58928000D03*
X147828000Y-90932000D03*
X110236000Y-66802000D03*
X184404000Y-96774000D03*
X124460000Y-90932000D03*
X157988000Y-72898000D03*
X109220000Y-114554000D03*
X130556000Y-94742000D03*
X134620000Y-110998000D03*
X172212000Y-98806000D03*
X138684000Y-118872000D03*
X134620000Y-51308000D03*
X142748000Y-86868000D03*
X172212000Y-108966000D03*
X180340000Y-96774000D03*
X104140000Y-70866000D03*
X178308000Y-108966000D03*
X133604000Y-51308000D03*
X102108000Y-54356000D03*
X144780000Y-85090000D03*
X130556000Y-102870000D03*
X114300000Y-86868000D03*
X166116000Y-118872000D03*
X147320000Y-90170000D03*
X111252000Y-114808000D03*
X116332000Y-120396000D03*
X124460000Y-51308000D03*
X145288000Y-58166000D03*
X130556000Y-113030000D03*
X170180000Y-124460000D03*
X119380000Y-118872000D03*
X108204000Y-63500000D03*
X116332000Y-110998000D03*
X160020000Y-124460000D03*
X186436000Y-113030000D03*
X118364000Y-83058000D03*
X128524000Y-70866000D03*
X175260000Y-118872000D03*
X126492000Y-113030000D03*
X166116000Y-70866000D03*
X147828000Y-122428000D03*
X127508000Y-118872000D03*
X124460000Y-76962000D03*
X116332000Y-108966000D03*
X149098000Y-111506000D03*
X168148000Y-83058000D03*
X173228000Y-51308000D03*
X174244000Y-126492000D03*
X144780000Y-124460000D03*
X128524000Y-106934000D03*
X122428000Y-98806000D03*
X169164000Y-51308000D03*
X186436000Y-53340000D03*
X126492000Y-94742000D03*
X140716000Y-96774000D03*
X140716000Y-51308000D03*
X108204000Y-78994000D03*
X192532000Y-93726000D03*
X176276000Y-70866000D03*
X131572000Y-126492000D03*
X114300000Y-110998000D03*
X162052000Y-53340000D03*
X175260000Y-86868000D03*
X182372000Y-81026000D03*
X163068000Y-126492000D03*
X104140000Y-55372000D03*
X136652000Y-113030000D03*
X140716000Y-124460000D03*
X184404000Y-118872000D03*
X130556000Y-55372000D03*
X190500000Y-110998000D03*
X102108000Y-121412000D03*
X157988000Y-104902000D03*
X160020000Y-51308000D03*
X178308000Y-66802000D03*
X151892000Y-78994000D03*
X124460000Y-64770000D03*
X117348000Y-126492000D03*
X110236000Y-78994000D03*
X126492000Y-108966000D03*
X112268000Y-66802000D03*
X114300000Y-102870000D03*
X166116000Y-58928000D03*
X139700000Y-51308000D03*
X185420000Y-51308000D03*
X102108000Y-126492000D03*
X150876000Y-58928000D03*
X130556000Y-110998000D03*
X144780000Y-55372000D03*
X114300000Y-62992000D03*
X122428000Y-90932000D03*
X130556000Y-53340000D03*
X134620000Y-58928000D03*
X157988000Y-58928000D03*
X154940000Y-90932000D03*
D27*
X105410000Y-96520000D03*
D26*
X186436000Y-124460000D03*
X146304000Y-101854000D03*
X142748000Y-104902000D03*
X122428000Y-120396000D03*
X139700000Y-118872000D03*
X119380000Y-114808000D03*
X122428000Y-70866000D03*
X118364000Y-94742000D03*
X128524000Y-122428000D03*
X166116000Y-53340000D03*
X124460000Y-126492000D03*
X171196000Y-51308000D03*
X192532000Y-83058000D03*
X182372000Y-114808000D03*
X102108000Y-103886000D03*
X118364000Y-58928000D03*
X172212000Y-62992000D03*
X192532000Y-70866000D03*
X150368000Y-113538000D03*
X164084000Y-53340000D03*
X114300000Y-57404000D03*
X148590000Y-94761050D03*
X174244000Y-122428000D03*
X163068000Y-118872000D03*
X160020000Y-83058000D03*
X157988000Y-85090000D03*
X142748000Y-102870000D03*
X116332000Y-94742000D03*
X126492000Y-100838000D03*
X147828000Y-66802000D03*
X128524000Y-104902000D03*
X120396000Y-70866000D03*
X172212000Y-83058000D03*
X134620000Y-81026000D03*
X155956000Y-110998000D03*
X116332000Y-68834000D03*
X174244000Y-62992000D03*
X142748000Y-68834000D03*
X190500000Y-55372000D03*
X164084000Y-90932000D03*
X181356000Y-58928000D03*
X107188000Y-58166000D03*
X112268000Y-92710000D03*
X117348000Y-114808000D03*
X162052000Y-83058000D03*
X132588000Y-118872000D03*
X157988000Y-53340000D03*
X188468000Y-55372000D03*
X149860000Y-85090000D03*
X133604000Y-58928000D03*
X112268000Y-81026000D03*
X135636000Y-114808000D03*
X151892000Y-96774000D03*
X125476000Y-114808000D03*
X122428000Y-55372000D03*
X169164000Y-118872000D03*
X168148000Y-51308000D03*
X151384000Y-113538000D03*
X129540000Y-90932000D03*
X120396000Y-58928000D03*
X127508000Y-51308000D03*
X180340000Y-102870000D03*
X188468000Y-70866000D03*
X175260000Y-62992000D03*
X174244000Y-53340000D03*
X116332000Y-72898000D03*
X176276000Y-68834000D03*
X134620000Y-98806000D03*
X126492000Y-85090000D03*
X146812000Y-76962000D03*
X137668000Y-126492000D03*
X102108000Y-122428000D03*
X138684000Y-55372000D03*
X130556000Y-92710000D03*
X114300000Y-83058000D03*
X114300000Y-104902000D03*
X176276000Y-51308000D03*
X159004000Y-86868000D03*
X186436000Y-66802000D03*
X164084000Y-120396000D03*
X114300000Y-100838000D03*
X138684000Y-113030000D03*
X183388000Y-90932000D03*
X154940000Y-51308000D03*
X137668000Y-58928000D03*
X174244000Y-114808000D03*
X142240000Y-120142000D03*
X128524000Y-58928000D03*
X155956000Y-98806000D03*
X155956000Y-122428000D03*
X138684000Y-83058000D03*
X178308000Y-96774000D03*
X180340000Y-81026000D03*
X145542000Y-109474000D03*
X151892000Y-72898000D03*
X145796000Y-90932000D03*
X161036000Y-118872000D03*
X186436000Y-102870000D03*
X128524000Y-66802000D03*
X178308000Y-124460000D03*
X172212000Y-113030000D03*
X174244000Y-86868000D03*
X136652000Y-83058000D03*
X134620000Y-78994000D03*
X192532000Y-125476000D03*
X142748000Y-76962000D03*
X110236000Y-94742000D03*
X172212000Y-86868000D03*
X160020000Y-62992000D03*
X110236000Y-76962000D03*
X151892000Y-70866000D03*
X134620000Y-62992000D03*
X108204000Y-57404000D03*
X186436000Y-108966000D03*
X149860000Y-72898000D03*
X155956000Y-124460000D03*
X112268000Y-114808000D03*
X119380000Y-126492000D03*
X138684000Y-94742000D03*
X128524000Y-64770000D03*
X111252000Y-51308000D03*
X120396000Y-90932000D03*
X177292000Y-126492000D03*
X116332000Y-98806000D03*
X106172000Y-72898000D03*
X128524000Y-55372000D03*
X176276000Y-86868000D03*
X184404000Y-55372000D03*
X187452000Y-91694000D03*
X164084000Y-114808000D03*
X161036000Y-58928000D03*
X118364000Y-66802000D03*
X139700000Y-126492000D03*
D27*
X189230000Y-109220000D03*
D26*
X183388000Y-126492000D03*
X149098000Y-109474000D03*
X138684000Y-64770000D03*
X114300000Y-53340000D03*
X122428000Y-122428000D03*
X173228000Y-90932000D03*
X138684000Y-114808000D03*
X122428000Y-110998000D03*
X174244000Y-78994000D03*
X102108000Y-96774000D03*
X186436000Y-122428000D03*
X176276000Y-81026000D03*
X138684000Y-106934000D03*
X110236000Y-114808000D03*
X160020000Y-66802000D03*
X134620000Y-122428000D03*
X155956000Y-94742000D03*
X187452000Y-114046000D03*
X160020000Y-126492000D03*
X176276000Y-94742000D03*
X186436000Y-110998000D03*
X152404676Y-113526658D03*
X179324000Y-114808000D03*
X117348000Y-118872000D03*
X186436000Y-58420000D03*
X138684000Y-124460000D03*
X138684000Y-74930000D03*
X124460000Y-58928000D03*
X153924000Y-90932000D03*
X149352000Y-64770000D03*
X184404000Y-70866000D03*
X132588000Y-90932000D03*
X149098000Y-102362000D03*
X180340000Y-64770000D03*
X147828000Y-83058000D03*
X164084000Y-81026000D03*
X166116000Y-122428000D03*
X189484000Y-51308000D03*
X178308000Y-86868000D03*
X102108000Y-107950000D03*
X102108000Y-112014000D03*
X170180000Y-113030000D03*
X132588000Y-124460000D03*
X149098000Y-108458000D03*
X151892000Y-85090000D03*
X162052000Y-102870000D03*
X118364000Y-55372000D03*
X153924000Y-114808000D03*
X168148000Y-62992000D03*
X170180000Y-62992000D03*
X142748000Y-55372000D03*
X110236000Y-92710000D03*
X138684000Y-100838000D03*
X190500000Y-98806000D03*
X128524000Y-76962000D03*
X174244000Y-85090000D03*
X106172000Y-100838000D03*
X112268000Y-83058000D03*
X115316000Y-126492000D03*
X168148000Y-98806000D03*
X120396000Y-53340000D03*
X178308000Y-98806000D03*
X174244000Y-81026000D03*
X112268000Y-86868000D03*
X151892000Y-122428000D03*
X151892000Y-110998000D03*
X180340000Y-90932000D03*
X120396000Y-92710000D03*
X155956000Y-120396000D03*
X169164000Y-86868000D03*
X149860000Y-81026000D03*
X126492000Y-114808000D03*
X172212000Y-106934000D03*
X176276000Y-98806000D03*
X128524000Y-51308000D03*
X124460000Y-108966000D03*
X137668000Y-114808000D03*
X133604000Y-118872000D03*
X160020000Y-86868000D03*
X190500000Y-78994000D03*
X153924000Y-96774000D03*
X116332000Y-100838000D03*
X176276000Y-106934000D03*
X177292000Y-58928000D03*
X189484000Y-126492000D03*
X134620000Y-126492000D03*
X182372000Y-78994000D03*
X155956000Y-51308000D03*
X136652000Y-86868000D03*
X146812000Y-74930000D03*
X192532000Y-73914000D03*
X138684000Y-68834000D03*
X112268000Y-120396000D03*
X126492000Y-124460000D03*
X166116000Y-86868000D03*
X134620000Y-102870000D03*
X108204000Y-72898000D03*
X130556000Y-124460000D03*
X147828000Y-55372000D03*
X102108000Y-110998000D03*
X118364000Y-74930000D03*
X162052000Y-124460000D03*
X160020000Y-58928000D03*
X116332000Y-106934000D03*
X190500000Y-94742000D03*
X149860000Y-78994000D03*
X129540000Y-86868000D03*
X134620000Y-55372000D03*
X110236000Y-72898000D03*
X172212000Y-51308000D03*
X170180000Y-106934000D03*
X180340000Y-57404000D03*
X133604000Y-86868000D03*
X102108000Y-56388000D03*
X126492000Y-62992000D03*
X184404000Y-90932000D03*
X150876000Y-62992000D03*
X120396000Y-94742000D03*
X112268000Y-102870000D03*
X122428000Y-53340000D03*
X145542000Y-105410000D03*
X144780000Y-126492000D03*
X128524000Y-102870000D03*
X173228000Y-58928000D03*
X180340000Y-114808000D03*
X135636000Y-126492000D03*
X168148000Y-66802000D03*
X142748000Y-57404000D03*
X166116000Y-55372000D03*
X121412000Y-51308000D03*
X118364000Y-72898000D03*
X174244000Y-90932000D03*
X168148000Y-122428000D03*
X110236000Y-113030000D03*
X151892000Y-100838000D03*
X133604000Y-114808000D03*
X143256000Y-113538000D03*
X112268000Y-53340000D03*
X179324000Y-118872000D03*
X145542000Y-113538000D03*
X192532000Y-71882000D03*
X122428000Y-76962000D03*
X187452000Y-86106000D03*
X116332000Y-92710000D03*
X162052000Y-126492000D03*
X128524000Y-83058000D03*
X146812000Y-83058000D03*
X147828000Y-126492000D03*
X178308000Y-113030000D03*
X151892000Y-92710000D03*
X178308000Y-51308000D03*
X124460000Y-74930000D03*
X106172000Y-102870000D03*
X186436000Y-55372000D03*
X104140000Y-102870000D03*
X108204000Y-66802000D03*
X183388000Y-51308000D03*
X166116000Y-102870000D03*
X116332000Y-53340000D03*
X142748000Y-62992000D03*
X157988000Y-55372000D03*
X108204000Y-55372000D03*
X130556000Y-74930000D03*
X140716000Y-57404000D03*
X110236000Y-55372000D03*
X192532000Y-103886000D03*
X178308000Y-83058000D03*
X182372000Y-86868000D03*
X160020000Y-100838000D03*
X137668000Y-51308000D03*
X166116000Y-68834000D03*
X170180000Y-122428000D03*
X153924000Y-85090000D03*
X136652000Y-90932000D03*
X178308000Y-104902000D03*
X153924000Y-81026000D03*
X138684000Y-70866000D03*
X117348000Y-51308000D03*
X155956000Y-118872000D03*
X107188000Y-51308000D03*
X120396000Y-102870000D03*
X157988000Y-118872000D03*
X155956000Y-76962000D03*
X180340000Y-68834000D03*
X165100000Y-114808000D03*
X171196000Y-114808000D03*
X132588000Y-57404000D03*
X102108000Y-124460000D03*
X102108000Y-123444000D03*
X166116000Y-113030000D03*
X138684000Y-51308000D03*
X180340000Y-83058000D03*
X185420000Y-126492000D03*
X136652000Y-55372000D03*
X107188000Y-86106000D03*
X144780000Y-78994000D03*
X176276000Y-74930000D03*
X120396000Y-85090000D03*
X192532000Y-76962000D03*
X162052000Y-100838000D03*
X124460000Y-70866000D03*
X147828000Y-78994000D03*
X164084000Y-66802000D03*
X106172000Y-74930000D03*
X178308000Y-114808000D03*
X155956000Y-78994000D03*
X130556000Y-78994000D03*
X176276000Y-96774000D03*
X148590000Y-93491050D03*
X162052000Y-85090000D03*
X114300000Y-76962000D03*
X126492000Y-57404000D03*
X140716000Y-94742000D03*
X144780000Y-81026000D03*
X166116000Y-100838000D03*
X188468000Y-106934000D03*
X138684000Y-104902000D03*
X174244000Y-113030000D03*
X180340000Y-108966000D03*
X122428000Y-104902000D03*
X138684000Y-85090000D03*
X162052000Y-51308000D03*
X184404000Y-106934000D03*
X130556000Y-64770000D03*
X128524000Y-74930000D03*
X160020000Y-78994000D03*
X155956000Y-113030000D03*
X153924000Y-64770000D03*
X120396000Y-98806000D03*
X108204000Y-98806000D03*
X135636000Y-86868000D03*
X186436000Y-114300000D03*
X183388000Y-114808000D03*
X188468000Y-72898000D03*
X116332000Y-86868000D03*
X190500000Y-66802000D03*
X134620000Y-83058000D03*
X136652000Y-92710000D03*
X162052000Y-74930000D03*
X112268000Y-78994000D03*
X152908000Y-126492000D03*
X106172000Y-66802000D03*
X151892000Y-102870000D03*
X174244000Y-68834000D03*
X157988000Y-51308000D03*
X112268000Y-96774000D03*
X181356000Y-114808000D03*
X182372000Y-124460000D03*
X182372000Y-55372000D03*
X180340000Y-86868000D03*
X182372000Y-96774000D03*
X118364000Y-96774000D03*
X166116000Y-62992000D03*
X160020000Y-81026000D03*
X172212000Y-55372000D03*
X164084000Y-86868000D03*
X102108000Y-94742000D03*
X167132000Y-62992000D03*
X108204000Y-83058000D03*
X186436000Y-78994000D03*
X130556000Y-51308000D03*
X172212000Y-64770000D03*
X146812000Y-55372000D03*
X160020000Y-94742000D03*
X114300000Y-106934000D03*
X192532000Y-81026000D03*
X133604000Y-126492000D03*
X151892000Y-57404000D03*
X170180000Y-55372000D03*
X181356000Y-90932000D03*
X172212000Y-68834000D03*
X149352000Y-58166000D03*
X112268000Y-104902000D03*
X180340000Y-55372000D03*
X147828000Y-68834000D03*
X148336000Y-56642000D03*
X157988000Y-66802000D03*
X160020000Y-53340000D03*
X102108000Y-65786000D03*
X174244000Y-102870000D03*
X190500000Y-126492000D03*
X162052000Y-118872000D03*
X110236000Y-102870000D03*
X190500000Y-51308000D03*
X188468000Y-74930000D03*
X166116000Y-51308000D03*
X170180000Y-98806000D03*
X116332000Y-74930000D03*
X123444000Y-51308000D03*
X130556000Y-118872000D03*
X102108000Y-83058000D03*
X116332000Y-124460000D03*
X138684000Y-102870000D03*
X190500000Y-83058000D03*
X118364000Y-106934000D03*
X116332000Y-83058000D03*
X155956000Y-90932000D03*
X166116000Y-76962000D03*
X104140000Y-74930000D03*
X124460000Y-86868000D03*
X170180000Y-72898000D03*
X168148000Y-68834000D03*
X121412000Y-62992000D03*
X125476000Y-86868000D03*
X192532000Y-55372000D03*
X116332000Y-118872000D03*
X134620000Y-120396000D03*
X170180000Y-64770000D03*
X149098000Y-104394000D03*
X105156000Y-126492000D03*
X110236000Y-120396000D03*
X102108000Y-93726000D03*
X176276000Y-78994000D03*
X127508000Y-126492000D03*
X119380000Y-86868000D03*
X168148000Y-90932000D03*
X140716000Y-64770000D03*
X182372000Y-92710000D03*
X134620000Y-76962000D03*
X178308000Y-62992000D03*
X136652000Y-81026000D03*
X140716000Y-55372000D03*
X140716000Y-58928000D03*
X168148000Y-106934000D03*
X102108000Y-84074000D03*
X124460000Y-83058000D03*
X126492000Y-90932000D03*
X174244000Y-100838000D03*
X166116000Y-66802000D03*
X185420000Y-114554000D03*
X174244000Y-92710000D03*
X166116000Y-124460000D03*
X120396000Y-86868000D03*
X149860000Y-70866000D03*
X102108000Y-97790000D03*
X134620000Y-72898000D03*
X140716000Y-100838000D03*
X171196000Y-126492000D03*
X153924000Y-83058000D03*
X168148000Y-110998000D03*
X164084000Y-124460000D03*
X109220000Y-86614000D03*
X118364000Y-98806000D03*
X192532000Y-97790000D03*
X153924000Y-70866000D03*
X170180000Y-86868000D03*
X130556000Y-70866000D03*
X182372000Y-106934000D03*
X120396000Y-83058000D03*
X155956000Y-96774000D03*
X145542000Y-112522000D03*
X160020000Y-70866000D03*
X140716000Y-85090000D03*
X192532000Y-80010000D03*
X113284000Y-86868000D03*
X171196000Y-118872000D03*
X151892000Y-124460000D03*
X154940000Y-86868000D03*
X140716000Y-98806000D03*
X120396000Y-78994000D03*
X166116000Y-78994000D03*
X134620000Y-70866000D03*
X182372000Y-94742000D03*
X168148000Y-85090000D03*
X155956000Y-72898000D03*
X108204000Y-64770000D03*
X144780000Y-74930000D03*
X180340000Y-85090000D03*
X136652000Y-126492000D03*
X138684000Y-66802000D03*
X140716000Y-83058000D03*
X112268000Y-98806000D03*
X182372000Y-72898000D03*
X152908000Y-62992000D03*
X151892000Y-90932000D03*
X155956000Y-81026000D03*
X147828000Y-124460000D03*
X188468000Y-104902000D03*
X136652000Y-72898000D03*
X108204000Y-120396000D03*
X118364000Y-110998000D03*
X157988000Y-92710000D03*
X104140000Y-98806000D03*
X182372000Y-118872000D03*
X149352000Y-57150000D03*
X130556000Y-104902000D03*
X155956000Y-55372000D03*
X186436000Y-94742000D03*
X122428000Y-57404000D03*
X168148000Y-57404000D03*
X151892000Y-98806000D03*
X132588000Y-76962000D03*
X172212000Y-76962000D03*
X192532000Y-54356000D03*
X166116000Y-72898000D03*
X162052000Y-66802000D03*
X111252000Y-86868000D03*
X126492000Y-76962000D03*
X120396000Y-66802000D03*
X144780000Y-94742000D03*
X144780000Y-98806000D03*
X144780000Y-100838000D03*
X142748000Y-96012000D03*
X142748000Y-99060000D03*
X142748000Y-101092000D03*
%TD*%
D28*
%TO.N,/J1*%
X103962200Y-60960000D02*
X143687800Y-60960000D01*
%TO.N,/J4*%
X190677800Y-88900000D02*
X178816000Y-88900000D01*
%TO.N,/J3*%
X103962200Y-88900000D02*
X115824000Y-88900000D01*
%TO.N,/J2*%
X150926800Y-60960000D02*
X190677800Y-60960000D01*
%TO.N,/J5*%
X103962200Y-116840000D02*
X143918643Y-116840000D01*
%TO.N,/J6*%
X190677800Y-116840000D02*
X150721357Y-116840000D01*
%TO.N,Net-(C10-Pad1)*%
X176758600Y-88900000D02*
X149072600Y-88900000D01*
%TO.N,Net-(C11-Pad1)*%
X117856000Y-88900000D02*
X145542000Y-88900000D01*
%TD*%
%TA.AperFunction,Conductor*%
%TO.N,GND*%
G36*
X141700601Y-118282965D02*
G01*
X141730665Y-118335036D01*
X141732000Y-118350300D01*
X141732000Y-119380000D01*
X141732001Y-119380000D01*
X152907999Y-119380000D01*
X152908000Y-119380000D01*
X152908000Y-118350300D01*
X152928565Y-118293799D01*
X152980636Y-118263735D01*
X152995900Y-118262400D01*
X184926889Y-118262400D01*
X184947616Y-118264879D01*
X185987368Y-118517171D01*
X188391800Y-119100600D01*
X192875400Y-119100600D01*
X192931901Y-119121165D01*
X192961965Y-119173236D01*
X192963300Y-119188500D01*
X192963300Y-126835400D01*
X192942735Y-126891901D01*
X192890664Y-126921965D01*
X192875400Y-126923300D01*
X101764600Y-126923300D01*
X101708099Y-126902735D01*
X101678035Y-126850664D01*
X101676700Y-126835400D01*
X101676700Y-119188500D01*
X101697265Y-119131999D01*
X101749336Y-119101935D01*
X101764600Y-119100600D01*
X106248202Y-119100600D01*
X109717854Y-118264844D01*
X109738438Y-118262400D01*
X141644100Y-118262400D01*
X141700601Y-118282965D01*
G37*
%TD.AperFunction*%
%TA.AperFunction,Conductor*%
G36*
X149878901Y-90342965D02*
G01*
X149908965Y-90395036D01*
X149910300Y-90410300D01*
X149910300Y-91656900D01*
X149889735Y-91713401D01*
X149837664Y-91743465D01*
X149822400Y-91744800D01*
X149762402Y-91744800D01*
X149705901Y-91724235D01*
X149681194Y-91690541D01*
X149676234Y-91678568D01*
X149671230Y-91662072D01*
X149670201Y-91656900D01*
X149667934Y-91645499D01*
X149664951Y-91641035D01*
X149658546Y-91631448D01*
X149650424Y-91616254D01*
X149647993Y-91610388D01*
X149643955Y-91600637D01*
X149631999Y-91588681D01*
X149621066Y-91575358D01*
X149611684Y-91561316D01*
X149597633Y-91551927D01*
X149584318Y-91540999D01*
X149572364Y-91529045D01*
X149572361Y-91529044D01*
X149556746Y-91522576D01*
X149541553Y-91514455D01*
X149527501Y-91505066D01*
X149527500Y-91505065D01*
X149510924Y-91501768D01*
X149494441Y-91496768D01*
X149487879Y-91494050D01*
X149478824Y-91490300D01*
X149478823Y-91490300D01*
X147802423Y-91490300D01*
X147701177Y-91490300D01*
X147701175Y-91490300D01*
X147685559Y-91496768D01*
X147669077Y-91501767D01*
X147652501Y-91505064D01*
X147652497Y-91505066D01*
X147638444Y-91514456D01*
X147623255Y-91522575D01*
X147607636Y-91529045D01*
X147607634Y-91529046D01*
X147595681Y-91540999D01*
X147582371Y-91551923D01*
X147568319Y-91561313D01*
X147568313Y-91561319D01*
X147558923Y-91575371D01*
X147547999Y-91588681D01*
X147536046Y-91600634D01*
X147529576Y-91616254D01*
X147521457Y-91631444D01*
X147512066Y-91645499D01*
X147512065Y-91645500D01*
X147508768Y-91662076D01*
X147503769Y-91678555D01*
X147498809Y-91690532D01*
X147458191Y-91734865D01*
X147417598Y-91744800D01*
X146888200Y-91744800D01*
X146888200Y-92659200D01*
X147417598Y-92659200D01*
X147474099Y-92679765D01*
X147498807Y-92713461D01*
X147503767Y-92725437D01*
X147503768Y-92725438D01*
X147508769Y-92741926D01*
X147512065Y-92758499D01*
X147512065Y-92758500D01*
X147512066Y-92758501D01*
X147521458Y-92772557D01*
X147529577Y-92787747D01*
X147536045Y-92803363D01*
X147536045Y-92803364D01*
X147547999Y-92815318D01*
X147558927Y-92828633D01*
X147568316Y-92842684D01*
X147582361Y-92852068D01*
X147595681Y-92862999D01*
X147607637Y-92874955D01*
X147623253Y-92881423D01*
X147638445Y-92889543D01*
X147647574Y-92895643D01*
X147652497Y-92898933D01*
X147652499Y-92898934D01*
X147669081Y-92902232D01*
X147685561Y-92907232D01*
X147701177Y-92913700D01*
X147701178Y-92913700D01*
X149478824Y-92913700D01*
X149494430Y-92907235D01*
X149510925Y-92902230D01*
X149527501Y-92898934D01*
X149533198Y-92895127D01*
X149541551Y-92889546D01*
X149556750Y-92881421D01*
X149572363Y-92874955D01*
X149584313Y-92863003D01*
X149597633Y-92852071D01*
X149611684Y-92842684D01*
X149621071Y-92828633D01*
X149632005Y-92815312D01*
X149643955Y-92803363D01*
X149650423Y-92787747D01*
X149658542Y-92772555D01*
X149667934Y-92758501D01*
X149671231Y-92741926D01*
X149676232Y-92725437D01*
X149681192Y-92713462D01*
X149721811Y-92669133D01*
X149762401Y-92659200D01*
X149822400Y-92659200D01*
X149878901Y-92679765D01*
X149908965Y-92731836D01*
X149910300Y-92747100D01*
X149910300Y-96552653D01*
X149889735Y-96609154D01*
X149871235Y-96625739D01*
X149828918Y-96654014D01*
X149828914Y-96654018D01*
X149772665Y-96738198D01*
X149766243Y-96770488D01*
X149757901Y-96812431D01*
X149757900Y-96812434D01*
X149757900Y-98259568D01*
X149768959Y-98315163D01*
X149772666Y-98333801D01*
X149828916Y-98417984D01*
X149913099Y-98474234D01*
X149987333Y-98489000D01*
X150096689Y-98488999D01*
X150096695Y-98489000D01*
X150114177Y-98489000D01*
X151129822Y-98489000D01*
X151129823Y-98489000D01*
X151223363Y-98450255D01*
X151294955Y-98378663D01*
X151333700Y-98285123D01*
X151333700Y-90919477D01*
X151333700Y-90901996D01*
X151333699Y-90901990D01*
X151333699Y-90410300D01*
X151354264Y-90353799D01*
X151406335Y-90323735D01*
X151421599Y-90322400D01*
X184901562Y-90322400D01*
X184922146Y-90324844D01*
X188391798Y-91160600D01*
X188391800Y-91160600D01*
X192875400Y-91160600D01*
X192931901Y-91181165D01*
X192961965Y-91233236D01*
X192963300Y-91248500D01*
X192963300Y-114491500D01*
X192942735Y-114548001D01*
X192890664Y-114578065D01*
X192875400Y-114579400D01*
X188391797Y-114579400D01*
X184947616Y-115415121D01*
X184926889Y-115417600D01*
X152995900Y-115417600D01*
X152939399Y-115397035D01*
X152909335Y-115344964D01*
X152908000Y-115329700D01*
X152908000Y-114300001D01*
X152908000Y-114300000D01*
X152907999Y-114300000D01*
X148652500Y-114300000D01*
X148595999Y-114279435D01*
X148565935Y-114227364D01*
X148564600Y-114212100D01*
X148564600Y-102285801D01*
X148564600Y-102285800D01*
X146075400Y-102285800D01*
X146075400Y-102285801D01*
X146075400Y-114212100D01*
X146054835Y-114268601D01*
X146002764Y-114298665D01*
X145987500Y-114300000D01*
X141732000Y-114300000D01*
X141732000Y-114300001D01*
X141732000Y-115329700D01*
X141711435Y-115386201D01*
X141659364Y-115416265D01*
X141644100Y-115417600D01*
X109738438Y-115417600D01*
X109717854Y-115415156D01*
X106248202Y-114579400D01*
X106248200Y-114579400D01*
X101764600Y-114579400D01*
X101708099Y-114558835D01*
X101678035Y-114506764D01*
X101676700Y-114491500D01*
X101676700Y-96875927D01*
X145287000Y-96875927D01*
X145287000Y-98196067D01*
X145287076Y-98196829D01*
X145287500Y-98205449D01*
X145287500Y-98221625D01*
X145293006Y-98234918D01*
X145298006Y-98251400D01*
X145301765Y-98270299D01*
X145301766Y-98270302D01*
X145307748Y-98279255D01*
X145312468Y-98286317D01*
X145320589Y-98301510D01*
X145326245Y-98315163D01*
X145336693Y-98325611D01*
X145347620Y-98338926D01*
X145358016Y-98354484D01*
X145373568Y-98364875D01*
X145386888Y-98375806D01*
X145397837Y-98386755D01*
X145412135Y-98392677D01*
X145427332Y-98400800D01*
X145442199Y-98410734D01*
X145459744Y-98414223D01*
X145476223Y-98419223D01*
X145491377Y-98425500D01*
X145516433Y-98425500D01*
X145592623Y-98425500D01*
X147984700Y-98425500D01*
X148033534Y-98440313D01*
X148084299Y-98474234D01*
X148158533Y-98489000D01*
X149224666Y-98488999D01*
X149224668Y-98488999D01*
X149243161Y-98485320D01*
X149298901Y-98474234D01*
X149383084Y-98417984D01*
X149439334Y-98333801D01*
X149454100Y-98259567D01*
X149454100Y-97916500D01*
X149454100Y-96850377D01*
X149454100Y-96843298D01*
X149454099Y-96843284D01*
X149454099Y-96812431D01*
X149445756Y-96770488D01*
X149439334Y-96738199D01*
X149383084Y-96654016D01*
X149371836Y-96646500D01*
X149298901Y-96597765D01*
X149245792Y-96587202D01*
X149224667Y-96583000D01*
X149224665Y-96583000D01*
X148158531Y-96583000D01*
X148084299Y-96597766D01*
X148033535Y-96631686D01*
X147984700Y-96646500D01*
X145491375Y-96646500D01*
X145476221Y-96652777D01*
X145459738Y-96657776D01*
X145442201Y-96661264D01*
X145442196Y-96661266D01*
X145427327Y-96671201D01*
X145412140Y-96679319D01*
X145397836Y-96685244D01*
X145386887Y-96696193D01*
X145373573Y-96707119D01*
X145358019Y-96717512D01*
X145358012Y-96717519D01*
X145347619Y-96733073D01*
X145336693Y-96746387D01*
X145326246Y-96756834D01*
X145320590Y-96770488D01*
X145312471Y-96785675D01*
X145301768Y-96801693D01*
X145301765Y-96801700D01*
X145298006Y-96820598D01*
X145293008Y-96837076D01*
X145287501Y-96850373D01*
X145287500Y-96850379D01*
X145287500Y-96866535D01*
X145287077Y-96875145D01*
X145287000Y-96875927D01*
X101676700Y-96875927D01*
X101676700Y-91248500D01*
X101697265Y-91191999D01*
X101749336Y-91161935D01*
X101764600Y-91160600D01*
X106248202Y-91160600D01*
X109717854Y-90324844D01*
X109738438Y-90322400D01*
X149822400Y-90322400D01*
X149878901Y-90342965D01*
G37*
%TD.AperFunction*%
%TA.AperFunction,Conductor*%
G36*
X145866201Y-62402965D02*
G01*
X145896265Y-62455036D01*
X145897600Y-62470300D01*
X145897600Y-64516000D01*
X145897601Y-64516000D01*
X148742399Y-64516000D01*
X148742400Y-64516000D01*
X148742400Y-62470300D01*
X148762965Y-62413799D01*
X148815036Y-62383735D01*
X148830300Y-62382400D01*
X184901562Y-62382400D01*
X184922146Y-62384844D01*
X188391798Y-63220600D01*
X188391800Y-63220600D01*
X192875400Y-63220600D01*
X192931901Y-63241165D01*
X192961965Y-63293236D01*
X192963300Y-63308500D01*
X192963300Y-86551500D01*
X192942735Y-86608001D01*
X192890664Y-86638065D01*
X192875400Y-86639400D01*
X188391798Y-86639400D01*
X184922146Y-87475156D01*
X184901562Y-87477600D01*
X149947260Y-87477600D01*
X149890759Y-87457035D01*
X149878750Y-87444770D01*
X149788820Y-87332892D01*
X149788813Y-87332885D01*
X149642317Y-87215129D01*
X149473939Y-87131621D01*
X149291541Y-87086262D01*
X149249335Y-87083400D01*
X149249325Y-87083400D01*
X148387873Y-87083400D01*
X148345659Y-87086262D01*
X148163260Y-87131621D01*
X147994883Y-87215129D01*
X147994882Y-87215129D01*
X147848386Y-87332885D01*
X147848379Y-87332892D01*
X147758450Y-87444770D01*
X147707024Y-87475924D01*
X147689940Y-87477600D01*
X146950060Y-87477600D01*
X146893559Y-87457035D01*
X146881550Y-87444770D01*
X146791620Y-87332892D01*
X146791613Y-87332885D01*
X146645117Y-87215129D01*
X146476739Y-87131621D01*
X146294341Y-87086262D01*
X146252135Y-87083400D01*
X146252125Y-87083400D01*
X145390673Y-87083400D01*
X145348459Y-87086262D01*
X145166060Y-87131621D01*
X144997683Y-87215129D01*
X144997682Y-87215129D01*
X144851186Y-87332885D01*
X144851179Y-87332892D01*
X144761250Y-87444770D01*
X144709824Y-87475924D01*
X144692740Y-87477600D01*
X109738438Y-87477600D01*
X109717854Y-87475156D01*
X106248202Y-86639400D01*
X106248200Y-86639400D01*
X101764600Y-86639400D01*
X101708099Y-86618835D01*
X101678035Y-86566764D01*
X101676700Y-86551500D01*
X101676700Y-63308500D01*
X101697265Y-63251999D01*
X101749336Y-63221935D01*
X101764600Y-63220600D01*
X106248202Y-63220600D01*
X109717854Y-62384844D01*
X109738438Y-62382400D01*
X145809700Y-62382400D01*
X145866201Y-62402965D01*
G37*
%TD.AperFunction*%
%TA.AperFunction,Conductor*%
G36*
X192931901Y-50897265D02*
G01*
X192961965Y-50949336D01*
X192963300Y-50964600D01*
X192963300Y-58611500D01*
X192942735Y-58668001D01*
X192890664Y-58698065D01*
X192875400Y-58699400D01*
X188391798Y-58699400D01*
X184922146Y-59535156D01*
X184901562Y-59537600D01*
X148830300Y-59537600D01*
X148773799Y-59517035D01*
X148743735Y-59464964D01*
X148742400Y-59449700D01*
X148742400Y-57404001D01*
X148742400Y-57404000D01*
X145897600Y-57404000D01*
X145897600Y-57404001D01*
X145897600Y-59449700D01*
X145877035Y-59506201D01*
X145824964Y-59536265D01*
X145809700Y-59537600D01*
X109738438Y-59537600D01*
X109717854Y-59535156D01*
X106248202Y-58699400D01*
X106248200Y-58699400D01*
X101764600Y-58699400D01*
X101708099Y-58678835D01*
X101678035Y-58626764D01*
X101676700Y-58611500D01*
X101676700Y-50964600D01*
X101697265Y-50908099D01*
X101749336Y-50878035D01*
X101764600Y-50876700D01*
X192875400Y-50876700D01*
X192931901Y-50897265D01*
G37*
%TD.AperFunction*%
%TD*%
M02*
